<svg width="460" height="111" viewBox="0 0 460 111" fill="none" xmlns="http://www.w3.org/2000/svg">
<path d="M125.66 43.5066C122.419 46.7775 118.443 48.413 113.734 48.413C109.025 48.413 105.034 46.7775 101.762 43.5066C98.5202 40.2045 96.8994 36.1548 96.8994 31.3575C96.8994 26.5601 98.5202 22.526 101.762 19.2551C105.034 15.953 109.025 14.3019 113.734 14.3019C118.443 14.3019 122.419 15.953 125.66 19.2551C128.933 22.526 130.569 26.5601 130.569 31.3575C130.569 36.1548 128.933 40.2045 125.66 43.5066ZM107.541 37.7591C109.193 39.4102 111.257 40.2357 113.734 40.2357C116.211 40.2357 118.275 39.4102 119.927 37.7591C121.578 36.0769 122.404 33.9431 122.404 31.3575C122.404 28.7719 121.578 26.6536 119.927 25.0025C118.275 23.3203 116.211 22.4792 113.734 22.4792C111.257 22.4792 109.193 23.3203 107.541 25.0025C105.89 26.6536 105.064 28.7719 105.064 31.3575C105.064 33.9431 105.89 36.0769 107.541 37.7591ZM145.004 48.413C141.61 48.413 138.796 47.6809 136.564 46.2168C134.332 44.7527 132.772 42.7745 131.885 40.2824L138.903 36.1237C140.096 39.0208 142.206 40.4693 145.233 40.4693C147.741 40.4693 148.995 39.7373 148.995 38.2731C148.995 37.3074 148.276 36.5286 146.839 35.9368C146.227 35.6876 144.882 35.267 142.802 34.6751C139.867 33.8029 137.542 32.588 135.83 31.0304C134.117 29.4416 133.261 27.2455 133.261 24.4418C133.261 21.4201 134.316 18.9747 136.426 17.1056C138.567 15.2365 141.227 14.3019 144.408 14.3019C147.099 14.3019 149.484 14.9406 151.564 16.2178C153.643 17.495 155.233 19.3485 156.334 21.7783L149.454 25.8904C148.444 23.4605 146.778 22.2456 144.454 22.2456C143.475 22.2456 142.726 22.4481 142.206 22.8531C141.717 23.258 141.472 23.772 141.472 24.3951C141.472 25.1116 141.839 25.719 142.573 26.2174C143.337 26.7159 144.805 27.2922 146.977 27.9464C148.536 28.4136 149.79 28.8498 150.738 29.2547C151.686 29.6597 152.726 30.2516 153.857 31.0304C154.989 31.778 155.83 32.7593 156.38 33.9742C156.931 35.158 157.206 36.5598 157.206 38.1797C157.206 41.3883 156.09 43.896 153.857 45.7028C151.625 47.5096 148.674 48.413 145.004 48.413ZM160.649 15.0029L168.86 15.0029L168.86 47.7121L160.649 47.7121V15.0029ZM201.707 15.0029L190.881 35.1424V47.7121L182.67 47.7121V35.2359L171.845 15.0029L181.065 15.0029L186.753 27.1053L192.486 15.0029L201.707 15.0029ZM229.495 43.5066C226.254 46.7775 222.278 48.413 217.569 48.413C212.859 48.413 208.868 46.7775 205.596 43.5066C202.355 40.2045 200.734 36.1548 200.734 31.3575C200.734 26.5601 202.355 22.526 205.596 19.2551C208.868 15.953 212.859 14.3019 217.569 14.3019C222.278 14.3019 226.254 15.953 229.495 19.2551C232.767 22.526 234.403 26.5601 234.403 31.3575C234.403 36.1548 232.767 40.2045 229.495 43.5066ZM211.376 37.7591C213.027 39.4102 215.092 40.2357 217.569 40.2357C220.046 40.2357 222.11 39.4102 223.761 37.7591C225.413 36.0769 226.238 33.9431 226.238 31.3575C226.238 28.7719 225.413 26.6536 223.761 25.0025C222.11 23.3203 220.046 22.4792 217.569 22.4792C215.092 22.4792 213.027 23.3203 211.376 25.0025C209.725 26.6536 208.899 28.7719 208.899 31.3575C208.899 33.9431 209.725 36.0769 211.376 37.7591ZM275.714 47.7121L266.54 47.7121L261.495 39.0208L256.449 47.7121L247.229 47.7121L256.907 31.0304L247.596 15.0029L256.816 15.0029L261.495 23.0867L266.173 15.0029L275.393 15.0029L266.082 31.0771L275.714 47.7121ZM298.954 47.7121L297.578 42.9926L286.89 42.9926L285.514 47.7121L276.615 47.7121L287.211 15.0029L297.211 15.0029L307.807 47.7121L298.954 47.7121ZM289 35.7966L295.468 35.7966L292.211 24.6754L289 35.7966ZM318.811 39.6282L329.866 39.6282V47.7121L310.6 47.7121L310.6 15.0029L318.811 15.0029L318.811 39.6282ZM364.14 31.3575C364.14 35.3137 362.994 38.8027 360.7 41.8244L363.59 45.0019L357.856 50.1886L354.691 46.7308C352.397 47.8523 349.936 48.413 347.306 48.413C342.596 48.413 338.606 46.7775 335.334 43.5066C332.092 40.2045 330.471 36.1548 330.471 31.3575C330.471 26.5601 332.092 22.526 335.334 19.2551C338.606 15.953 342.596 14.3019 347.306 14.3019C352.015 14.3019 355.991 15.953 359.232 19.2551C362.504 22.526 364.14 26.5601 364.14 31.3575ZM347.306 40.2357C347.642 40.2357 348.086 40.2045 348.636 40.1422L344.324 35.4228L350.104 30.2827L355.012 35.6097C355.654 34.3013 355.975 32.8839 355.975 31.3575C355.975 28.7719 355.15 26.6536 353.498 25.0025C351.847 23.3203 349.783 22.4792 347.306 22.4792C344.829 22.4792 342.765 23.3203 341.113 25.0025C339.462 26.6536 338.636 28.7719 338.636 31.3575C338.636 33.9431 339.462 36.0769 341.113 37.7591C342.765 39.4102 344.829 40.2357 347.306 40.2357ZM387.054 47.7121L385.678 42.9926L374.99 42.9926L373.614 47.7121L364.715 47.7121L375.311 15.0029L385.311 15.0029L395.907 47.7121L387.054 47.7121ZM377.1 35.7966L383.568 35.7966L380.311 24.6754L377.1 35.7966ZM415.444 47.7121L409.848 37.1517H406.912L406.912 47.7121L398.701 47.7121L398.701 15.0029L411.545 15.0029C414.817 15.0029 417.554 16.0776 419.756 18.227C421.988 20.3454 423.104 23.04 423.104 26.3109C423.104 28.2735 422.615 30.0803 421.636 31.7313C420.658 33.3512 419.328 34.644 417.646 35.6097L424.251 47.7121L415.444 47.7121ZM406.912 22.7129V30.0491L411.453 30.0491C412.462 30.0803 413.288 29.7532 413.93 29.0678C414.572 28.3825 414.893 27.4947 414.893 26.4044C414.893 25.3141 414.572 24.4262 413.93 23.7409C413.288 23.0556 412.462 22.7129 411.453 22.7129L406.912 22.7129ZM454.679 43.5066C451.438 46.7775 447.462 48.413 442.753 48.413C438.044 48.413 434.053 46.7775 430.781 43.5066C427.539 40.2045 425.918 36.1548 425.918 31.3575C425.918 26.5601 427.539 22.526 430.781 19.2551C434.053 15.953 438.044 14.3019 442.753 14.3019C447.462 14.3019 451.438 15.953 454.679 19.2551C457.951 22.526 459.588 26.5601 459.588 31.3575C459.588 36.1548 457.951 40.2045 454.679 43.5066ZM436.56 37.7591C438.212 39.4102 440.276 40.2357 442.753 40.2357C445.23 40.2357 447.294 39.4102 448.946 37.7591C450.597 36.0769 451.423 33.9431 451.423 31.3575C451.423 28.7719 450.597 26.6536 448.946 25.0025C447.294 23.3203 445.23 22.4792 442.753 22.4792C440.276 22.4792 438.212 23.3203 436.56 25.0025C434.909 26.6536 434.083 28.7719 434.083 31.3575C434.083 33.9431 434.909 36.0769 436.56 37.7591ZM119.651 93.5673C117.297 95.6545 114.254 96.6981 110.523 96.6981C106.792 96.6981 103.734 95.6545 101.349 93.5673C98.9942 91.4802 97.8168 88.7077 97.8168 85.2498L97.8168 63.2879L106.028 63.2879L106.028 84.4555C106.028 87.1968 107.526 88.5675 110.523 88.5675C113.52 88.5675 115.018 87.1968 115.018 84.4555L115.018 63.2879L123.229 63.2879L123.229 85.2498C123.229 88.7077 122.037 91.4802 119.651 93.5673ZM146.136 63.2879L154.301 63.2879L154.301 95.9971L147.971 95.9971L136.641 79.5491V95.9971L128.43 95.9971L128.43 63.2879L134.806 63.2879L146.136 79.736V63.2879ZM159.843 63.2879L168.054 63.2879L168.054 95.9971L159.843 95.9971L159.843 63.2879ZM181.405 95.9971L171.038 63.2879L180.029 63.2879L186.267 85.8106L192.552 63.2879L201.542 63.2879L191.175 95.9971H181.405ZM212.737 88.1469L225.168 88.1469L225.168 95.9971L204.526 95.9971V63.2879L224.939 63.2879V71.0914L212.737 71.0914V75.624L223.792 75.624L223.792 83.334H212.737V88.1469ZM246.275 95.9971L240.679 85.4367L237.743 85.4367L237.743 95.9971H229.533L229.533 63.2879L242.376 63.2879C245.648 63.2879 248.385 64.3626 250.587 66.5121C252.82 68.6304 253.936 71.325 253.936 74.596C253.936 76.5585 253.446 78.3653 252.468 80.0164C251.489 81.6362 250.159 82.929 248.477 83.8947L255.083 95.9971L246.275 95.9971ZM237.743 70.9979V78.3342L242.285 78.3342C243.294 78.3653 244.119 78.0382 244.762 77.3529C245.404 76.6675 245.725 75.7797 245.725 74.6894C245.725 73.5991 245.404 72.7113 244.762 72.026C244.119 71.3406 243.294 70.9979 242.285 70.9979H237.743ZM269.41 96.6981C266.016 96.6981 263.202 95.966 260.97 94.5019C258.738 93.0377 257.178 91.0596 256.291 88.5675L263.309 84.4087C264.502 87.3058 266.612 88.7544 269.64 88.7544C272.147 88.7544 273.401 88.0223 273.401 86.5582C273.401 85.5925 272.682 84.8137 271.245 84.2218C270.634 83.9726 269.288 83.5521 267.208 82.9602C264.273 82.0879 261.949 80.873 260.236 79.3154C258.524 77.7267 257.667 75.5305 257.667 72.7269C257.667 69.7052 258.722 67.2597 260.832 65.3906C262.973 63.5215 265.634 62.587 268.814 62.587C271.505 62.587 273.89 63.2256 275.97 64.5028C278.049 65.78 279.639 67.6336 280.74 70.0634L273.86 74.1754C272.851 71.7456 271.184 70.5307 268.86 70.5307C267.881 70.5307 267.132 70.7332 266.612 71.1381C266.123 71.5431 265.878 72.0571 265.878 72.6801C265.878 73.3966 266.245 74.0041 266.979 74.5025C267.744 75.0009 269.212 75.5772 271.383 76.2314C272.942 76.6987 274.196 77.1348 275.144 77.5398C276.092 77.9448 277.132 78.5366 278.263 79.3154C279.395 80.0631 280.236 81.0444 280.786 82.2593C281.337 83.443 281.612 84.8449 281.612 86.4647C281.612 89.6734 280.496 92.1811 278.263 93.9879C276.031 95.7947 273.08 96.6981 269.41 96.6981ZM285.056 63.2879L293.267 63.2879V95.9971H285.056V63.2879ZM320.792 63.2879V71.3718L312.857 71.3718V95.9971H304.646V71.3718H296.71V63.2879L320.792 63.2879ZM332.44 88.1469L344.871 88.1469V95.9971L324.229 95.9971V63.2879L344.641 63.2879V71.0914L332.44 71.0914V75.624L343.495 75.624V83.334H332.44V88.1469ZM371.253 63.2879V71.3718H363.318V95.9971L355.107 95.9971V71.3718L347.171 71.3718V63.2879L371.253 63.2879ZM374.691 63.2879L382.902 63.2879V95.9971H374.691V63.2879Z" fill="url(#paint0_linear_1342_32)"/>
<mask id="mask0_1342_32" style="mask-type:luminance" maskUnits="userSpaceOnUse" x="0" y="0" width="85" height="111">
<path d="M84.8857 0L0.648438 0L0.648438 111L84.8857 111L84.8857 0Z" fill="white"/>
</mask>
<g mask="url(#mask0_1342_32)">
<path fill-rule="evenodd" clip-rule="evenodd" d="M41.0016 0.95552C37.9897 2.60214 36.337 3.41263 32.722 5.01598C25.5873 8.18042 15.5575 12.1017 8.41764 14.518C6.7223 15.0918 5.972 15.3287 3.07239 16.2058C1.75382 16.6046 0.666883 16.9383 0.657 16.9473C0.633246 16.9689 1.28911 69.0302 1.32326 69.8328C1.57198 75.6795 3.05028 80.8376 5.83687 85.5822C8.86666 90.7411 13.5253 95.3992 19.7809 99.5255C23.7844 102.166 28.0907 104.443 34.8748 107.506C36.7221 108.341 42.7197 111 42.7539 111C42.8024 111 49.4028 108.065 51.4245 107.145C55.2358 105.41 58.521 103.777 61.1362 102.318C66.0154 99.595 69.9765 96.76 73.1364 93.7306C73.719 93.1717 74.877 91.9803 75.3327 91.4695C78.257 88.1964 80.3948 84.7795 81.8784 81.0079C83.2732 77.4622 84.0294 73.7546 84.1936 69.659C84.2025 69.4406 84.3586 57.69 84.5406 43.5464C84.7227 29.4027 84.8764 17.6286 84.8822 17.3818C84.89 17.0264 84.8857 16.9328 84.8605 16.9325C84.8127 16.9319 80.1809 15.5259 79.1902 15.2113C75.5963 14.0699 69.6198 11.8948 64.0842 9.71361C59.7124 7.99105 56.2035 6.53036 52.6263 4.94369C49.1474 3.40059 47.5267 2.60574 44.6358 1.02517C43.7209 0.524935 42.922 0.0896323 42.8606 0.0578353L42.7492 0L41.0016 0.95552ZM41.7721 4.25802C39.2017 5.66463 36.7433 6.83819 32.5263 8.67183C25.5406 11.7094 16.4154 15.2532 9.70197 17.536C7.96656 18.1261 7.12854 18.3956 5.3108 18.9482L3.90415 19.3758L3.91144 19.9436C3.91545 20.256 4.05529 31.4244 4.22218 44.7626C4.38906 58.1008 4.53775 69.3094 4.55258 69.6713C4.77137 75.0024 6.11889 79.6759 8.69314 84.031C10.3629 86.8557 12.6139 89.558 15.3903 92.0711C17.1084 93.6263 19.2241 95.2518 21.4147 96.7C24.9052 99.0073 28.7571 101.089 34.1531 103.584C36.5895 104.71 42.724 107.437 42.7838 107.419C42.8331 107.405 47.5441 105.312 48.9292 104.689C54.6589 102.111 58.6553 100.076 62.0535 98.0055C69.8088 93.2791 74.9512 88.0692 77.9538 81.8963C79.7702 78.1622 80.7313 74.2882 80.9518 69.8139C80.9693 69.4564 81.5314 25.8164 81.5923 20.1042L81.5997 19.3743L80.1564 18.9351C78.3785 18.394 77.8944 18.2399 76.4379 17.7511C69.7711 15.5132 60.0633 11.7558 52.9718 8.66855C48.6955 6.80687 46.3272 5.67542 43.7181 4.24755C43.2946 4.01555 42.9029 3.8027 42.8486 3.77453L42.7492 3.72327L41.7721 4.25802ZM42.3606 7.03799C41.3564 7.57806 39.646 8.42403 38.0551 9.16777C31.5221 12.2216 21.1142 16.4138 12.6009 19.4204C11.2796 19.8871 8.62357 20.7803 7.65927 21.0823C7.19507 21.2276 6.7714 21.3606 6.71779 21.3778L6.62028 21.4089L6.62711 21.9655C6.89671 43.8798 7.22423 69.2288 7.24321 69.6468C7.48066 74.8756 8.93517 79.4934 11.6613 83.6731C14.155 87.4964 17.7561 90.9777 22.533 94.1825C26.4652 96.8204 30.9505 99.1862 38.0183 102.35C39.2798 102.914 42.7411 104.447 42.7539 104.447C42.7655 104.447 46.3524 102.858 47.449 102.367C52.617 100.054 56.1131 98.3152 59.2756 96.4851C66.0437 92.5693 70.7956 88.3801 73.8953 83.5972C76.5621 79.4823 78.0016 74.9309 78.2597 69.7957C78.2776 69.4429 78.8121 28.1331 78.8765 22.1395L78.8843 21.4094L78.7865 21.3778C78.7329 21.3604 78.276 21.2159 77.7714 21.0566C73.0634 19.5708 65.6455 16.8306 58.6534 13.9943C51.9656 11.2816 46.5069 8.83347 43.1681 7.04969L42.7519 6.82753L42.3606 7.03799ZM0.648438 17.3963C0.648438 17.6489 0.652083 17.7521 0.65651 17.6259C0.660963 17.4996 0.660963 17.2929 0.65651 17.1666C0.652083 17.0404 0.648438 17.1437 0.648438 17.3963ZM30.4591 18.0281C29.9202 18.1178 29.3675 18.4123 29.0321 18.7883C28.9021 18.934 28.7642 19.1772 28.7317 19.3179C28.7168 19.3821 28.7202 19.388 28.7614 19.3706C29.1781 19.1955 29.5818 19.1014 29.8619 19.114L30.0248 19.1214L29.8689 19.2404C29.7376 19.3407 29.1997 19.6271 28.8941 19.7596L28.8092 19.7964L28.9186 19.8669C29.0866 19.9753 29.3719 20.0789 29.5576 20.0991C29.8932 20.1354 30.1825 20.0667 30.501 19.8748C30.6919 19.7599 31.1034 19.3537 31.3192 19.0674C31.418 18.9361 31.578 18.7247 31.6748 18.5976L31.8508 18.3664L31.7605 18.2941C31.4531 18.0486 30.9518 17.946 30.4591 18.0281ZM54.4823 18.0078C54.1853 18.0519 53.9446 18.1445 53.7517 18.2887L53.6453 18.3684L53.7051 18.4347C53.7381 18.4711 53.8852 18.6628 54.032 18.8608C54.4559 19.4335 54.8126 19.7838 55.1437 19.9536C55.5851 20.1794 56.0808 20.1576 56.5498 19.8916L56.7132 19.7987L56.4706 19.6942C56.1441 19.5534 55.832 19.3826 55.6399 19.2396L55.4811 19.1214L55.643 19.114C55.9166 19.1016 56.3774 19.2086 56.7388 19.3685C56.8079 19.3988 56.7924 19.3107 56.693 19.1095C56.4888 18.6956 55.9954 18.3135 55.4116 18.1175C55.1371 18.0254 54.7066 17.9745 54.4823 18.0078ZM26.9538 18.5405C26.7155 18.5973 26.3441 18.8394 26.1224 19.0826C25.5029 19.7616 25.191 20.7836 25.4233 21.3742C25.4501 21.4425 25.4505 21.4421 25.554 21.2579C25.7175 20.9669 25.8778 20.7508 26.0897 20.5363C26.233 20.3911 26.288 20.3489 26.2945 20.3792C26.3114 20.4592 26.1222 20.9719 25.9428 21.3323L25.7615 21.6963L25.8781 21.6788C26.3238 21.6121 26.7609 21.3082 26.9816 20.9115C27.1956 20.5267 27.2742 20.0898 27.2957 19.1648L27.311 18.5133L27.1788 18.5157C27.106 18.5171 27.0047 18.5283 26.9538 18.5405ZM58.2194 19.1276C58.2295 20.0449 58.2858 20.4027 58.4861 20.8217C58.6685 21.2029 58.9465 21.454 59.3486 21.6013C59.5284 21.6672 59.7539 21.7099 59.738 21.6752C59.7325 21.6631 59.6456 21.4857 59.545 21.2809C59.3843 20.9536 59.2675 20.648 59.2131 20.414L59.1961 20.3413L59.2694 20.3944C59.4647 20.5354 59.7815 20.9367 59.9569 21.2647C60.0105 21.3649 60.0606 21.4362 60.0687 21.423C60.1103 21.3545 60.1576 21.0864 60.1576 20.9186C60.1576 19.9573 59.4267 18.8356 58.6235 18.5646C58.5396 18.5364 58.4131 18.5133 58.342 18.5133H58.2128L58.2194 19.1276ZM42.0672 20.2159C41.9996 20.221 41.7687 20.2372 41.5532 20.2521C35.6138 20.6623 30.104 23.9095 26.749 28.9768C25.6112 30.6953 24.7747 32.5058 24.209 34.4738C23.8329 35.7825 23.6281 36.9151 23.482 38.495C23.4324 39.0313 23.4405 41.1447 23.4944 41.7218C23.7446 44.4028 24.3614 46.6236 25.4951 48.9237C27.299 52.5844 30.1471 55.56 33.7372 57.5351C37.8021 59.7713 42.6821 60.446 47.2794 59.4071C53.3534 58.0348 58.4667 53.7327 60.9511 47.9042C62.2938 44.7543 62.8012 41.2521 62.4188 37.7752C62.0462 34.3882 60.7628 31.0641 58.7605 28.3008C57.8234 27.0072 56.6127 25.7127 55.3751 24.6813C54.1791 23.6842 52.6741 22.7203 51.3084 22.0766C49.0841 21.0281 46.9945 20.471 44.4522 20.249C44.156 20.2232 42.3144 20.1976 42.0672 20.2159ZM42.205 21.2439C38.9084 21.3972 35.7846 22.3931 33.0448 24.1643C29.7266 26.3095 27.1496 29.4802 25.7251 33.1706C24.502 36.3392 24.146 39.802 24.6993 43.149C25.2217 46.3095 26.5175 49.2567 28.4833 51.756C29.4667 53.0063 30.6575 54.1763 31.9148 55.1271C34.4716 57.0611 37.4568 58.2884 40.6002 58.6993C41.9433 58.8746 43.5062 58.8968 44.8559 58.7597C51.7448 58.0601 57.7109 53.4676 60.2485 46.9111C61.3913 43.9588 61.7752 40.7536 61.3676 37.5676C60.7772 32.9491 58.4453 28.6469 54.898 25.6308C51.8628 23.05 48.1944 21.5519 44.2197 21.27C43.7018 21.2334 42.7092 21.2205 42.205 21.2439ZM23.4429 21.4678C22.9988 21.628 22.572 22.062 22.2924 22.6378C22.148 22.9354 22.0623 23.1857 21.9897 23.5228C21.9196 23.8472 21.9131 24.4785 21.9771 24.7188C22.0222 24.8879 22.1566 25.1904 22.1867 25.1904C22.1963 25.1904 22.2406 25.076 22.285 24.9359C22.4183 24.516 22.7186 23.932 22.8753 23.7881C22.9234 23.744 22.9244 23.7446 22.9244 23.8158C22.9244 24.078 22.8172 24.6478 22.6829 25.0994C22.6314 25.2723 22.5934 25.4138 22.5984 25.4138C22.6375 25.4138 22.9599 25.2448 23.0962 25.1529C23.4481 24.9155 23.7226 24.5084 23.8352 24.0573C23.8826 23.8673 23.89 23.7738 23.8896 23.3659C23.889 22.86 23.8784 22.7703 23.7295 22.0091C23.6769 21.7406 23.6338 21.4976 23.6338 21.4692C23.6338 21.4072 23.6118 21.407 23.4429 21.4678ZM27.5791 21.4531C27.2221 21.5409 26.8552 21.8407 26.6501 22.2118C26.5002 22.4834 26.4971 22.4961 26.5837 22.4768C27.0549 22.3715 27.2897 22.3331 27.5419 22.3195C27.764 22.3075 27.8416 22.3109 27.8416 22.3326C27.8416 22.3704 27.5379 22.5694 27.3444 22.6583C27.2034 22.723 26.8722 22.8326 26.704 22.8702L26.6306 22.8866L26.7163 22.9606C27.3499 23.5087 28.809 23.2327 29.4636 22.4408C29.5744 22.3067 29.7363 22.0075 29.7539 21.9041C29.7608 21.8635 29.6942 21.8338 29.2688 21.6878C28.6418 21.4727 28.3769 21.4168 27.9968 21.4195C27.8374 21.4207 27.6494 21.4358 27.5791 21.4531ZM56.9733 21.4663C56.8568 21.4913 56.5346 21.5881 56.2579 21.6813C55.8732 21.8109 55.7544 21.8606 55.7544 21.8919C55.7544 21.9145 55.8002 22.0264 55.8561 22.1406C55.936 22.3037 56.0028 22.3941 56.1678 22.5615C56.4745 22.8726 56.8262 23.0637 57.3118 23.1833C57.5979 23.2539 58.0893 23.2594 58.323 23.1948C58.5082 23.1435 58.7357 23.0267 58.8133 22.9429L58.8673 22.8845L58.797 22.8692C58.6355 22.8339 58.3153 22.7276 58.1646 22.6589C57.9729 22.5716 57.6623 22.3722 57.6623 22.3364C57.6623 22.2694 58.3094 22.3299 58.7462 22.4378C58.8642 22.467 58.967 22.485 58.974 22.4779C58.9915 22.4601 58.8739 22.2284 58.7625 22.0615C58.561 21.7604 58.2093 21.5122 57.8875 21.4446C57.6887 21.4029 57.2175 21.4141 56.9733 21.4663ZM61.8703 21.4787C61.8703 21.5145 61.8257 21.7695 61.7713 22.0453C61.6028 22.9012 61.5667 23.3842 61.6366 23.85C61.7391 24.5336 62.0858 25.0153 62.6913 25.3157C62.8 25.3697 62.8944 25.4138 62.901 25.4138C62.9079 25.4138 62.8656 25.2451 62.8074 25.0389C62.6649 24.5345 62.5364 23.7497 62.5966 23.7512C62.6397 23.7522 62.8614 24.1024 63.005 24.3969C63.0885 24.5679 63.189 24.8164 63.2282 24.949C63.2674 25.0818 63.3066 25.1904 63.3155 25.1904C63.3462 25.1904 63.4813 24.9022 63.5248 24.7436C63.5943 24.4898 63.5881 23.8453 63.5135 23.5055C63.3384 22.7118 62.9277 22.0027 62.4495 21.6687C62.3144 21.5745 62.066 21.4563 61.9495 21.4309C61.8757 21.4147 61.8703 21.4181 61.8703 21.4787ZM44.8924 22.818C44.8924 22.8231 45.0493 22.9196 45.241 23.0325C46.6327 23.8515 48.1179 24.9033 49.3562 25.9467C49.996 26.4858 50.4816 26.9377 51.1574 27.622C51.9862 28.4615 52.5374 29.088 53.1065 29.8374L53.2894 30.0785L53.4516 29.9627C54.1461 29.4661 55.4729 28.386 55.4729 28.3169C55.4729 28.2772 54.9807 27.76 54.6049 27.4046C52.4478 25.3652 49.9657 23.9766 47.1664 23.2431C46.6463 23.1068 45.8877 22.9529 45.394 22.8835C45.1921 22.8551 44.9968 22.8267 44.96 22.8203C44.9227 22.8139 44.8924 22.8129 44.8924 22.818ZM40.6479 22.8495C40.325 22.8924 39.5913 23.0253 39.224 23.1072C36.3901 23.7401 33.6966 25.1434 31.5478 27.1063C31.1666 27.4544 30.7952 27.8175 30.5666 28.0653L30.3989 28.247L30.4596 28.2963C31.022 28.7522 32.5761 29.8569 32.6551 29.8569C32.6702 29.8569 32.7353 29.7871 32.7999 29.7018C33.0174 29.4143 33.5059 28.8294 33.852 28.442C34.3139 27.9252 35.3147 26.9275 35.8411 26.4592C37.1782 25.2696 38.7142 24.1419 40.2567 23.2173C40.5261 23.056 40.7792 22.9036 40.8195 22.8785L40.8929 22.8331L40.8071 22.8365C40.7601 22.8383 40.6883 22.8442 40.6479 22.8495ZM42.3898 23.2882C41.6646 24.0735 41.344 24.4443 40.8417 25.0787C39.293 27.0333 37.9757 29.2626 37.0386 31.5148C36.946 31.7371 36.8671 31.9364 36.8633 31.9578C36.858 31.9869 36.9388 32.0269 37.1866 32.1181C38.8571 32.7329 40.5288 33.1004 42.3179 33.2462L42.5194 33.2628V28.2088C42.5194 25.4292 42.5167 23.1563 42.5136 23.1579C42.5101 23.1593 42.4546 23.218 42.3898 23.2882ZM43.3032 28.2287L43.3024 33.2898L43.9445 33.275C45.5244 33.2381 46.998 32.9859 48.4964 32.4958C49.0907 32.3013 49.0464 32.3824 48.8388 31.8675C48.1528 30.1655 47.2938 28.5282 46.2604 26.9527C45.4052 25.6489 44.5003 24.4817 43.4511 23.3288L43.3039 23.1674L43.3032 28.2287ZM44.8385 23.7384C44.8827 23.793 45.1141 24.0833 45.3524 24.3837C47.1016 26.5877 48.5694 29.1111 49.5538 31.6069C49.6454 31.839 49.7231 32.0326 49.7262 32.0372C49.7487 32.0685 50.9851 31.477 51.5344 31.172C51.9866 30.9211 52.6481 30.5179 52.6411 30.4976C52.6256 30.4528 51.975 29.6453 51.6531 29.2715C50.9971 28.5088 49.8729 27.3981 49.027 26.6764C47.8097 25.6378 46.2918 24.5461 45.064 23.8253C44.9631 23.7661 44.8528 23.6999 44.8191 23.6784C44.7651 23.6436 44.767 23.6505 44.8385 23.7384ZM40.5117 23.9639C39.3568 24.663 37.9411 25.6777 36.9297 26.5311C36.0603 27.2648 34.8036 28.4975 34.1718 29.2364C33.7936 29.6786 33.3458 30.2384 33.3458 30.2688C33.3458 30.3636 36.0757 31.7417 36.1352 31.677C36.1455 31.6657 36.2422 31.4443 36.3499 31.185C37.0031 29.6131 37.8031 28.1146 38.7884 26.6176C39.4086 25.6755 40.1596 24.6655 40.7869 23.9307C40.9065 23.7908 41.0004 23.6763 40.9958 23.6763C40.9907 23.6763 40.7729 23.8057 40.5117 23.9639ZM20.3677 24.6505C19.8376 24.9251 19.4011 25.662 19.2393 26.5553C19.1786 26.8906 19.1681 27.4833 19.2168 27.8215C19.2888 28.3214 19.4654 28.7507 19.6896 28.9709L19.7858 29.0654L19.8001 28.8344C19.8274 28.3911 19.9617 27.8422 20.1365 27.4592C20.2136 27.2904 20.2151 27.2889 20.2355 27.3611C20.305 27.606 20.3256 28.2661 20.2805 28.8013C20.2661 28.973 20.2583 29.1259 20.2634 29.1412C20.2684 29.1564 20.3596 29.0975 20.4661 29.0103C21.1662 28.4364 21.4122 27.6536 21.2098 26.644C21.1413 26.3027 21.0046 25.9006 20.7696 25.3492C20.6597 25.0912 20.5463 24.8171 20.5175 24.74L20.4653 24.6L20.3677 24.6505ZM65.0337 24.6371C65.0251 24.6616 64.906 24.9497 64.7685 25.2773C64.4056 26.1432 64.2969 26.5063 64.2418 27.0353C64.1591 27.8328 64.4359 28.5181 65.0403 29.0114C65.1416 29.0942 65.2328 29.1619 65.2429 29.1619C65.253 29.1619 65.2514 29.0809 65.2398 28.9819C65.2037 28.6825 65.2052 27.7604 65.2425 27.5175C65.2608 27.398 65.2841 27.3002 65.2941 27.3002C65.3237 27.3002 65.5084 27.7914 65.5752 28.0472C65.6455 28.3166 65.7107 28.7057 65.7107 28.8558C65.7107 28.9716 65.7297 29.0378 65.7623 29.0378C65.8019 29.0378 66.0096 28.7318 66.0919 28.553C66.2697 28.1665 66.3349 27.7488 66.3147 27.1265C66.2945 26.5068 66.1998 26.09 65.9661 25.596C65.7763 25.1937 65.4591 24.8264 65.149 24.6495C65.0558 24.5963 65.0484 24.5955 65.0337 24.6371ZM24.6736 24.6368C24.1778 24.7035 23.7373 25.0406 23.4481 25.5745L23.3561 25.7443L23.4522 25.7277C23.505 25.7187 23.6363 25.6939 23.7439 25.6725C23.9936 25.6229 24.8326 25.5938 24.8326 25.6348C24.8326 25.671 24.6486 25.7903 24.4289 25.8964C24.2391 25.9882 23.8477 26.1163 23.6218 26.1605L23.4753 26.1892L23.5823 26.2856C23.7112 26.4018 23.9321 26.5144 24.1476 26.5738C24.2723 26.6082 24.3963 26.6172 24.7225 26.6155C25.0885 26.6137 25.1667 26.6058 25.3749 26.5493C26.062 26.3627 26.6173 25.9555 26.8624 25.4587C26.9166 25.3489 26.9606 25.2465 26.9604 25.231C26.9599 25.1987 26.0745 24.8464 25.7622 24.7541C25.3819 24.6417 24.9681 24.5972 24.6736 24.6368ZM60.1456 24.6579C59.8292 24.7182 59.6126 24.7872 59.087 24.9947C58.8145 25.1023 58.5804 25.1904 58.5672 25.1904C58.5307 25.1904 58.5377 25.2259 58.6045 25.3789C58.8475 25.9368 59.4725 26.3986 60.2189 26.5718C60.4635 26.6285 61.1246 26.6358 61.3319 26.5841C61.5295 26.5348 61.8459 26.3737 61.9398 26.2744L62.0221 26.1879L61.8789 26.1598C61.6351 26.1122 61.2554 25.9836 61.0528 25.8803C60.8074 25.7551 60.6685 25.6621 60.6856 25.6341C60.6929 25.6222 60.8494 25.6126 61.0338 25.6128C61.349 25.6133 61.6052 25.6407 61.9627 25.7125C62.0473 25.7293 62.1226 25.7368 62.1304 25.7289C62.1382 25.7211 62.0908 25.6219 62.0256 25.5086C61.7973 25.112 61.4258 24.801 61.0384 24.6823C60.847 24.6237 60.3901 24.6112 60.1456 24.6579ZM22.5452 28.1104C21.8324 28.1921 21.378 28.4856 21.0861 29.0528C20.9705 29.2777 20.8536 29.5761 20.8735 29.5962C20.8795 29.6023 21.0058 29.5579 21.154 29.4975C21.4783 29.3653 21.7877 29.2721 22.065 29.2231C22.391 29.1654 22.3954 29.1681 22.2315 29.3249C21.9675 29.5773 21.4801 29.8812 21.1814 29.9796C21.1309 29.9962 21.0897 30.0198 21.0897 30.0321C21.0897 30.0754 21.348 30.2036 21.5103 30.2411C22.3734 30.4402 23.5698 29.9186 24.1209 29.1028C24.2562 28.9026 24.4167 28.5054 24.4167 28.3712C24.4167 28.3373 24.3247 28.3139 23.8846 28.2358C23.1793 28.1104 22.8303 28.0777 22.5452 28.1104ZM62.347 28.1216C62.2395 28.1328 61.9115 28.1844 61.618 28.2361L61.0842 28.3304L61.0998 28.4173C61.1293 28.5817 61.2302 28.8424 61.3338 29.0206C61.5283 29.3554 61.9817 29.7626 62.3967 29.975C63.0384 30.3033 63.8171 30.3741 64.2635 30.1445C64.4425 30.0525 64.4584 30.0197 64.3415 29.9841C64.0469 29.8946 63.4184 29.4949 63.2034 29.2605L63.13 29.1804L63.2868 29.1977C63.5939 29.2315 64.1257 29.3938 64.5954 29.5967C64.6369 29.6148 64.64 29.6091 64.6241 29.5445C64.5865 29.3913 64.4557 29.0924 64.352 28.9232C64.2266 28.7187 63.9661 28.4589 63.7759 28.3485C63.4169 28.1404 62.9219 28.0617 62.347 28.1216ZM29.6461 29.1309C27.5459 31.7841 26.2758 34.9145 25.9473 38.2468C25.9131 38.5946 25.8608 39.3722 25.8603 39.5437L25.8601 39.612L27.4362 39.612H29.0123L29.025 39.4816C29.032 39.41 29.0548 39.1447 29.0757 38.8922C29.3017 36.1562 30.306 33.3574 31.9423 30.9037C32.0819 30.6944 32.1955 30.5157 32.1949 30.5065C32.1942 30.4974 32.0155 30.3726 31.7976 30.2293C31.3022 29.9032 30.7256 29.4884 30.2582 29.1217C30.0601 28.9663 29.8933 28.8392 29.8875 28.8392C29.8816 28.8392 29.773 28.9705 29.6461 29.1309ZM55.9112 28.983C55.3868 29.4492 54.5778 30.1032 54.0475 30.4891C53.7614 30.6973 53.7486 30.7102 53.7812 30.7601C54.5122 31.8887 54.7699 32.3292 55.1542 33.1071C56.0874 34.9966 56.6938 37.1254 56.8549 39.0783C56.8696 39.2558 56.8871 39.4484 56.8941 39.5065L56.9069 39.612H58.4344H59.962L59.9616 39.4445C59.9616 39.3522 59.9507 39.1149 59.9375 38.917C59.729 35.8159 58.7974 32.9997 57.1367 30.4527C56.792 29.9241 56.0638 28.9402 56.0028 28.921C55.9939 28.9181 55.9527 28.9461 55.9112 28.983ZM17.1198 29.3421C16.8204 29.8016 16.7234 30.174 16.7234 30.8622C16.7234 31.2564 16.7327 31.3805 16.7799 31.6181C16.861 32.0258 16.962 32.3305 17.1383 32.6991C17.4103 33.2679 17.7413 33.6561 18.1204 33.8508C18.3421 33.9646 18.3578 33.9589 18.2986 33.785C18.2394 33.6112 18.1423 33.2242 18.1069 33.0217C18.0405 32.6411 18.0238 31.9684 18.0818 32.0048C18.1216 32.0297 18.339 32.4324 18.4548 32.6957C18.5216 32.8477 18.64 33.1653 18.7179 33.4018L18.8595 33.8315L18.9464 33.6735C19.0704 33.4486 19.1764 33.179 19.2368 32.9349C19.3094 32.6413 19.3087 32.1137 19.2353 31.8383C19.161 31.5601 19.0487 31.3018 18.8919 31.0487C18.6192 30.6088 18.3489 30.3034 17.5998 29.5889L17.2046 29.2119L17.1198 29.3421ZM67.6272 29.8749C66.9645 30.5376 66.7949 30.7372 66.5802 31.1073C66.3178 31.5591 66.2126 31.9361 66.2169 32.4136C66.2204 32.8609 66.3221 33.2285 66.569 33.6887L66.6474 33.8343L66.7759 33.4404C66.9393 32.9397 67.1144 32.5271 67.2926 32.2205L67.4331 31.9792L67.4568 32.0785C67.4886 32.2106 67.4397 32.8435 67.3729 33.1706C67.345 33.3072 67.2856 33.5333 67.2405 33.6733C67.1505 33.9554 67.152 33.9589 67.3368 33.8785C67.7887 33.682 68.2246 33.1222 68.5231 32.3553C68.8259 31.5776 68.8802 30.5661 68.6563 29.8833C68.5949 29.6953 68.4435 29.4016 68.3445 29.2767L68.2918 29.2103L67.6272 29.8749ZM32.7767 31.0422C32.7304 31.107 32.6266 31.2607 32.5461 31.3835C31.1307 33.5419 30.2573 35.8144 29.9226 38.2096C29.8671 38.6064 29.7987 39.3153 29.7987 39.4925V39.612H32.1215L34.4444 39.612L34.4566 39.5314C34.4633 39.487 34.4753 39.3054 34.4834 39.1279C34.5698 37.2298 35.0453 34.8214 35.727 32.8293C35.8006 32.6143 35.8536 32.4341 35.8448 32.4288C35.836 32.4235 35.6362 32.3328 35.4007 32.2272C34.846 31.9782 33.9189 31.5073 33.3426 31.1818C33.0919 31.0401 32.881 30.9243 32.8738 30.9243C32.8666 30.9243 32.8229 30.9773 32.7767 31.0422ZM52.8429 31.3029C52.2362 31.6978 51.0386 32.337 50.3477 32.6347C50.1796 32.7072 50.0328 32.7752 50.0212 32.786C50.0099 32.7968 50.0724 33.0274 50.1605 33.2984C50.7735 35.1915 51.1566 37.1908 51.2813 39.1465L51.3108 39.612H53.716H56.1212V39.5369C56.1212 39.4954 56.1045 39.2972 56.0843 39.0963C55.8359 36.645 55.1007 34.4349 53.8045 32.2429C53.5153 31.7541 53.1205 31.1467 53.0933 31.1497C53.0836 31.1509 52.971 31.2197 52.8429 31.3029ZM21.5545 32.0307C20.8036 32.1183 20.4587 32.2378 20.096 32.5358C19.7513 32.819 19.4824 33.3374 19.3903 33.8968L19.3729 34.0024L19.5647 33.8868C19.9776 33.6379 20.5596 33.3792 20.8411 33.3196C20.9186 33.3032 20.9213 33.305 20.895 33.3551C20.8408 33.4577 20.3921 33.9091 20.198 34.0562C20.0896 34.1383 19.919 34.2514 19.8187 34.3075L19.6362 34.4095L19.7599 34.4664C20.3949 34.7588 21.464 34.4291 22.2197 33.7076C22.6791 33.2692 22.9594 32.7392 23.0123 32.2088L23.029 32.0412H22.8094C22.6886 32.0412 22.3762 32.0367 22.1149 32.031C21.8538 32.0254 21.6016 32.0252 21.5545 32.0307ZM62.8769 32.0351L62.4771 32.0425L62.4934 32.1971C62.545 32.6864 62.7682 33.1512 63.1556 33.576C63.4708 33.9213 64.0248 34.2853 64.4689 34.4385C64.9622 34.6089 65.4677 34.6158 65.7708 34.4563L65.8675 34.4055L65.7588 34.3495C65.4242 34.1776 64.859 33.6979 64.6618 33.4191L64.5787 33.3017L64.6618 33.3192C64.9677 33.3836 65.4805 33.6085 65.9032 33.864L66.1323 34.0024L66.1152 33.8855C66.0845 33.6775 65.9801 33.3493 65.8803 33.1459C65.557 32.4866 64.9615 32.1272 64.0554 32.0438C63.8916 32.0288 63.6494 32.019 63.517 32.022C63.385 32.025 63.097 32.0309 62.8769 32.0351ZM36.3473 33.4003C36.103 34.163 36.0054 34.5056 35.8538 35.1317C35.5259 36.4865 35.3116 37.9392 35.2397 39.2955L35.2228 39.612H38.8713L42.5194 39.612V36.834V34.0561L42.33 34.04C40.41 33.8781 38.7109 33.5064 36.9818 32.8701C36.7817 32.7965 36.6049 32.7363 36.589 32.7363C36.5725 32.7363 36.4675 33.025 36.3473 33.4003ZM49.1738 33.0988C49.0119 33.1703 48.1804 33.4259 47.7414 33.5391C46.4463 33.8728 45.267 34.0373 43.9445 34.0691L43.3024 34.0843V36.8481V39.612H46.9227L50.5429 39.612L50.5297 39.4196C50.3752 37.1764 50.0794 35.5753 49.4494 33.5741C49.3601 33.2908 49.2809 33.0594 49.2731 33.0599C49.2658 33.0605 49.2207 33.078 49.1738 33.0988ZM69.8697 35.1113C69.6613 35.237 69.3569 35.4201 69.1935 35.5184C68.1341 36.156 67.5418 36.869 67.3846 37.6967C67.3395 37.9326 67.3403 38.439 67.3857 38.6793C67.4342 38.9375 67.5227 39.2645 67.5441 39.2645C67.5534 39.2645 67.6206 39.1561 67.6928 39.0237C67.9696 38.5149 68.4377 37.8573 68.6962 37.6138L68.7754 37.5394L68.7584 37.6759C68.7021 38.1328 68.4633 38.8084 68.1846 39.2994C68.1155 39.421 68.0639 39.5255 68.0701 39.5314C68.0759 39.5377 68.1668 39.5251 68.272 39.5038C68.7595 39.4041 69.2681 39.0071 69.7156 38.3774C69.9051 38.1106 70.2005 37.5218 70.3037 37.2043C70.5374 36.485 70.5658 35.7691 70.3818 35.2105C70.2591 34.8371 70.3088 34.8467 69.8697 35.1113ZM15.1857 35.0403C15.1505 35.1198 15.0975 35.2846 15.0678 35.4064C14.9904 35.7243 14.99 36.2855 15.067 36.6762C15.2915 37.8165 16.0484 38.9587 16.848 39.3643C17.0305 39.4568 17.4045 39.5614 17.4365 39.529C17.4439 39.5219 17.4096 39.4481 17.3602 39.3657C17.2091 39.1134 17.0148 38.6722 16.9109 38.3461C16.8149 38.0441 16.7229 37.6264 16.7407 37.5724C16.7535 37.5333 17.0558 37.8712 17.2766 38.1716C17.4463 38.4024 17.88 39.1068 17.9229 39.2211C17.9517 39.2979 17.9746 39.2682 18.0283 39.0845C18.128 38.7435 18.1595 38.5202 18.1591 38.1599C18.1587 37.768 18.1021 37.4846 17.9613 37.1695C17.6552 36.4845 17.0917 35.9638 15.9156 35.2791C15.687 35.146 15.4538 35.0053 15.3975 34.9664C15.3413 34.9276 15.285 34.8958 15.2724 34.8958C15.2599 34.8958 15.2208 34.9608 15.1857 35.0403ZM21.9695 36.6666C21.9632 36.6725 21.7324 36.6905 21.4566 36.7064C20.2814 36.7746 19.7028 36.9241 19.1938 37.291C18.7036 37.6443 18.3732 38.2788 18.3099 38.9885L18.2934 39.1734L18.4378 39.0667C18.6942 38.8775 19.0511 38.6477 19.2876 38.5194C19.5365 38.3846 19.9154 38.2335 19.9154 38.2692C19.9154 38.3071 19.6476 38.6731 19.4825 38.8607C19.3139 39.0525 18.9584 39.3663 18.7633 39.4958C18.6977 39.5393 18.6441 39.5824 18.6438 39.5914C18.6436 39.6005 18.7011 39.6286 18.7718 39.6535C18.9792 39.7269 19.4701 39.7135 19.754 39.627C21.0179 39.241 22.0619 38.0237 22.0978 36.894C22.1048 36.6712 22.1048 36.6705 22.0428 36.6632C22.0086 36.6592 21.9756 36.6607 21.9695 36.6666ZM63.4114 36.8755C63.4114 37.5388 63.8233 38.3285 64.4592 38.8844C65.1462 39.485 65.9999 39.8067 66.5926 39.6882C66.7479 39.657 66.8617 39.6152 66.8597 39.5895C66.8589 39.5812 66.7805 39.5188 66.685 39.4506C66.4269 39.2659 66.135 38.9978 65.9525 38.7775C65.7794 38.5684 65.5888 38.3012 65.5888 38.268C65.5888 38.2355 65.9238 38.3663 66.1777 38.4979C66.4009 38.6135 66.8756 38.9185 67.0992 39.0898L67.2033 39.1695V39.0713C67.2033 38.9122 67.1353 38.5638 67.06 38.337C66.7631 37.4405 66.0286 36.9252 64.8303 36.7729C64.6622 36.7515 64.3206 36.7223 64.0717 36.7079C63.8229 36.6936 63.5725 36.6752 63.5155 36.6672L63.4114 36.6526V36.8755ZM25.8706 40.7105C25.898 41.2331 25.9337 41.6696 25.9839 42.0943C26.0327 42.5075 26.1685 43.3556 26.1986 43.4354C26.2131 43.4741 26.2506 43.4646 26.5573 43.3437C27.0475 43.151 28.1182 42.7883 28.6611 42.6311C29.1033 42.5035 29.1255 42.494 29.1197 42.4383C29.0694 41.9706 29.0361 41.495 29.026 41.1012C29.0192 40.835 29.0079 40.5699 29.001 40.5118L28.9883 40.4064H27.4215L25.8546 40.4064L25.8706 40.7105ZM29.7743 40.673C29.7744 41.0957 29.8546 42.2566 29.8859 42.2898C29.8909 42.2953 30.1348 42.2475 30.4279 42.1843C31.6312 41.9244 32.805 41.7479 33.9502 41.6546L34.4758 41.6116L34.4615 41.5239C34.4536 41.4757 34.4471 41.2047 34.447 40.9215L34.4467 40.4064L32.1105 40.4064H29.7742L29.7743 40.673ZM35.2052 40.7105C35.2052 40.8776 35.2123 41.1376 35.2208 41.2884L35.2364 41.5622L36.2177 41.5638C38.206 41.5673 39.8013 41.7332 41.901 42.1555C42.2092 42.2171 42.4744 42.2681 42.4903 42.2681C42.5124 42.2681 42.5194 42.0437 42.5194 41.337L42.5194 40.4064L38.8623 40.4064H35.205L35.2052 40.7105ZM43.3024 41.4097V42.4135L43.2504 42.4214C43.2217 42.4257 43.4608 42.4897 43.7822 42.564C44.1036 42.6378 45.1591 42.8977 46.128 43.1419C48.1598 43.6538 48.937 43.8387 49.6384 43.9769C50.3449 44.116 50.2824 44.1168 50.3038 43.9682C50.364 43.5566 50.449 42.8124 50.4816 42.417C50.515 42.0101 50.5662 40.8915 50.5674 40.5367L50.5681 40.4064L46.9351 40.4064H43.3024L43.3024 41.4097ZM51.3189 41.0826C51.2964 42.0528 51.2125 43.0723 51.086 43.9149C51.0553 44.1172 51.0495 44.212 51.0677 44.2179C51.1617 44.2499 51.9726 44.3091 52.4761 44.321C53.3169 44.3404 53.881 44.293 54.6395 44.1393C55.0521 44.0555 55.8767 43.8098 55.8767 43.7703C55.8767 43.766 55.898 43.6349 55.9244 43.4792C55.9822 43.1363 56.0607 42.5114 56.0968 42.1065C56.1294 41.7431 56.1674 40.628 56.1519 40.4996L56.1402 40.4064H53.7373H51.334L51.3189 41.0826ZM56.9283 40.7848C56.9279 41.4318 56.8572 42.402 56.7598 43.0933C56.7365 43.2608 56.7287 43.3848 56.7419 43.3848C56.8087 43.3848 57.4896 42.9764 57.9317 42.6714C58.6592 42.1693 59.7174 41.2383 60.2772 40.6082L60.4565 40.4064H58.6926H56.9286L56.9283 40.7848ZM14.4116 40.517C14.3194 40.7631 14.3021 40.8962 14.3019 41.3619C14.3017 41.7933 14.3074 41.8565 14.3681 42.0994C14.6587 43.2659 15.4706 44.3617 16.3863 44.8235C16.4907 44.8764 16.6364 44.9372 16.7099 44.9593C16.8597 45.0036 17.249 45.0411 17.249 45.0111C17.249 45.0004 17.1789 44.8954 17.0934 44.7776C16.7414 44.2937 16.4689 43.7411 16.3238 43.2169C16.2694 43.0202 16.27 43.0198 16.4413 43.1593C16.7737 43.4294 17.1676 43.8667 17.546 44.3854L17.76 44.6789L17.7846 44.5841C17.8404 44.3692 17.8662 44.0303 17.8534 43.6826C17.8371 43.2426 17.7703 42.9712 17.5921 42.6193C17.2063 41.8573 16.5348 41.3568 15.0743 40.7421C14.8267 40.6379 14.5817 40.5304 14.5297 40.5035L14.4349 40.4546L14.4116 40.517ZM70.9462 40.5174C70.8856 40.5486 70.6322 40.66 70.3833 40.7647C69.2428 41.2434 68.6054 41.6538 68.2048 42.1678C67.8154 42.6667 67.6435 43.1778 67.6435 43.8367C67.6435 44.0753 67.7021 44.5789 67.7374 44.6425C67.7479 44.6615 67.8333 44.5643 67.9653 44.3826C68.3663 43.8312 68.8038 43.354 69.1326 43.1083C69.237 43.0305 69.2393 43.0301 69.2215 43.0889C69.0029 43.8181 68.744 44.3494 68.3616 44.8539C68.303 44.9313 68.2553 45.0028 68.2553 45.0127C68.2553 45.0514 68.6741 44.9985 68.8581 44.9364C69.2277 44.812 69.671 44.5071 70.0169 44.1389C70.8383 43.2651 71.308 42.0769 71.2152 41.1071C71.1923 40.8662 71.1154 40.5178 71.0766 40.4798C71.0654 40.4692 71.0068 40.4858 70.9462 40.5174ZM21.6521 40.6805C21.6321 40.6936 21.368 40.7868 21.0652 40.8875C20.422 41.1012 20.1376 41.2126 19.8165 41.3753C19.1593 41.7087 18.7306 42.1207 18.4734 42.6667C18.3271 42.9771 18.2743 43.2126 18.2587 43.623C18.2454 43.9726 18.2656 44.353 18.2974 44.353C18.3067 44.353 18.4352 44.2116 18.5827 44.039C18.9089 43.6578 19.1885 43.3876 19.5074 43.1454C19.7242 42.9807 19.7931 42.9396 19.7931 42.9748C19.7931 42.9811 19.7601 43.0708 19.7198 43.1739C19.5224 43.6779 19.2393 44.1464 18.8851 44.5548C18.7227 44.7425 18.7263 44.7496 18.9858 44.7496C19.4502 44.7492 20.0512 44.4474 20.5536 43.9623C21.47 43.0775 21.938 41.8893 21.763 40.893C21.7254 40.6793 21.7074 40.6446 21.6521 40.6805ZM63.7918 40.6774C63.7849 40.6884 63.7612 40.8026 63.7391 40.9306C63.668 41.3426 63.7251 41.8786 63.8889 42.3424C63.9852 42.6153 64.2212 43.0656 64.4091 43.3354C64.6323 43.6558 65.1016 44.1294 65.3865 44.3218C65.7949 44.5979 66.1979 44.75 66.5181 44.7496C66.7825 44.7492 66.7825 44.7492 66.5682 44.4909C66.2421 44.097 65.9743 43.6522 65.8128 43.2359C65.6862 42.91 65.6847 42.9183 65.8566 43.0368C66.2122 43.2817 66.666 43.717 67.0472 44.1792C67.1373 44.2886 67.2145 44.3747 67.2184 44.3708C67.2223 44.3664 67.2359 44.2325 67.2487 44.0725C67.3597 42.6603 66.7231 41.7621 65.1726 41.1443C65.0181 41.0826 64.6959 40.9693 64.4568 40.8918C64.2181 40.8148 63.9735 40.7303 63.9134 40.7042C63.8532 40.6781 63.7984 40.6659 63.7918 40.6774ZM60.6102 42.4225C59.6557 43.5069 58.035 44.6576 56.3782 45.4278C54.4881 46.3068 52.4703 46.8432 50.8181 46.9064C49.5678 46.9542 48.6893 46.8507 46.3113 46.3767C43.8136 45.8789 42.422 45.6988 40.4523 45.6194C38.9851 45.5602 37.8805 45.6084 36.7095 45.7834C33.565 46.253 30.5871 47.6945 28.3244 49.843L28.0365 50.1159L28.2249 50.3932C29.159 51.7675 30.3814 53.124 31.5825 54.119C31.7317 54.2427 31.7642 54.2604 31.7823 54.2273C31.8239 54.1518 32.2047 53.6474 32.3877 53.4254C32.6512 53.1058 33.5025 52.2498 33.8473 51.9583C34.8655 51.0967 35.8216 50.471 37.0521 49.8607C38.6382 49.0735 40.0544 48.6389 41.6972 48.4355C42.5792 48.3265 42.7605 48.3202 45.6874 48.2992C47.2483 48.2882 48.5915 48.2724 48.6722 48.2645C48.753 48.257 49.0061 48.2384 49.2347 48.2238C51.1726 48.0993 53.0871 47.7288 54.7311 47.16C56.879 46.4166 58.943 45.2118 60.3688 43.8683L60.6165 43.6352L60.6673 43.3548C60.6953 43.2007 60.7407 42.9128 60.7686 42.7149C60.8373 42.2238 60.8443 42.1685 60.8369 42.1705C60.8335 42.1717 60.7314 42.2851 60.6102 42.4225ZM21.7483 44.7654C21.7157 44.8013 21.4909 44.9949 21.2487 45.196C20.3032 45.9809 19.8975 46.4324 19.6088 47.0213C19.4104 47.4258 19.3462 47.7 19.3441 48.1507C19.342 48.6255 19.4159 48.9573 19.6281 49.423L19.7272 49.6407L19.8905 49.2247C19.9804 48.9956 20.1226 48.669 20.2067 48.4983C20.3533 48.2005 20.6447 47.7253 20.7029 47.6885C20.7511 47.6585 20.7067 48.2996 20.6368 48.6437C20.5711 48.9668 20.4382 49.412 20.3401 49.6375C20.3081 49.7114 20.2873 49.7774 20.2941 49.7845C20.3157 49.8062 20.5088 49.7379 20.6738 49.6498C21.0971 49.4242 21.4865 48.9581 21.8128 48.2874C22.3042 47.2765 22.4207 46.1337 22.1203 45.2726C22.0551 45.0854 21.8554 44.7006 21.8234 44.7006C21.8148 44.7006 21.7809 44.7298 21.7483 44.7654ZM63.5919 44.8397C63.0671 45.6708 63.1075 47.0581 63.6921 48.2882C63.7635 48.4387 63.8912 48.6678 63.9755 48.7969C64.1653 49.0877 64.5597 49.4914 64.7814 49.6221C64.9382 49.7142 65.1855 49.8094 65.2084 49.7861C65.215 49.7794 65.175 49.6573 65.1195 49.5147C64.9296 49.0237 64.7814 48.2874 64.7814 47.8343V47.6443L64.8869 47.792C65.1525 48.1625 65.3768 48.6034 65.6253 49.2429C65.7021 49.4408 65.7693 49.6075 65.7743 49.6131C65.7945 49.6344 66.0045 49.145 66.0624 48.9423C66.2972 48.1183 66.1633 47.346 65.6579 46.6074C65.3535 46.1626 64.9805 45.7869 64.2429 45.1833C64.0481 45.0237 63.8423 44.8483 63.7864 44.7934L63.6839 44.6939L63.5919 44.8397ZM14.8026 47.4361C14.8026 47.5898 14.8529 47.9386 14.9021 48.1258C14.9753 48.4047 15.2144 48.8799 15.4229 49.1604C15.615 49.4187 15.9628 49.7746 16.2138 49.9698C16.977 50.5627 17.9028 50.8589 18.5577 50.7199C18.7294 50.6836 18.9135 50.6136 18.9113 50.5856C18.9106 50.5777 18.816 50.5105 18.7011 50.4367C18.4115 50.251 18.158 50.0373 17.8849 49.7489C17.5893 49.4369 17.3191 49.0782 17.3987 49.1039C17.4172 49.1102 17.5095 49.1398 17.6037 49.1698C17.9985 49.297 18.5044 49.5617 19.0307 49.9164C19.1697 50.01 19.2862 50.0867 19.2895 50.0867C19.3034 50.0867 19.2491 49.7367 19.2066 49.5534C18.9223 48.3233 18.1295 47.6573 16.723 47.4677C16.5564 47.4452 16.088 47.4183 15.6397 47.4057C15.2054 47.3934 14.8394 47.3765 14.8263 47.3686C14.8127 47.3599 14.8026 47.3891 14.8026 47.4361ZM69.7106 47.4081C69.3608 47.4179 68.9482 47.444 68.7933 47.4657C67.4898 47.6478 66.727 48.2155 66.3815 49.2599C66.3135 49.4645 66.2246 49.8919 66.2246 50.0124V50.0851L66.5472 49.871C67.0437 49.5416 67.6179 49.2516 68.0068 49.1347L68.1376 49.0952L68.0953 49.1627C67.8182 49.6079 67.2871 50.1305 66.7634 50.4734L66.5806 50.5931L66.6854 50.6393C67.1757 50.8566 67.8679 50.7685 68.6097 50.3952C69.0107 50.1933 69.3181 49.9717 69.6574 49.6403C70.303 49.0099 70.6353 48.3522 70.6927 47.591L70.7086 47.3812L70.5277 47.3855C70.428 47.3875 70.0603 47.3978 69.7106 47.4081ZM58.9958 47.8572C57.4609 48.9281 55.4566 49.7726 53.2956 50.2589C51.9466 50.5627 50.8104 50.729 48.1094 51.0177C45.2453 51.3239 44.2344 51.4811 42.8323 51.8382C39.9042 52.584 37.7816 53.8504 36.2761 55.7508C36.0812 55.9965 35.6454 56.6321 35.6454 56.67C35.6454 56.7143 36.5525 57.0919 37.2044 57.3187C38.322 57.7082 39.7043 58.0285 40.8393 58.1616L41.1289 58.1956L41.2396 57.9712C42.1697 56.0921 44.5225 54.3971 47.7549 53.2772C48.5864 52.9893 49.3438 52.7783 50.3845 52.5449C51.3733 52.3233 52.091 52.1214 53.1368 51.7706C54.7 51.2461 56.5276 50.4734 58.0132 49.7094C58.3269 49.5479 58.3572 49.5261 58.4317 49.4076C58.7046 48.9739 59.389 47.6226 59.3308 47.6324C59.3215 47.6336 59.1704 47.7351 58.9958 47.8572ZM23.2227 48.7681C23.2092 48.8072 23.0719 49.0671 22.9174 49.3452C22.1167 50.7878 21.8983 51.4404 21.9272 52.3039C21.9416 52.7353 21.9978 52.9766 22.1664 53.3298C22.3089 53.6276 22.5046 53.8974 22.7758 54.1696L22.9734 54.3675V54.0179C22.9734 53.3882 23.0366 52.8012 23.1601 52.2877C23.2032 52.1084 23.2318 52.0298 23.2461 52.0519C23.28 52.1044 23.409 52.5386 23.4514 52.7428C23.5247 53.0959 23.5595 53.4514 23.56 53.8536C23.5603 54.1309 23.5689 54.2569 23.5874 54.2569C23.6023 54.2569 23.6886 54.1814 23.7792 54.0894C24.2295 53.6316 24.4987 52.8301 24.532 51.8477C24.5775 50.5042 24.1555 49.3571 23.4057 48.7867C23.3408 48.7373 23.2786 48.6966 23.2674 48.6966C23.2564 48.6966 23.2362 48.729 23.2227 48.7681ZM62.0248 48.8519C61.1673 49.5554 60.7682 51.1445 61.066 52.6685C61.1902 53.3025 61.4848 53.9022 61.8024 54.1656C61.8625 54.2158 61.9188 54.2569 61.9278 54.2569C61.9363 54.2569 61.9437 54.0922 61.9437 53.8907C61.9437 53.3084 62.0202 52.7918 62.1816 52.2838L62.2686 52.0104L62.3004 52.1032C62.4188 52.4489 62.5062 53.1054 62.5267 53.8073L62.543 54.3627L62.7418 54.1625C63.3835 53.5154 63.6533 52.7941 63.5791 51.9223C63.5217 51.2401 63.2581 50.5386 62.6521 49.4539C62.5147 49.2082 62.3684 48.9372 62.3268 48.8519C62.2853 48.7665 62.2426 48.6966 62.2325 48.6966C62.2224 48.6966 62.1288 48.7665 62.0248 48.8519ZM25.8238 53.2701C25.8182 53.2875 25.8008 53.3515 25.7853 53.4131C25.7697 53.4743 25.6753 53.7872 25.5751 54.108C25.2613 55.1141 25.1491 55.6169 25.1003 56.2367C25.0207 57.2491 25.3015 58.0941 25.9173 58.6933C26.1301 58.9003 26.3474 59.0662 26.5756 59.1958C26.7396 59.289 26.7358 59.2985 26.6679 58.9635C26.5364 58.3153 26.4578 57.4905 26.485 57.0433C26.4943 56.8897 26.5089 56.7641 26.5174 56.7641C26.5401 56.7641 26.7483 57.1413 26.8625 57.389C26.9172 57.5079 27.0104 57.7536 27.0698 57.9353C27.1623 58.2181 27.2057 58.3947 27.3246 58.973L27.3425 59.0599L27.4576 58.9019C27.7734 58.4686 27.9151 57.9147 27.9149 57.1152C27.9144 55.4068 27.146 53.839 26.0516 53.3136C25.8812 53.2318 25.8391 53.2239 25.8238 53.2701ZM59.4798 53.3009C59.1041 53.4744 58.6837 53.854 58.4011 54.2754C58.2283 54.533 57.9698 55.0623 57.8716 55.359C57.6911 55.9057 57.613 56.3639 57.5959 56.975C57.5769 57.6718 57.6635 58.1822 57.8731 58.608C57.9581 58.781 58.1468 59.0611 58.165 59.0421C58.1701 59.037 58.2023 58.8873 58.2365 58.7091C58.3688 58.0198 58.625 57.3325 58.9239 56.8632L58.995 56.7514L59.0113 56.8881C59.0652 57.34 59.0031 58.1051 58.8459 58.9323C58.8121 59.1081 58.79 59.2566 58.7958 59.2629C58.8118 59.2787 59.1243 59.0852 59.3086 58.9449C59.5385 58.7704 59.8673 58.4081 60.0101 58.1731C60.3331 57.6402 60.4697 56.9663 60.4064 56.217C60.3552 55.6098 60.2213 55.0193 59.9138 54.0459C59.8191 53.7457 59.7279 53.4412 59.7116 53.3697C59.677 53.2196 59.6646 53.2156 59.4798 53.3009ZM18.9858 53.4273C18.8446 53.4463 18.4097 53.5241 18.0195 53.6008C17.6293 53.6774 17.2853 53.7449 17.255 53.7509C17.1854 53.7643 17.1846 53.8164 17.2505 54.059C17.5385 55.1176 18.5932 56.0712 19.8974 56.452C20.5766 56.6499 21.3247 56.6511 21.8009 56.4548C21.9774 56.3821 22.2276 56.2197 22.1999 56.196C22.188 56.1858 22.0792 56.1403 21.9581 56.0949C21.6413 55.9764 21.2585 55.7761 20.9653 55.5758C20.703 55.3969 20.2824 55.0422 20.2824 55.0003C20.2824 54.9695 20.3173 54.9711 20.6282 55.0129C21.1447 55.0825 21.7121 55.2515 22.467 55.5608C22.5053 55.5762 22.5089 55.5695 22.4945 55.5075C22.4626 55.37 22.2611 54.8937 22.1609 54.7187C21.7219 53.9531 21.1108 53.5368 20.2465 53.4147C19.9915 53.3788 19.3 53.3855 18.9858 53.4273ZM65.2433 53.4147C64.338 53.5498 63.6851 54.0325 63.2651 54.8775C63.1509 55.1074 62.9848 55.545 63.0038 55.5648C63.0093 55.5699 63.1005 55.5395 63.2065 55.4964C63.9417 55.1994 64.5414 55.0374 65.0872 54.9896L65.2584 54.9742L65.0993 55.1283C64.6804 55.5336 63.9805 55.9614 63.4603 56.1304C63.3862 56.1545 63.3175 56.1822 63.307 56.1913C63.2604 56.2343 63.6762 56.4631 63.9153 56.5255C64.6509 56.7186 65.6377 56.5515 66.4937 56.0894C66.8826 55.8792 67.1478 55.6801 67.4614 55.3625C67.9222 54.8956 68.1784 54.4485 68.2898 53.9164L68.3224 53.7615L68.2335 53.7465C68.185 53.7382 67.8422 53.6715 67.4723 53.598C67.1023 53.5245 66.6621 53.4471 66.4944 53.4262C66.1711 53.3859 65.4793 53.3795 65.2433 53.4147ZM29.4694 57.7595C29.4474 59.0176 29.4787 59.5229 29.6186 60.1628C29.8806 61.3609 30.5109 62.1363 31.5124 62.493C31.7111 62.5637 32.1716 62.6779 32.1716 62.6565C32.1716 62.6506 32.0732 62.4468 31.9528 62.2027C31.6962 61.6824 31.5482 61.338 31.4285 60.9813C31.325 60.6732 31.2116 60.2264 31.2224 60.1699C31.2346 60.1051 31.7885 60.6811 32.029 61.0085C32.2633 61.3273 32.5499 61.8021 32.6528 62.0419C32.6902 62.1288 32.7284 62.1999 32.738 62.1999C32.7614 62.1999 32.8508 61.953 32.8992 61.7543C32.9548 61.526 32.9543 60.8517 32.8982 60.5495C32.7325 59.6564 32.3434 58.7972 31.7793 58.0795C31.1869 57.3254 30.3818 56.8225 29.6855 56.7716L29.4868 56.757L29.4694 57.7595ZM55.5832 56.8024C54.5727 57.0224 53.57 57.993 52.9908 59.3115C52.5953 60.2122 52.4641 61.1006 52.624 61.797C52.65 61.9096 52.6943 62.0482 52.723 62.1051L52.775 62.2082L52.9381 61.8874C53.1407 61.4901 53.3123 61.2175 53.563 60.8967C53.7505 60.6566 54.176 60.2114 54.2633 60.164C54.3041 60.1419 54.3045 60.1494 54.2715 60.2951C54.1259 60.9366 53.8534 61.6477 53.478 62.3674C53.3981 62.5207 53.3325 62.651 53.3325 62.6565C53.3325 62.6751 53.7575 62.5736 53.9563 62.5076C54.8817 62.2007 55.537 61.4715 55.8262 60.4259C56.0071 59.7733 56.0556 59.1871 56.044 57.8006L56.0358 56.7641L55.8891 56.766C55.8079 56.7672 55.6705 56.7834 55.5832 56.8024ZM23.5727 58.3536C22.9306 58.4081 22.4433 58.5594 21.2609 59.0718C20.891 59.2321 20.5464 59.3771 20.4955 59.3941C20.383 59.4308 20.3828 59.43 20.5674 59.7923C20.8026 60.2536 21.1524 60.6372 21.6314 60.9588C23.0666 61.9226 25.2601 61.9479 26.164 61.0113C26.2967 60.8734 26.2966 60.873 26.0802 60.8478C25.6265 60.7948 24.9785 60.5973 24.5294 60.3757C24.2648 60.245 23.937 60.0471 23.9551 60.0289C23.9862 59.9977 24.4208 59.9649 24.7959 59.9649C25.2464 59.9653 25.6486 60.0028 26.1627 60.0917C26.3224 60.1193 26.4571 60.1379 26.4619 60.1332C26.4771 60.1178 26.2613 59.7496 26.113 59.5383C25.9305 59.278 25.6014 58.945 25.3754 58.7913C25.1399 58.6317 24.8395 58.4919 24.5978 58.4295C24.4323 58.3868 23.9013 58.32 23.8173 58.3315C23.8039 58.3335 23.6938 58.3433 23.5727 58.3536ZM61.4542 58.3441C60.4686 58.4152 59.7322 58.9153 59.1658 59.8981C59.0936 60.0234 59.0385 60.1292 59.0427 60.134C59.0474 60.1383 59.1817 60.1193 59.3412 60.0917C59.8552 60.0028 60.2578 59.9653 60.7081 59.9649C61.0827 59.9649 61.5178 59.9977 61.5489 60.0289C61.5671 60.0474 61.236 60.2485 60.9728 60.3785C60.5318 60.5965 59.877 60.7948 59.4239 60.8478C59.2089 60.873 59.2081 60.8742 59.3277 60.999C59.828 61.5201 60.7853 61.7828 61.8004 61.6773C62.6032 61.5939 63.2996 61.3478 63.9153 60.9299C64.3819 60.6135 64.8023 60.1324 64.9983 59.6904C65.1195 59.4166 65.123 59.4348 64.9347 59.3637C64.8438 59.3289 64.5139 59.1887 64.2022 59.0512C63.2961 58.6526 62.7597 58.4729 62.2372 58.3927C61.9829 58.3536 61.6269 58.3315 61.4542 58.3441ZM34.5984 59.3882C34.5365 59.3961 34.5208 59.4079 34.5302 59.4403C34.5612 59.5438 34.6004 59.7607 34.7045 60.4045C34.8866 61.5299 35.0165 62.0656 35.2454 62.6344C35.4993 63.2653 35.8486 63.7567 36.2796 64.0889C36.5057 64.2631 36.8862 64.4472 37.1728 64.521C37.4302 64.5874 38.0609 64.6522 38.1724 64.6237L38.2381 64.6067L38.0486 64.3654C37.6131 63.8104 37.2731 63.2921 37.0532 62.8477C36.9322 62.6032 36.8369 62.3729 36.851 62.3587C36.8664 62.3429 37.3322 62.6415 37.5002 62.7747C37.8984 63.0899 38.2792 63.4825 38.5627 63.8692C38.6303 63.9613 38.6939 64.0367 38.7042 64.0367C38.7365 64.0367 38.7767 63.7314 38.7767 63.4857C38.7767 62.288 37.8549 60.7454 36.648 59.9238C36.2789 59.6726 35.8377 59.479 35.4739 59.4091C35.2876 59.3732 34.8101 59.3617 34.5984 59.3882ZM50.0297 59.4059C49.4191 59.5347 48.7902 59.8985 48.225 60.4488C47.5201 61.1357 47.0181 61.9818 46.8074 62.8398C46.7515 63.0681 46.7418 63.159 46.7414 63.4782C46.741 63.7081 46.7526 63.891 46.7717 63.9565L46.8027 64.062L46.9459 63.8692C47.3706 63.2977 47.8927 62.8145 48.4642 62.4638C48.5651 62.4018 48.6509 62.3607 48.6551 62.3721C48.6652 62.4014 48.4875 62.7964 48.3516 63.0468C48.1358 63.4438 47.7611 63.9949 47.4211 64.4144L47.2658 64.6056L47.3535 64.6221C47.4017 64.6312 47.5884 64.6261 47.7685 64.6103C48.5007 64.5463 48.9964 64.3306 49.4688 63.8704C50.0146 63.3387 50.3725 62.5763 50.6264 61.4055C50.6605 61.2487 50.739 60.8075 50.8003 60.4251C50.862 60.0431 50.9288 59.6588 50.949 59.5715C50.9688 59.4842 50.9785 59.4063 50.9711 59.3984C50.94 59.3668 50.1858 59.3728 50.0297 59.4059ZM28.686 62.2276C27.9589 62.335 27.2571 62.6609 26.019 63.4659C25.7096 63.667 25.3932 63.8677 25.3161 63.9115C25.1547 64.0036 25.1527 63.9806 25.3474 64.2726C25.8579 65.0381 26.7874 65.5615 27.9034 65.7124C28.218 65.7547 28.8918 65.7606 29.1877 65.7235C29.8306 65.6429 30.4072 65.4442 30.8505 65.1503C31.0342 65.0286 31.3792 64.6881 31.4566 64.5518L31.5094 64.459H31.1211C30.6548 64.459 30.2398 64.408 29.8109 64.2982C29.458 64.2082 28.9511 64.0174 28.983 63.987C29.0119 63.9589 29.3074 63.8692 29.5558 63.8132C29.9539 63.7231 30.3182 63.6863 30.9546 63.6717C31.301 63.6642 31.5845 63.6492 31.5845 63.639C31.5845 63.5994 31.2646 63.2226 31.0676 63.0298C30.6137 62.5854 30.1478 62.3326 29.6059 62.2362C29.3848 62.1971 28.9224 62.1928 28.686 62.2276ZM55.8728 62.2386C55.3673 62.3314 54.8778 62.6016 54.4365 63.031C54.242 63.2198 53.9194 63.603 53.9194 63.6449C53.9194 63.6555 54.1259 63.6646 54.3782 63.6646C54.8938 63.6646 55.2618 63.6927 55.693 63.765C56.0055 63.8171 56.537 63.9581 56.537 63.9889C56.537 64.0134 56.2315 64.1402 55.9768 64.2212C55.4757 64.3804 54.95 64.459 54.3817 64.459H53.9897L54.0941 64.6095C54.4881 65.1799 55.3231 65.5982 56.3165 65.7235C56.6239 65.7622 57.2998 65.7555 57.6173 65.7108C58.476 65.5892 59.224 65.2534 59.7554 64.7509C59.948 64.5688 60.1953 64.2552 60.2814 64.0833L60.3284 63.9905L60.1879 63.9095C60.1106 63.8649 59.8218 63.6816 59.5462 63.5023C58.646 62.9172 58.2621 62.7024 57.7357 62.4898C57.0828 62.2264 56.4248 62.1375 55.8728 62.2386ZM42.434 63.4438C42.2213 63.475 41.9736 63.556 41.7624 63.6638C40.3401 64.3895 40.1406 66.3851 41.3894 67.392C42.0373 67.9142 42.9441 68.0205 43.6879 67.661C44.05 67.4864 44.3315 67.2474 44.5438 66.935C44.826 66.519 44.9413 66.1457 44.9413 65.648C44.9413 65.2328 44.8505 64.8852 44.6455 64.5167C44.5007 64.2568 44.1436 63.8929 43.8773 63.7338C43.4503 63.479 42.9212 63.3727 42.434 63.4438ZM35.2583 64.794C34.8395 64.871 34.3232 65.0993 33.8675 65.4086C33.4023 65.7246 33.0553 66.0249 32.355 66.7181C32.1129 66.9579 31.8445 67.217 31.7586 67.2948L31.6026 67.4355L31.8083 67.6421C32.2696 68.1046 32.9001 68.4021 33.6381 68.5048C33.9291 68.5451 34.5806 68.5387 34.9081 68.4921C35.8465 68.3586 36.7939 67.9277 37.3534 67.3794C37.5089 67.2273 37.7089 66.9528 37.8085 66.7549C37.9016 66.5696 37.9167 66.5056 37.8622 66.5269C37.7871 66.5562 37.2583 66.6676 37.0521 66.6976C36.7232 66.7454 35.9349 66.7371 35.6332 66.6822C35.3101 66.6237 35.2983 66.6154 35.4288 66.5384C35.9571 66.2267 36.8183 65.9285 37.7086 65.7491L37.8515 65.7203L37.7942 65.6579C37.6777 65.5303 37.2259 65.2064 36.9907 65.0816C36.5464 64.8457 36.1899 64.7553 35.7222 64.7588C35.5656 64.76 35.3568 64.7758 35.2583 64.794ZM49.2471 64.8054C48.7534 64.9125 48.2223 65.1989 47.7794 65.5974L47.6447 65.7187L47.7914 65.7476C48.1381 65.8163 48.7534 65.9822 49.081 66.0956C49.628 66.2848 50.2227 66.5779 50.1466 66.6209C50.0418 66.6806 49.6062 66.7264 49.1369 66.7276C48.6132 66.7288 48.3244 66.696 47.8652 66.583C47.7305 66.5498 47.6164 66.5269 47.6113 66.5321C47.6063 66.5372 47.6358 66.6138 47.6765 66.7023C48.0853 67.5891 49.2429 68.2986 50.5961 68.4921C50.9226 68.5387 51.5685 68.5455 51.8659 68.5052C52.6419 68.4001 53.3449 68.0537 53.7796 67.5623L53.8965 67.4303L53.7063 67.2545C53.6015 67.1578 53.3177 66.8828 53.0755 66.6435C52.8332 66.4037 52.5471 66.1295 52.4396 66.0343C51.6411 65.3265 50.9078 64.9133 50.239 64.7948C49.9502 64.7434 49.5096 64.7482 49.2471 64.8054ZM27.389 72.8136C27.3352 72.8192 27.1646 72.8358 27.0098 72.8508C24.9602 73.0491 23.6138 73.9193 23.1574 75.341C22.9769 75.9035 22.9856 75.6941 22.9856 79.4886L22.9856 82.889L23.0422 83.1497C23.1941 83.8492 23.4475 84.3466 23.8761 84.7878C24.5746 85.506 25.5562 85.9104 27.022 86.0839C27.3843 86.1269 28.9104 86.1269 29.2727 86.0839C31.0014 85.8792 32.1328 85.3191 32.7725 84.3505C32.9954 84.0136 33.1424 83.649 33.2516 83.1623L33.3072 82.9138L33.3158 79.6127C33.3219 77.2367 33.3164 76.2452 33.2962 76.0753C33.1986 75.2541 32.9124 74.6359 32.3821 74.101C31.7148 73.4279 30.7721 73.0345 29.4072 72.8599C29.1174 72.8227 27.6402 72.7891 27.389 72.8136ZM35.6943 73.6428V74.2385L36.2631 74.2393L36.8319 74.24L37.6545 75.35C38.1068 75.9607 39.0011 77.1659 39.6418 78.0287L40.8063 79.5973L38.8216 82.1368L36.8367 84.6764L36.2166 84.6831L35.5964 84.6894V85.2725V85.8555H38.1284L40.6604 85.8555V85.2721V84.6887H39.8654C39.4281 84.6887 39.0702 84.6827 39.0702 84.6752C39.0702 84.6646 41.7966 81.1272 41.8591 81.0569C41.8688 81.0458 42.4961 81.8556 43.2531 82.8566L44.6288 84.6764L43.7453 84.6827L42.8622 84.6894V85.2725V85.8555H45.5287H48.1951V85.2721V84.6887L47.6385 84.6879L47.0818 84.6871L45.4308 82.4892C44.5225 81.2804 43.6343 80.0978 43.4565 79.8615L43.1335 79.4318L45.1451 76.8412L47.1567 74.2511L47.7126 74.2444L48.2685 74.2377V73.6424V73.0471H45.8466H43.4247V73.6428V74.2381L44.1665 74.2444L44.9083 74.2511L43.5291 76.063C42.7706 77.0597 42.1308 77.9011 42.1072 77.9331L42.0645 77.9915L40.6774 76.1152L39.2903 74.2385H40.1219H40.9538V73.6428V73.0471H38.3242L35.6943 73.0471V73.6428ZM50.2743 73.6428V74.2385H51.2036H52.1326L52.1403 78.6879C52.1485 83.1031 52.1489 83.139 52.1997 83.374C52.3461 84.0468 52.6069 84.5334 53.0491 84.9577C53.7214 85.6023 54.7583 85.9847 56.1581 86.1028C56.5358 86.1348 57.4682 86.1348 57.8459 86.1028C59.9709 85.9231 61.2752 85.1216 61.7069 83.7299C61.8656 83.2188 61.8556 83.5368 61.8641 78.6631L61.8715 74.2385H62.776H63.6804V73.6428V73.0471H60.6716H57.6623V73.6428V74.2385H58.5804H59.4985L59.4907 78.6508C59.4833 83.0268 59.4829 83.0647 59.4321 83.2863C59.2291 84.1728 58.7101 84.6112 57.6821 84.7661C57.4174 84.806 56.556 84.8064 56.3048 84.7665C55.4085 84.6239 54.8806 84.2569 54.6403 83.6083C54.4873 83.1959 54.4978 83.5411 54.4893 78.6757L54.4811 74.2385H55.3868H56.2924V73.6428V73.0471H53.2835L50.2743 73.0471V73.6428ZM27.6386 74.1148C27.1276 74.1614 26.7599 74.2618 26.3874 74.4561C26.0754 74.6189 25.7938 74.9049 25.6327 75.2228C25.5058 75.4737 25.4107 75.8019 25.3717 76.1243C25.3356 76.4233 25.3371 82.5145 25.3734 82.8147C25.4147 83.1564 25.4804 83.3855 25.6187 83.6703C25.7251 83.8891 25.7766 83.9622 25.9452 84.1333C26.1194 84.3098 26.1817 84.3541 26.4247 84.4742C26.9114 84.7143 27.3582 84.7985 28.1474 84.7977C28.9223 84.7969 29.3995 84.7076 29.8598 84.4773C30.4794 84.1672 30.8216 83.628 30.9226 82.8028C30.9576 82.5176 30.9581 76.4154 30.9232 76.1243C30.8832 75.7909 30.8106 75.5369 30.6751 75.2564C30.5671 75.0332 30.5193 74.9657 30.3375 74.7816C30.1501 74.5912 30.0938 74.5509 29.846 74.4293C29.5335 74.2756 29.3134 74.2073 28.9537 74.152C28.6498 74.1053 27.9563 74.086 27.6386 74.1148ZM22.3863 87.1338V87.4688L42.7519 87.4688L63.118 87.4688V87.1338V86.7984L42.7519 86.7984L22.3863 86.7984V87.1338ZM32.3614 88.7735C31.8886 88.8897 31.6234 89.2768 31.7398 89.6805C31.8212 89.9625 32.0196 90.0976 32.5418 90.2268C32.8841 90.3113 32.9944 90.3651 33.0177 90.4595C33.0785 90.7052 32.4847 90.7451 32.0531 90.5239C31.971 90.482 31.8996 90.4472 31.8945 90.4472C31.8893 90.4472 31.8382 90.5555 31.781 90.6874L31.6768 90.9272L31.7346 90.9722C31.8106 91.0315 32.1165 91.1334 32.3276 91.1693C32.5818 91.2132 32.9558 91.1867 33.1561 91.1116C33.4934 90.9844 33.6643 90.7569 33.6633 90.4366C33.6627 90.2236 33.6113 90.0957 33.4793 89.9783C33.3505 89.8634 33.2279 89.8128 32.8383 89.7133C32.474 89.6201 32.4003 89.5845 32.3772 89.4913C32.3212 89.2645 32.768 89.1788 33.1535 89.3428C33.2391 89.3791 33.3256 89.4139 33.3458 89.4202C33.3729 89.4289 33.4076 89.3688 33.4779 89.1934C33.5855 88.924 33.585 88.9221 33.398 88.849C33.1112 88.7368 32.6476 88.7028 32.3614 88.7735ZM38.5617 88.7731C38.0032 88.9256 37.6514 89.3858 37.6514 89.9633C37.6514 90.6791 38.1823 91.1918 38.9235 91.1918C39.2822 91.1918 39.5812 91.084 39.8075 90.8731L39.9321 90.7565L39.7213 90.5626L39.5102 90.3678L39.42 90.4484C39.2792 90.574 39.1314 90.6305 38.948 90.6289C38.7651 90.6277 38.651 90.5859 38.5258 90.4741C38.3843 90.3481 38.325 90.1972 38.325 89.9633C38.325 89.7295 38.3843 89.5786 38.5258 89.4526C38.651 89.3412 38.7651 89.2993 38.948 89.2977C39.1314 89.2961 39.2792 89.3526 39.4201 89.4782L39.5106 89.5588L39.7062 89.3799C39.8141 89.2815 39.9018 89.1863 39.9018 89.1686C39.9018 89.1204 39.6883 88.9414 39.5474 88.8715C39.2768 88.7372 38.85 88.6945 38.5617 88.7731ZM33.9574 89.9633V91.1425H34.2877H34.6179V89.9633V88.7842H34.2877H33.9574V89.9633ZM35.1072 89.9625V91.1425H35.4248H35.7424L35.7489 90.5262L35.7555 89.91L36.2456 90.5199L36.7357 91.1298L37.0101 91.1369L37.2844 91.144V89.9641V88.7842H36.9669H36.6492L36.6427 89.4004L36.6362 90.0171L36.146 89.4068L35.656 88.7968L35.3816 88.7897L35.1072 88.7826V89.9625ZM40.1957 89.9633V91.1425H41.1382H42.0808L42.0742 90.8881L42.0672 90.6337L41.4616 90.627L40.856 90.6202V90.4097V90.1992H41.37H41.8836V89.9511V89.7026H41.37H40.856V89.5043V89.3056H41.4433H42.0303V89.0449V88.7842H41.113H40.1957V89.9633ZM46.1401 89.0418C46.0795 89.0587 45.986 89.0939 45.9324 89.12C45.8322 89.1686 45.602 89.3827 45.602 89.4273C45.602 89.4407 45.6964 89.5043 45.8117 89.5679L46.0213 89.6837L46.0869 89.6201C46.2464 89.4652 46.503 89.4407 46.6043 89.5711C46.7278 89.7303 46.661 89.8413 46.1377 90.3497L45.6999 90.7751V90.9588V91.1425H46.4949H47.2899V90.9066V90.6708H46.9118H46.5333L46.8233 90.3793C47.1424 90.0581 47.2154 89.9424 47.2348 89.724C47.274 89.2875 46.9584 89.0046 46.4374 89.0094C46.3345 89.0105 46.2006 89.0248 46.1401 89.0418ZM48.1109 89.0473C47.8489 89.1322 47.6552 89.3341 47.5535 89.6284C47.5073 89.7631 47.498 89.8409 47.498 90.1C47.498 90.3587 47.5073 90.437 47.5535 90.5717C47.6979 90.99 48.0255 91.2144 48.4513 91.1867C48.9661 91.1531 49.2949 90.7293 49.2949 90.1C49.2949 89.6189 49.0973 89.2436 48.7615 89.0876C48.5868 89.0062 48.2937 88.988 48.1109 89.0473ZM49.883 89.0418C49.8224 89.0587 49.7289 89.0939 49.6753 89.12C49.5752 89.1686 49.345 89.3827 49.345 89.4273C49.345 89.4407 49.4393 89.5043 49.5546 89.5679L49.7642 89.6837L49.8298 89.6201C49.9894 89.4652 50.2459 89.4407 50.3473 89.5711C50.4707 89.7303 50.4039 89.8413 49.8807 90.3497L49.4428 90.7751V90.9588V91.1425H50.2378H51.0328V90.9066V90.6708H50.6547H50.2762L50.5662 90.3793C50.8857 90.0581 50.9583 89.9424 50.9777 89.724C51.0169 89.2875 50.7013 89.0046 50.1803 89.0094C50.0775 89.0105 49.9436 89.0248 49.883 89.0418ZM51.6201 89.0418C51.5596 89.0587 51.466 89.0939 51.4121 89.12C51.3119 89.1686 51.0817 89.3827 51.0817 89.4273C51.0817 89.4407 51.1761 89.5043 51.2913 89.5679L51.501 89.6837L51.5666 89.6201C51.7261 89.4652 51.9831 89.4407 52.084 89.5711C52.2075 89.7303 52.1407 89.8413 51.6178 90.3497L51.1796 90.7751V90.9588V91.1425H51.9746H52.7696V90.9066V90.6708H52.3915H52.013L52.303 90.3793C52.6225 90.0581 52.695 89.9424 52.7148 89.724C52.7537 89.2875 52.4381 89.0046 51.9171 89.0094C51.8142 89.0105 51.6807 89.0248 51.6201 89.0418ZM48.2118 89.5683C48.1128 89.6686 48.0849 89.7856 48.0849 90.1C48.0849 90.414 48.1128 90.531 48.2118 90.6313C48.26 90.6803 48.3 90.6957 48.3788 90.6957C48.6004 90.6957 48.6967 90.5152 48.6967 90.1C48.6967 89.6848 48.6004 89.5043 48.3788 89.5043C48.3 89.5043 48.26 89.5197 48.2118 89.5683Z" fill="url(#paint1_linear_1342_32)"/>
</g>
<defs>
<linearGradient id="paint0_linear_1342_32" x1="114.952" y1="55.5" x2="435.148" y2="143.961" gradientUnits="userSpaceOnUse">
<stop stop-color="#0025B9"/>
<stop offset="1" stop-color="#004BFF"/>
</linearGradient>
<linearGradient id="paint1_linear_1342_32" x1="4.84124" y1="55.5" x2="84.7045" y2="59.304" gradientUnits="userSpaceOnUse">
<stop stop-color="#0025B9"/>
<stop offset="1" stop-color="#004BFF"/>
</linearGradient>
</defs>
</svg>
