<svg width="5275" height="1311" viewBox="0 0 5275 1311" fill="none" xmlns="http://www.w3.org/2000/svg">
<g clip-path="url(#clip0_198_2)">
<path d="M1523.88 570.871C1488.17 606.361 1444.37 624.106 1392.48 624.106C1340.59 624.106 1296.62 606.361 1260.57 570.871C1224.86 535.044 1207 491.104 1207 439.053C1207 387.002 1224.86 343.231 1260.57 307.741C1296.62 271.914 1340.59 254 1392.48 254C1444.37 254 1488.17 271.914 1523.88 307.741C1559.93 343.231 1577.96 387.002 1577.96 439.053C1577.96 491.104 1559.93 535.044 1523.88 570.871ZM1324.25 508.511C1342.45 526.425 1365.19 535.382 1392.48 535.382C1419.77 535.382 1442.51 526.425 1460.71 508.511C1478.9 490.259 1488 467.107 1488 439.053C1488 410.999 1478.9 388.016 1460.71 370.102C1442.51 351.85 1419.77 342.724 1392.48 342.724C1365.19 342.724 1342.45 351.85 1324.25 370.102C1306.06 388.016 1296.96 410.999 1296.96 439.053C1296.96 467.107 1306.06 490.259 1324.25 508.511ZM1737 624.106C1699.61 624.106 1668.61 616.163 1644.01 600.277C1619.42 584.391 1602.23 562.929 1592.46 535.889L1669.79 490.766C1682.93 522.2 1706.18 537.917 1739.53 537.917C1767.16 537.917 1780.97 529.974 1780.97 514.088C1780.97 503.61 1773.06 495.16 1757.22 488.738C1750.48 486.034 1735.66 481.471 1712.75 475.05C1680.4 465.586 1654.79 452.404 1635.93 435.504C1617.06 418.266 1607.62 394.437 1607.62 364.018C1607.62 331.232 1619.25 304.699 1642.5 284.42C1666.08 264.14 1695.39 254 1730.43 254C1760.08 254 1786.36 260.929 1809.28 274.787C1832.19 288.645 1849.71 308.755 1861.84 335.119L1786.03 379.735C1774.91 353.371 1756.55 340.189 1730.94 340.189C1720.16 340.189 1711.9 342.386 1706.18 346.78C1700.78 351.174 1698.09 356.751 1698.09 363.511C1698.09 371.285 1702.13 377.876 1710.22 383.284C1718.64 388.692 1734.81 394.944 1758.74 402.042C1775.92 407.112 1789.73 411.844 1800.18 416.238C1810.62 420.632 1822.08 427.054 1834.55 435.504C1847.01 443.616 1856.28 454.263 1862.34 467.445C1868.41 480.288 1871.44 495.498 1871.44 513.074C1871.44 547.888 1859.14 575.096 1834.55 594.7C1809.95 614.304 1777.44 624.106 1737 624.106ZM1909.38 261.605L1999.84 261.605L1999.84 616.501H1909.38L1909.38 261.605ZM2361.74 261.605L2242.46 480.119L2242.46 616.501H2152V481.133L2032.73 261.605L2134.31 261.605L2196.98 392.916L2260.15 261.605L2361.74 261.605ZM2667.9 570.871C2632.19 606.361 2588.39 624.106 2536.5 624.106C2484.61 624.106 2440.65 606.361 2404.59 570.871C2368.88 535.044 2351.02 491.104 2351.02 439.053C2351.02 387.002 2368.88 343.231 2404.59 307.741C2440.65 271.914 2484.61 254 2536.5 254C2588.39 254 2632.19 271.914 2667.9 307.741C2703.95 343.231 2721.98 387.002 2721.98 439.053C2721.98 491.104 2703.95 535.044 2667.9 570.871ZM2468.27 508.511C2486.47 526.425 2509.21 535.382 2536.5 535.382C2563.79 535.382 2586.54 526.425 2604.73 508.511C2622.92 490.259 2632.02 467.107 2632.02 439.053C2632.02 410.999 2622.92 388.016 2604.73 370.102C2586.54 351.85 2563.79 342.724 2536.5 342.724C2509.21 342.724 2486.47 351.85 2468.27 370.102C2450.08 388.016 2440.98 410.999 2440.98 439.053C2440.98 467.107 2450.08 490.259 2468.27 508.511ZM3177.14 616.501H3076.06L3020.46 522.2L2964.87 616.501H2863.29L2969.93 435.504L2867.33 261.605L2968.91 261.605L3020.46 349.315L3072.01 261.605L3173.6 261.605L3071 436.011L3177.14 616.501ZM3433.18 616.501L3418.02 565.295L3300.27 565.295L3285.1 616.501L3187.06 616.501L3303.8 261.605L3413.98 261.605L3530.73 616.501L3433.18 616.501ZM3323.51 487.217L3394.77 487.217L3358.89 366.553L3323.51 487.217ZM3651.96 528.791H3773.76V616.501L3561.5 616.501L3561.5 261.605L3651.96 261.605L3651.96 528.791ZM4151.39 439.053C4151.39 481.978 4138.75 519.834 4113.48 552.62L4145.32 587.095L4082.15 643.372L4047.28 605.854C4022.01 618.022 3994.89 624.106 3965.91 624.106C3914.02 624.106 3870.05 606.361 3834 570.871C3798.29 535.044 3780.43 491.104 3780.43 439.053C3780.43 387.002 3798.29 343.231 3834 307.741C3870.05 271.914 3914.02 254 3965.91 254C4017.8 254 4061.6 271.914 4097.31 307.741C4133.36 343.231 4151.39 387.002 4151.39 439.053ZM3965.91 535.382C3969.62 535.382 3974.5 535.044 3980.57 534.368L3933.06 483.161L3996.74 427.392L4050.82 485.189C4057.89 470.994 4061.43 455.615 4061.43 439.053C4061.43 410.999 4052.33 388.016 4034.14 370.102C4015.94 351.85 3993.2 342.724 3965.91 342.724C3938.62 342.724 3915.88 351.85 3897.68 370.102C3879.49 388.016 3870.39 410.999 3870.39 439.053C3870.39 467.107 3879.49 490.259 3897.68 508.511C3915.88 526.425 3938.62 535.382 3965.91 535.382ZM4403.85 616.501L4388.69 565.295L4270.93 565.295L4255.77 616.501L4157.72 616.501L4274.47 261.605L4384.64 261.605L4501.39 616.501L4403.85 616.501ZM4294.18 487.217L4365.44 487.217L4329.56 366.553L4294.18 487.217ZM4716.64 616.501L4654.98 501.92L4622.63 501.92V616.501H4532.17L4532.17 261.605L4673.68 261.605C4709.73 261.605 4739.88 273.266 4764.14 296.588C4788.74 319.571 4801.04 348.808 4801.04 384.298C4801.04 405.591 4795.65 425.195 4784.86 443.109C4774.08 460.685 4759.43 474.712 4740.9 485.189L4813.67 616.501L4716.64 616.501ZM4622.63 345.259V424.857L4672.67 424.857C4683.79 425.195 4692.88 421.646 4699.96 414.21C4707.03 406.774 4710.57 397.141 4710.57 385.312C4710.57 373.482 4707.03 363.849 4699.96 356.413C4692.88 348.977 4683.79 345.259 4672.67 345.259L4622.63 345.259ZM5148.92 570.871C5113.21 606.361 5069.41 624.106 5017.52 624.106C4965.63 624.106 4921.67 606.361 4885.61 570.871C4849.9 535.044 4832.04 491.104 4832.04 439.053C4832.04 387.002 4849.9 343.231 4885.61 307.741C4921.67 271.914 4965.63 254 5017.52 254C5069.41 254 5113.21 271.914 5148.92 307.741C5184.97 343.231 5203 387.002 5203 439.053C5203 491.104 5184.97 535.044 5148.92 570.871ZM4949.29 508.511C4967.49 526.425 4990.23 535.382 5017.52 535.382C5044.81 535.382 5067.56 526.425 5085.75 508.511C5103.94 490.259 5113.04 467.107 5113.04 439.053C5113.04 410.999 5103.94 388.016 5085.75 370.102C5067.56 351.85 5044.81 342.724 5017.52 342.724C4990.23 342.724 4967.49 351.85 4949.29 370.102C4931.1 388.016 4922 410.999 4922 439.053C4922 467.107 4931.1 490.259 4949.29 508.511ZM1457.67 1114.03C1431.73 1136.68 1398.21 1148 1357.1 1148C1316 1148 1282.3 1136.68 1256.02 1114.03C1230.08 1091.39 1217.11 1061.3 1217.11 1023.79L1217.11 785.499L1307.57 785.499L1307.57 1015.17C1307.57 1044.91 1324.08 1059.78 1357.1 1059.78C1390.12 1059.78 1406.63 1044.91 1406.63 1015.17L1406.63 785.499H1497.1L1497.1 1023.79C1497.1 1061.3 1483.95 1091.39 1457.67 1114.03ZM1749.48 785.499H1839.44L1839.44 1140.4H1769.7L1644.86 961.933V1140.4H1554.4L1554.4 785.499H1624.65L1749.48 963.961V785.499ZM1900.5 785.499L1990.96 785.499L1990.96 1140.4H1900.5L1900.5 785.499ZM2138.06 1140.4L2023.84 785.499L2122.9 785.499L2191.63 1029.87L2260.87 785.499L2359.93 785.499L2245.71 1140.4L2138.06 1140.4ZM2483.27 1055.22H2620.23V1140.4H2392.8L2392.8 785.499L2617.7 785.499V870.167L2483.27 870.167V919.346L2605.07 919.346V1003L2483.27 1003V1055.22ZM2852.78 1140.4L2791.13 1025.81H2758.78V1140.4L2668.32 1140.4L2668.32 785.499L2809.83 785.499C2845.88 785.499 2876.03 797.16 2900.29 820.482C2924.89 843.465 2937.18 872.702 2937.18 908.192C2937.18 929.485 2931.79 949.089 2921.01 967.003C2910.23 984.579 2895.57 998.606 2877.04 1009.08L2949.82 1140.4H2852.78ZM2758.78 869.153V948.751H2808.81C2819.93 949.089 2829.03 945.54 2836.11 938.104C2843.18 930.668 2846.72 921.036 2846.72 909.206C2846.72 897.376 2843.18 887.743 2836.11 880.307C2829.03 872.871 2819.93 869.153 2808.81 869.153H2758.78ZM3107.68 1148C3070.28 1148 3039.28 1140.06 3014.69 1124.17C2990.09 1108.29 2972.91 1086.82 2963.14 1059.78L3040.46 1014.66C3053.6 1046.09 3076.85 1061.81 3110.21 1061.81C3137.83 1061.81 3151.65 1053.87 3151.65 1037.98C3151.65 1027.5 3143.73 1019.05 3127.89 1012.63C3121.16 1009.93 3106.33 1005.37 3083.42 998.944C3051.07 989.48 3025.47 976.298 3006.6 959.398C2987.73 942.16 2978.3 918.332 2978.3 887.912C2978.3 855.126 2989.92 828.594 3013.17 808.314C3036.76 788.034 3066.07 777.894 3101.11 777.894C3130.76 777.894 3157.04 784.823 3179.95 798.681C3202.86 812.539 3220.38 832.65 3232.51 859.013L3156.7 903.629C3145.58 877.265 3127.22 864.083 3101.61 864.083C3090.83 864.083 3082.58 866.28 3076.85 870.674C3071.46 875.068 3068.76 880.645 3068.76 887.405C3068.76 895.179 3072.81 901.77 3080.89 907.178C3089.32 912.586 3105.49 918.839 3129.41 925.937C3146.59 931.006 3160.41 935.738 3170.85 940.132C3181.3 944.526 3192.75 950.948 3205.22 959.398C3217.69 967.51 3226.95 978.157 3233.02 991.339C3239.08 1004.18 3242.11 1019.39 3242.11 1036.97C3242.11 1071.78 3229.81 1098.99 3205.22 1118.59C3180.62 1138.2 3148.11 1148 3107.68 1148ZM3280.06 785.499L3370.52 785.499L3370.52 1140.4L3280.06 1140.4L3280.06 785.499ZM3673.79 785.499V873.209L3586.36 873.209L3586.36 1140.4H3495.9L3495.9 873.209L3408.46 873.209V785.499L3673.79 785.499ZM3802.12 1055.22H3939.08V1140.4L3711.66 1140.4L3711.66 785.499L3936.56 785.499V870.167L3802.12 870.167V919.346L3923.92 919.346L3923.92 1003L3802.12 1003V1055.22ZM4229.76 785.499V873.209L4142.33 873.209L4142.33 1140.4H4051.86L4051.86 873.209L3964.43 873.209V785.499L4229.76 785.499ZM4267.63 785.499H4358.09V1140.4H4267.63L4267.63 785.499Z" fill="#18178C"/>
<mask id="mask0_198_2" style="mask-type:luminance" maskUnits="userSpaceOnUse" x="0" y="0" width="1009" height="1311">
<path d="M1008.84 0L0 0L0 1311L1008.84 1311L1008.84 0Z" fill="white"/>
</mask>
<g mask="url(#mask0_198_2)">
<path fill-rule="evenodd" clip-rule="evenodd" d="M483.278 11.2855C447.207 30.7334 427.414 40.3059 384.12 59.2427C298.673 96.6174 178.555 142.931 93.0457 171.47C72.7419 178.247 63.7562 181.045 29.0298 191.404C13.2383 196.113 0.220906 200.055 0.102543 200.162C-0.18194 200.416 7.67284 815.302 8.08182 824.782C11.0605 893.836 28.765 954.758 62.1378 1010.8C98.4232 1071.73 154.216 1126.74 229.135 1175.48C277.082 1206.66 328.654 1233.56 409.903 1269.73C432.026 1279.59 503.855 1311 504.264 1311C504.845 1311 583.893 1276.34 608.105 1265.47C653.75 1244.98 693.095 1225.7 724.415 1208.46C782.849 1176.3 830.288 1142.81 868.131 1107.03C875.11 1100.43 888.978 1086.36 894.436 1080.33C929.457 1041.67 955.059 1001.31 972.828 956.769C989.532 914.891 998.588 871.101 1000.55 822.73C1000.66 820.15 1002.53 681.365 1004.71 514.318C1006.89 347.269 1008.73 208.208 1008.8 205.293C1008.9 201.096 1008.84 199.991 1008.54 199.987C1007.97 199.98 952.498 183.373 940.633 179.657C897.592 166.177 826.016 140.487 759.72 114.726C707.363 94.3808 665.34 77.1288 622.499 58.389C580.834 40.1637 561.424 30.7759 526.803 12.1081C515.845 6.19991 506.277 1.05863 505.543 0.683082L504.208 0L483.278 11.2855ZM492.507 50.2906C461.722 66.9039 432.28 80.7646 381.776 102.421C298.113 138.297 188.829 180.153 108.427 207.115C87.6435 214.084 77.6071 217.267 55.8374 223.794L38.9911 228.844L39.0784 235.55C39.1265 239.239 40.8012 371.148 42.7999 528.683C44.7985 686.218 46.5793 818.601 46.7569 822.874C49.3771 885.84 65.5154 941.037 96.3451 992.474C116.342 1025.84 143.301 1057.75 176.551 1087.43C197.128 1105.8 222.466 1125 248.701 1142.11C290.504 1169.36 336.635 1193.94 401.26 1223.41C430.438 1236.71 503.906 1268.91 504.622 1268.7C505.212 1268.53 561.633 1243.82 578.221 1236.46C646.841 1206.01 694.703 1181.98 735.401 1157.52C828.28 1101.7 889.866 1040.17 925.826 967.261C947.579 923.159 959.09 877.404 961.731 824.558C961.94 820.336 968.672 304.913 969.402 237.447L969.49 228.826L952.205 223.639C930.912 217.248 925.115 215.428 907.672 209.655C827.829 183.223 711.565 138.846 626.636 102.383C575.422 80.3946 547.059 67.0313 515.812 50.167C510.74 47.4269 506.049 44.913 505.398 44.5802L504.208 43.9749L492.507 50.2906ZM499.555 83.1244C487.527 89.5031 467.044 99.4946 447.99 108.279C369.75 144.347 245.102 193.86 143.146 229.371C127.321 234.883 95.512 245.432 83.9633 248.999C78.4039 250.715 73.33 252.286 72.6879 252.489L71.5201 252.856L71.6019 259.43C74.8307 518.256 78.7531 817.649 78.9804 822.585C81.8242 884.342 99.2438 938.881 131.892 988.247C161.758 1033.4 204.886 1074.52 262.094 1112.37C309.188 1143.53 362.904 1171.47 447.55 1208.83C462.658 1215.5 504.111 1233.61 504.264 1233.61C504.404 1233.61 547.361 1214.84 560.494 1209.04C622.387 1181.72 664.256 1161.18 702.132 1139.57C783.189 1093.32 840.098 1043.84 877.22 987.351C909.159 938.751 926.398 884.995 929.49 824.344C929.703 820.178 936.105 332.275 936.877 261.485L936.97 252.862L935.798 252.489C935.157 252.284 929.685 250.577 923.641 248.696C867.257 231.147 778.419 198.783 694.68 165.284C614.586 133.244 549.211 104.33 509.225 83.2625L504.241 80.6386L499.555 83.1244ZM0 205.465C0 208.448 0.0436539 209.667 0.0966831 208.176C0.150006 206.685 0.150006 204.244 0.0966831 202.752C0.0436539 201.261 0 202.481 0 205.465ZM357.019 212.926C350.565 213.986 343.946 217.464 339.929 221.905C338.372 223.626 336.721 226.499 336.331 228.16C336.153 228.918 336.194 228.988 336.687 228.783C341.678 226.715 346.512 225.604 349.866 225.752L351.818 225.84L349.95 227.245C348.379 228.43 341.936 231.812 338.276 233.377L337.259 233.811L338.57 234.644C340.582 235.925 343.998 237.148 346.222 237.386C350.241 237.816 353.707 237.004 357.52 234.738C359.807 233.38 364.735 228.583 367.32 225.201C368.503 223.651 370.42 221.154 371.578 219.653L373.687 216.922L372.605 216.069C368.924 213.169 362.92 211.957 357.019 212.926ZM644.726 212.687C641.169 213.207 638.287 214.301 635.976 216.004L634.702 216.946L635.418 217.728C635.814 218.159 637.576 220.423 639.333 222.761C644.41 229.525 648.682 233.663 652.648 235.668C657.934 238.336 663.871 238.078 669.487 234.935L671.444 233.839L668.538 232.605C664.628 230.941 660.891 228.924 658.589 227.235L656.688 225.84L658.627 225.752C661.904 225.606 667.423 226.87 671.751 228.757C672.578 229.116 672.392 228.075 671.202 225.699C668.757 220.81 662.848 216.297 655.856 213.983C652.569 212.895 647.413 212.294 644.726 212.687ZM315.039 218.978C312.185 219.649 307.737 222.508 305.081 225.381C297.662 233.4 293.927 245.471 296.709 252.447C297.031 253.253 297.035 253.248 298.274 251.073C300.232 247.636 302.153 245.084 304.69 242.55C306.406 240.835 307.065 240.337 307.143 240.694C307.346 241.64 305.079 247.695 302.93 251.951L300.76 256.251L302.156 256.044C307.494 255.256 312.729 251.667 315.372 246.982C317.935 242.438 318.876 237.277 319.134 226.352L319.317 218.657L317.733 218.686C316.862 218.702 315.649 218.834 315.039 218.978ZM689.482 225.912C689.603 236.747 690.277 240.973 692.676 245.921C694.861 250.423 698.19 253.389 703.006 255.129C705.159 255.907 707.86 256.412 707.669 256.002C707.604 255.859 706.563 253.763 705.359 251.345C703.434 247.479 702.035 243.869 701.384 241.106L701.179 240.248L702.058 240.874C704.396 242.54 708.19 247.279 710.291 251.154C710.933 252.336 711.533 253.179 711.63 253.023C712.128 252.215 712.695 249.048 712.695 247.066C712.695 235.712 703.941 222.464 694.322 219.263C693.318 218.93 691.802 218.657 690.951 218.657H689.403L689.482 225.912ZM496.04 238.766C495.231 238.826 492.465 239.018 489.885 239.194C418.753 244.039 352.766 282.391 312.585 342.239C298.959 362.537 288.941 383.92 282.167 407.164C277.662 422.62 275.209 435.998 273.46 454.657C272.865 460.991 272.963 485.952 273.608 492.768C276.604 524.433 283.992 550.662 297.569 577.829C319.173 621.064 353.282 656.209 396.279 679.537C444.96 705.948 503.404 713.917 558.463 701.646C631.206 685.438 692.444 634.627 722.198 565.788C738.279 528.585 744.355 487.221 739.776 446.156C735.313 406.153 719.943 366.892 695.963 334.256C684.74 318.977 670.24 303.688 655.419 291.506C641.095 279.73 623.071 268.345 606.715 260.743C580.076 248.359 555.05 241.779 524.604 239.157C521.056 238.852 499.001 238.55 496.04 238.766ZM497.69 250.908C458.21 252.719 420.798 264.481 387.986 285.4C348.246 310.736 317.384 348.185 300.324 391.772C285.675 429.195 281.412 470.094 288.038 509.624C294.295 546.953 309.814 581.762 333.356 611.281C345.134 626.047 359.395 639.866 374.452 651.096C405.074 673.938 440.825 688.434 478.471 693.286C494.557 695.357 513.274 695.619 529.439 694C611.941 685.737 683.392 631.496 713.783 554.059C727.47 519.189 732.068 481.333 727.186 443.704C720.115 389.156 692.188 338.343 649.705 302.721C613.354 272.24 569.421 254.545 521.819 251.217C515.617 250.784 503.729 250.631 497.69 250.908ZM272.992 253.553C267.673 255.444 262.561 260.57 259.213 267.37C257.483 270.886 256.458 273.842 255.587 277.823C254.749 281.655 254.67 289.111 255.437 291.949C255.977 293.947 257.586 297.52 257.948 297.52C258.062 297.52 258.593 296.168 259.124 294.514C260.721 289.554 264.317 282.656 266.194 280.957C266.77 280.436 266.782 280.443 266.782 281.284C266.782 284.38 265.499 291.11 263.889 296.445C263.273 298.487 262.818 300.158 262.878 300.158C263.346 300.158 267.207 298.162 268.839 297.076C273.053 294.272 276.341 289.465 277.69 284.136C278.258 281.892 278.346 280.788 278.342 275.971C278.334 269.995 278.208 268.936 276.423 259.945C275.793 256.774 275.278 253.904 275.278 253.569C275.278 252.836 275.015 252.834 272.992 253.553ZM322.528 253.379C318.252 254.415 313.857 257.956 311.402 262.34C309.606 265.548 309.569 265.698 310.607 265.469C316.249 264.226 319.061 263.772 322.082 263.611C324.742 263.47 325.671 263.51 325.671 263.766C325.671 264.213 322.035 266.563 319.717 267.613C318.029 268.377 314.062 269.672 312.047 270.115L311.168 270.309L312.194 271.183C319.783 277.657 337.257 274.397 345.096 265.044C346.424 263.461 348.362 259.927 348.573 258.705C348.657 258.226 347.859 257.875 342.764 256.151C335.255 253.61 332.082 252.949 327.529 252.982C325.621 252.996 323.37 253.175 322.528 253.379ZM674.559 253.535C673.164 253.829 669.305 254.973 665.991 256.073C661.383 257.604 659.961 258.192 659.961 258.561C659.961 258.828 660.509 260.15 661.179 261.498C662.137 263.425 662.936 264.492 664.912 266.47C668.585 270.143 672.797 272.401 678.613 273.814C682.039 274.648 687.925 274.713 690.724 273.95C692.941 273.344 695.666 271.964 696.595 270.974L697.242 270.284L696.4 270.104C694.466 269.687 690.631 268.431 688.827 267.62C686.53 266.588 682.811 264.234 682.811 263.811C682.811 263.019 690.561 263.734 695.791 265.009C697.204 265.354 698.436 265.566 698.52 265.483C698.729 265.272 697.321 262.535 695.986 260.564C693.573 257.008 689.361 254.077 685.507 253.279C683.127 252.786 677.483 252.918 674.559 253.535ZM733.207 253.68C733.207 254.104 732.672 257.116 732.021 260.373C730.003 270.482 729.571 276.187 730.408 281.688C731.635 289.761 735.787 295.45 743.039 298.999C744.341 299.637 745.471 300.158 745.55 300.158C745.634 300.158 745.127 298.165 744.429 295.73C742.723 289.772 741.184 280.504 741.905 280.521C742.421 280.533 745.076 284.669 746.796 288.147C747.795 290.166 748.999 293.102 749.469 294.669C749.939 296.237 750.408 297.52 750.515 297.52C750.882 297.52 752.5 294.115 753.021 292.242C753.853 289.244 753.779 281.633 752.886 277.618C750.789 268.245 745.871 259.87 740.143 255.924C738.525 254.813 735.55 253.416 734.155 253.116C733.272 252.926 733.207 252.966 733.207 253.68ZM529.876 269.499C529.876 269.559 531.754 270.699 534.051 272.032C550.717 281.705 568.505 294.129 583.335 306.451C590.997 312.819 596.813 318.156 604.907 326.238C614.832 336.154 621.434 343.552 628.25 352.404L630.439 355.252L632.383 353.883C640.7 348.018 656.59 335.261 656.59 334.446C656.59 333.977 650.695 327.868 646.195 323.671C620.36 299.584 590.634 283.183 557.11 274.52C550.88 272.91 541.796 271.093 535.882 270.273C533.465 269.937 531.126 269.601 530.685 269.526C530.238 269.451 529.876 269.439 529.876 269.499ZM479.043 269.871C475.175 270.378 466.388 271.948 461.99 272.915C428.05 280.39 395.792 296.963 370.057 320.147C365.493 324.259 361.044 328.547 358.306 331.474L356.298 333.62L357.025 334.202C363.76 339.587 382.373 352.634 383.318 352.634C383.499 352.634 384.279 351.81 385.053 350.802C387.658 347.407 393.508 340.498 397.653 335.923C403.185 329.819 415.171 318.036 421.475 312.505C437.489 298.455 455.884 285.136 474.357 274.215C477.583 272.31 480.614 270.51 481.098 270.214L481.976 269.677L480.949 269.718C480.387 269.738 479.526 269.808 479.043 269.871ZM499.903 275.052C491.219 284.327 487.379 288.707 481.363 296.199C462.815 319.285 447.04 345.615 435.816 372.215C434.707 374.841 433.763 377.195 433.718 377.447C433.654 377.791 434.621 378.264 437.589 379.341C457.595 386.602 477.616 390.942 499.043 392.665L501.456 392.86L501.456 333.169C501.456 300.34 501.423 273.494 501.386 273.513C501.344 273.531 500.68 274.223 499.903 275.052ZM510.842 333.404L510.833 393.18L518.523 393.004C537.444 392.569 555.092 389.59 573.037 383.802C580.155 381.505 579.625 382.462 577.138 376.382C568.923 356.279 558.635 336.941 546.259 318.334C536.017 302.934 525.18 289.149 512.614 275.532L510.852 273.626L510.842 333.404ZM529.229 280.37C529.759 281.014 532.53 284.444 535.385 287.992C556.333 314.023 573.912 343.826 585.702 373.303C586.799 376.045 587.728 378.331 587.766 378.385C588.035 378.754 602.843 371.769 609.421 368.167C614.837 365.203 622.759 360.441 622.675 360.201C622.489 359.672 614.698 350.135 610.844 345.72C602.987 336.712 589.523 323.594 579.393 315.07C564.813 302.804 546.636 289.909 531.931 281.397C530.722 280.697 529.401 279.915 528.997 279.661C528.351 279.25 528.374 279.331 529.229 280.37ZM477.411 283.033C463.58 291.29 446.625 303.274 434.513 313.354C424.1 322.019 409.05 336.579 401.484 345.306C396.953 350.529 391.591 357.14 391.591 357.499C391.591 358.619 424.285 374.896 424.997 374.131C425.121 373.998 426.279 371.383 427.569 368.32C435.392 349.754 444.972 332.056 456.773 314.376C464.2 303.248 473.194 291.32 480.707 282.641C482.139 280.988 483.264 279.636 483.208 279.636C483.148 279.636 480.54 281.164 477.411 283.033ZM236.162 291.142C229.814 294.386 224.586 303.089 222.648 313.64C221.921 317.6 221.796 324.6 222.379 328.595C223.241 334.499 225.356 339.569 228.041 342.17L229.193 343.286L229.364 340.558C229.692 335.322 231.3 328.839 233.394 324.316C234.317 322.322 234.335 322.304 234.58 323.157C235.411 326.049 235.658 333.846 235.118 340.166C234.946 342.194 234.852 344.001 234.913 344.181C234.973 344.361 236.065 343.665 237.34 342.635C245.725 335.857 248.672 326.612 246.247 314.687C245.427 310.657 243.79 305.908 240.975 299.394C239.659 296.347 238.301 293.11 237.956 292.199L237.331 290.546L236.162 291.142ZM771.092 290.985C770.989 291.273 769.562 294.676 767.916 298.546C763.57 308.773 762.268 313.061 761.608 319.309C760.617 328.728 763.932 336.822 771.171 342.649C772.384 343.626 773.477 344.426 773.598 344.426C773.718 344.426 773.7 343.469 773.56 342.3C773.128 338.764 773.147 327.872 773.593 325.003C773.811 323.593 774.09 322.438 774.211 322.438C774.565 322.438 776.778 328.239 777.577 331.26C778.419 334.442 779.2 339.037 779.2 340.811C779.2 342.178 779.427 342.96 779.818 342.96C780.292 342.96 782.779 339.346 783.765 337.234C785.894 332.669 786.675 327.736 786.434 320.386C786.192 313.067 785.057 308.144 782.259 302.309C779.985 297.558 776.187 293.22 772.473 291.131C771.357 290.502 771.268 290.493 771.092 290.985ZM287.731 290.981C281.793 291.768 276.517 295.749 273.053 302.056L271.951 304.061L273.102 303.866C273.736 303.759 275.308 303.465 276.597 303.213C279.587 302.627 289.635 302.284 289.635 302.767C289.635 303.196 287.431 304.604 284.8 305.857C282.527 306.942 277.839 308.455 275.134 308.977L273.379 309.316L274.66 310.455C276.205 311.827 278.851 313.156 281.431 313.859C282.925 314.264 284.409 314.371 288.316 314.351C292.7 314.329 293.636 314.236 296.13 313.568C304.359 311.364 311.009 306.556 313.944 300.687C314.593 299.391 315.121 298.182 315.118 297.998C315.111 297.617 304.508 293.456 300.768 292.366C296.213 291.038 291.258 290.512 287.731 290.981ZM712.551 291.23C708.762 291.942 706.168 292.757 699.873 295.207C696.609 296.479 693.806 297.52 693.648 297.52C693.211 297.52 693.295 297.939 694.094 299.745C697.004 306.335 704.489 311.789 713.43 313.835C716.358 314.504 724.276 314.591 726.758 313.979C729.125 313.398 732.914 311.495 734.039 310.322L735.024 309.3L733.309 308.969C730.389 308.406 725.843 306.888 723.416 305.667C720.477 304.188 718.813 303.09 719.018 302.76C719.106 302.619 720.98 302.506 723.188 302.508C726.963 302.514 730.031 302.837 734.313 303.685C735.327 303.884 736.228 303.972 736.321 303.88C736.414 303.787 735.847 302.616 735.066 301.277C732.333 296.593 727.883 292.92 723.244 291.518C720.952 290.826 715.48 290.678 712.551 291.23ZM262.241 332.007C253.703 332.972 248.261 336.438 244.767 343.137C243.381 345.793 241.982 349.318 242.22 349.555C242.291 349.627 243.804 349.103 245.579 348.389C249.463 346.828 253.168 345.728 256.489 345.149C260.393 344.467 260.446 344.499 258.484 346.35C255.322 349.332 249.485 352.921 245.907 354.083C245.303 354.279 244.809 354.558 244.809 354.703C244.809 355.214 247.902 356.729 249.846 357.172C260.183 359.524 274.511 353.363 281.111 343.727C282.731 341.363 284.654 336.672 284.654 335.087C284.654 334.687 283.552 334.41 278.282 333.487C269.835 332.007 265.655 331.621 262.241 332.007ZM738.916 332.138C737.628 332.271 733.699 332.88 730.185 333.492L723.792 334.605L723.978 335.631C724.332 337.573 725.54 340.652 726.782 342.757C729.111 346.711 734.541 351.521 739.511 354.029C747.196 357.907 756.522 358.742 761.868 356.031C764.011 354.944 764.202 354.557 762.802 354.137C759.274 353.079 751.747 348.359 749.171 345.59L748.293 344.644L750.171 344.848C753.848 345.247 760.218 347.164 765.843 349.562C766.34 349.774 766.378 349.707 766.187 348.944C765.736 347.136 764.169 343.604 762.928 341.607C761.426 339.191 758.307 336.123 756.029 334.819C751.728 332.36 745.801 331.432 738.916 332.138ZM347.282 344.06C322.13 375.396 306.919 412.369 302.985 451.726C302.575 455.834 301.949 465.018 301.942 467.043L301.94 467.85H320.816L339.692 467.85L339.844 466.31C339.928 465.464 340.201 462.331 340.451 459.348C343.157 427.034 355.186 393.977 374.782 364.998C376.454 362.526 377.815 360.415 377.808 360.307C377.799 360.199 375.658 358.725 373.05 357.032C367.116 353.182 360.21 348.281 354.612 343.95C352.241 342.116 350.242 340.615 350.174 340.615C350.103 340.615 348.802 342.165 347.282 344.06ZM661.839 342.313C655.558 347.819 645.87 355.543 639.519 360.101C636.093 362.56 635.939 362.713 636.33 363.302C645.084 376.631 648.171 381.834 652.773 391.022C663.95 413.338 671.212 438.481 673.141 461.546C673.318 463.642 673.527 465.918 673.61 466.604L673.764 467.85L692.058 467.85H710.352L710.347 465.871C710.347 464.782 710.217 461.979 710.059 459.641C707.562 423.015 696.405 389.753 676.516 359.671C672.388 353.428 663.666 341.807 662.936 341.581C662.829 341.547 662.336 341.877 661.839 342.313ZM197.264 346.554C193.679 351.981 192.517 356.38 192.517 364.507C192.517 369.163 192.628 370.629 193.194 373.435C194.165 378.25 195.375 381.85 197.486 386.203C200.744 392.921 204.708 397.505 209.248 399.806C211.903 401.15 212.091 401.082 211.382 399.029C210.674 396.976 209.51 392.405 209.086 390.014C208.291 385.518 208.092 377.573 208.785 378.002C209.263 378.297 211.867 383.053 213.253 386.163C214.054 387.958 215.471 391.71 216.404 394.502L218.099 399.577L219.141 397.712C220.626 395.055 221.896 391.871 222.618 388.988C223.487 385.52 223.479 379.289 222.6 376.036C221.711 372.75 220.366 369.7 218.487 366.711C215.222 361.515 211.984 357.908 203.013 349.469L198.28 345.016L197.264 346.554ZM802.152 352.847C794.216 360.674 792.184 363.031 789.614 367.403C786.471 372.738 785.211 377.191 785.262 382.831C785.304 388.113 786.522 392.455 789.479 397.89L790.418 399.611L791.957 394.959C793.914 389.044 796.011 384.171 798.145 380.55L799.828 377.701L800.111 378.873C800.492 380.433 799.907 387.908 799.107 391.772C798.772 393.384 798.061 396.056 797.522 397.709C796.443 401.041 796.462 401.082 798.675 400.132C804.086 397.812 809.307 391.2 812.882 382.142C816.508 372.958 817.159 361.011 814.477 352.946C813.742 350.726 811.929 347.256 810.744 345.781L810.111 344.997L802.152 352.847ZM384.775 366.633C384.221 367.399 382.977 369.214 382.013 370.665C365.062 396.157 354.602 422.998 350.593 451.286C349.929 455.972 349.109 464.345 349.109 466.439V467.85H376.929L404.748 467.85L404.894 466.898C404.974 466.373 405.118 464.229 405.215 462.133C406.25 439.715 411.944 411.269 420.109 387.74C420.99 385.202 421.624 383.073 421.52 383.01C421.414 382.948 419.021 381.877 416.201 380.629C409.558 377.689 398.455 372.127 391.552 368.282C388.551 366.609 386.024 365.241 385.938 365.241C385.851 365.241 385.328 365.867 384.775 366.633ZM625.093 369.713C617.826 374.377 603.484 381.926 595.209 385.442C593.196 386.298 591.438 387.102 591.299 387.23C591.164 387.357 591.913 390.081 592.968 393.281C600.309 415.64 604.897 439.253 606.39 462.352L606.743 467.85L635.549 467.85H664.354V466.963C664.354 466.473 664.154 464.132 663.912 461.758C660.937 432.807 652.132 406.704 636.609 380.814C633.145 375.041 628.417 367.868 628.092 367.903C627.975 367.917 626.627 368.73 625.093 369.713ZM250.375 378.308C241.382 379.344 237.252 380.755 232.908 384.275C228.78 387.619 225.56 393.742 224.457 400.348L224.248 401.596L226.546 400.231C231.49 397.29 238.46 394.235 241.832 393.531C242.76 393.338 242.793 393.359 242.477 393.95C241.828 395.162 236.454 400.494 234.13 402.232C232.832 403.201 230.788 404.537 229.587 405.199L227.402 406.404L228.884 407.077C236.488 410.53 249.291 406.635 258.343 398.114C263.844 392.936 267.201 386.677 267.834 380.412L268.035 378.433H265.405C263.958 378.433 260.216 378.379 257.087 378.312C253.96 378.245 250.94 378.243 250.375 378.308ZM745.262 378.36L740.473 378.448L740.668 380.274C741.287 386.053 743.96 391.543 748.6 396.559C752.375 400.638 759.009 404.937 764.327 406.747C770.236 408.759 776.289 408.841 779.92 406.957L781.078 406.357L779.776 405.695C775.769 403.665 769 398 766.638 394.706L765.643 393.32L766.638 393.527C770.301 394.287 776.443 396.944 781.506 399.962L784.249 401.596L784.044 400.215C783.677 397.759 782.426 393.882 781.231 391.48C777.359 383.693 770.227 379.448 759.376 378.464C757.414 378.287 754.513 378.17 752.928 378.205C751.347 378.242 747.898 378.311 745.262 378.36ZM427.538 394.484C424.612 403.492 423.443 407.539 421.628 414.933C417.7 430.935 415.133 448.093 414.272 464.112L414.071 467.85L457.766 467.85H501.456L501.456 435.04V402.231L499.187 402.04C476.193 400.128 455.844 395.738 435.137 388.223C432.74 387.353 430.623 386.642 430.432 386.642C430.234 386.642 428.977 390.051 427.538 394.484ZM581.15 390.923C579.211 391.768 569.253 394.787 563.995 396.124C548.486 400.065 534.362 402.009 518.523 402.383L510.833 402.564V435.206L510.833 467.85H554.19L597.547 467.85L597.389 465.578C595.539 439.083 591.996 420.173 584.451 396.537C583.382 393.191 582.433 390.459 582.34 390.464C582.252 390.471 581.713 390.678 581.15 390.923ZM829.01 414.693C826.513 416.177 822.868 418.341 820.911 419.501C808.224 427.031 801.129 435.453 799.246 445.228C798.707 448.014 798.716 453.996 799.26 456.834C799.842 459.884 800.901 463.746 801.157 463.746C801.269 463.746 802.073 462.465 802.938 460.901C806.253 454.892 811.859 447.125 814.956 444.249L815.904 443.37L815.699 444.983C815.025 450.38 812.166 458.359 808.828 464.157C808.001 465.594 807.382 466.828 807.457 466.898C807.526 466.973 808.614 466.823 809.874 466.571C815.713 465.394 821.804 460.706 827.164 453.268C829.433 450.117 832.971 443.163 834.207 439.413C837.006 430.918 837.345 422.463 835.142 415.865C833.673 411.454 834.268 411.568 829.01 414.693ZM174.101 413.855C173.68 414.793 173.045 416.739 172.689 418.179C171.763 421.933 171.758 428.561 172.68 433.176C175.369 446.644 184.433 460.134 194.009 464.924C196.196 466.017 200.674 467.253 201.058 466.87C201.146 466.786 200.735 465.915 200.144 464.941C198.334 461.961 196.007 456.751 194.763 452.898C193.613 449.332 192.511 444.399 192.725 443.76C192.878 443.299 196.498 447.289 199.142 450.838C201.175 453.564 206.37 461.883 206.882 463.233C207.227 464.14 207.502 463.79 208.145 461.62C209.339 457.592 209.716 454.955 209.712 450.699C209.707 446.071 209.029 442.724 207.342 439.002C203.676 430.912 196.929 424.762 182.843 416.675C180.105 415.102 177.313 413.44 176.638 412.981C175.965 412.523 175.29 412.148 175.14 412.148C174.99 412.148 174.522 412.916 174.101 413.855ZM255.345 433.062C255.271 433.133 252.507 433.345 249.203 433.533C235.129 434.338 228.2 436.104 222.103 440.437C216.233 444.61 212.276 452.104 211.517 460.486L211.32 462.669L213.049 461.41C216.12 459.175 220.394 456.46 223.227 454.945C226.208 453.353 230.746 451.569 230.746 451.991C230.746 452.438 227.538 456.761 225.561 458.977C223.541 461.242 219.284 464.948 216.947 466.478C216.162 466.991 215.52 467.5 215.516 467.607C215.514 467.714 216.202 468.046 217.049 468.34C219.533 469.207 225.412 469.049 228.812 468.027C243.949 463.468 256.453 449.091 256.882 435.748C256.967 433.116 256.966 433.109 256.224 433.022C255.815 432.975 255.419 432.993 255.345 433.062ZM751.663 435.53C751.663 443.363 756.596 452.691 764.211 459.256C772.44 466.35 782.663 470.15 789.762 468.75C791.622 468.382 792.984 467.887 792.961 467.584C792.952 467.486 792.012 466.749 790.869 465.944C787.777 463.762 784.281 460.595 782.096 457.993C780.023 455.524 777.74 452.368 777.74 451.976C777.74 451.592 781.752 453.138 784.793 454.692C787.466 456.057 793.151 459.659 795.829 461.682L797.075 462.623V461.464C797.075 459.585 796.262 455.47 795.36 452.791C791.803 442.203 783.007 436.116 768.656 434.318C766.643 434.066 762.551 433.72 759.571 433.55C756.591 433.381 753.593 433.164 752.909 433.069L751.663 432.896V435.53ZM302.066 480.824C302.394 486.997 302.822 492.152 303.423 497.168C304.008 502.048 305.634 512.065 305.994 513.007C306.168 513.464 306.617 513.352 310.29 511.925C316.161 509.648 328.984 505.365 335.485 503.508C340.782 502.001 341.048 501.889 340.978 501.231C340.376 495.707 339.977 490.09 339.856 485.439C339.775 482.294 339.639 479.164 339.556 478.478L339.404 477.232L320.64 477.232H301.875L302.066 480.824ZM348.817 480.381C348.818 485.373 349.779 499.085 350.154 499.477C350.214 499.542 353.135 498.978 356.645 498.231C371.057 495.161 385.114 493.076 398.829 491.975L405.123 491.466L404.952 490.431C404.859 489.862 404.78 486.661 404.779 483.316L404.775 477.232L376.796 477.232H348.816L348.817 480.381ZM413.86 480.824C413.86 482.798 413.944 485.868 414.046 487.65L414.233 490.883L425.985 490.902C449.798 490.944 468.903 492.903 494.05 497.891C497.741 498.619 500.917 499.22 501.107 499.22C501.372 499.22 501.456 496.57 501.456 488.224V477.232H457.657L413.857 477.232L413.86 480.824ZM510.833 489.082V500.937L510.21 501.031C509.866 501.082 512.73 501.838 516.579 502.715C520.429 503.587 533.07 506.657 544.674 509.54C569.007 515.587 578.314 517.77 586.715 519.403C595.176 521.046 594.428 521.055 594.683 519.301C595.404 514.439 596.422 505.649 596.813 500.979C597.213 496.174 597.826 482.961 597.84 478.772L597.849 477.232L554.339 477.232H510.833V489.082ZM606.841 485.219C606.571 496.678 605.567 508.719 604.051 518.671C603.684 521.06 603.614 522.179 603.833 522.249C604.958 522.627 614.67 523.327 620.7 523.467C630.769 523.696 637.524 523.136 646.609 521.321C651.551 520.332 661.425 517.43 661.425 516.963C661.425 516.912 661.681 515.363 661.997 513.525C662.69 509.475 663.629 502.094 664.061 497.312C664.452 493.02 664.907 479.849 664.721 478.333L664.582 477.232H635.804L607.022 477.232L606.841 485.219ZM674.02 481.702C674.015 489.344 673.169 500.802 672.002 508.967C671.723 510.945 671.63 512.41 671.788 512.41C672.588 512.41 680.742 507.586 686.037 503.984C694.75 498.054 707.423 487.058 714.127 479.616L716.275 477.232H695.149L674.024 477.232L674.02 481.702ZM164.831 478.538C163.726 481.445 163.52 483.017 163.517 488.518C163.515 493.613 163.583 494.359 164.309 497.228C167.789 511.005 177.513 523.947 188.48 529.401C189.731 530.027 191.475 530.745 192.356 531.006C194.15 531.529 198.812 531.972 198.812 531.618C198.812 531.492 197.973 530.251 196.949 528.86C192.732 523.145 189.469 516.618 187.732 510.427C187.08 508.104 187.087 508.099 189.138 509.746C193.12 512.937 197.837 518.102 202.37 524.227L204.932 527.694L205.226 526.574C205.894 524.036 206.204 520.033 206.051 515.928C205.855 510.73 205.056 507.525 202.921 503.368C198.3 494.368 190.259 488.457 172.767 481.198C169.802 479.966 166.867 478.697 166.245 478.38L165.11 477.801L164.831 478.538ZM841.901 478.543C841.176 478.912 838.14 480.227 835.16 481.464C821.501 487.118 813.868 491.966 809.07 498.035C804.407 503.928 802.347 509.965 802.347 517.747C802.347 520.565 803.049 526.514 803.472 527.265C803.598 527.489 804.621 526.341 806.201 524.195C811.004 517.682 816.243 512.046 820.181 509.144C821.432 508.225 821.46 508.22 821.246 508.915C818.628 517.528 815.527 523.803 810.948 529.761C810.246 530.675 809.674 531.52 809.674 531.636C809.674 532.093 814.691 531.468 816.894 530.736C821.32 529.266 826.629 525.664 830.772 521.316C840.609 510.996 846.234 496.962 845.123 485.509C844.849 482.663 843.928 478.548 843.464 478.1C843.329 477.974 842.627 478.17 841.901 478.543ZM251.545 480.47C251.305 480.624 248.142 481.725 244.515 482.915C236.812 485.439 233.407 486.754 229.561 488.676C221.69 492.614 216.556 497.48 213.475 503.928C211.723 507.595 211.091 510.376 210.905 515.223C210.745 519.352 210.987 523.845 211.368 523.845C211.48 523.845 213.018 522.175 214.785 520.136C218.691 515.634 222.04 512.442 225.859 509.582C228.455 507.637 229.281 507.152 229.281 507.567C229.281 507.642 228.886 508.701 228.402 509.918C226.039 515.872 222.648 521.405 218.406 526.229C216.462 528.445 216.505 528.529 219.612 528.529C225.174 528.524 232.372 524.96 238.388 519.231C249.363 508.78 254.969 494.746 252.873 482.98C252.422 480.456 252.206 480.045 251.545 480.47ZM756.219 480.433C756.136 480.563 755.852 481.911 755.587 483.423C754.736 488.289 755.42 494.62 757.382 500.098C758.535 503.321 761.361 508.64 763.611 511.827C766.285 515.61 771.905 521.204 775.318 523.476C780.209 526.737 785.034 528.534 788.87 528.529C792.036 528.524 792.036 528.524 789.469 525.473C785.564 520.822 782.356 515.568 780.422 510.651C778.907 506.802 778.888 506.9 780.948 508.299C785.206 511.192 790.641 516.333 795.206 521.792C796.285 523.084 797.21 524.101 797.257 524.055C797.303 524.003 797.466 522.422 797.619 520.532C798.949 503.853 791.324 493.244 772.756 485.947C770.906 485.219 767.047 483.88 764.183 482.966C761.324 482.056 758.395 481.058 757.675 480.75C756.954 480.442 756.298 480.297 756.219 480.433ZM718.116 501.045C706.684 513.851 687.274 527.442 667.432 536.54C644.796 546.92 620.63 553.256 600.843 554.003C585.869 554.567 575.348 553.345 546.868 547.746C516.956 541.868 500.289 539.74 476.7 538.802C459.129 538.103 445.9 538.672 431.876 540.739C394.215 546.286 358.552 563.31 331.453 588.686L328.006 591.91L330.262 595.185C341.448 611.416 356.088 627.437 370.474 639.19C372.26 640.65 372.649 640.86 372.867 640.468C373.364 639.577 377.925 633.619 380.116 630.997C383.272 627.223 393.468 617.112 397.597 613.669C409.792 603.494 421.242 596.104 435.978 588.896C454.973 579.597 471.935 574.465 491.609 572.063C502.172 570.775 504.343 570.7 539.397 570.453C558.091 570.322 574.176 570.136 575.143 570.042C576.11 569.954 579.142 569.735 581.88 569.562C605.088 568.092 628.017 563.716 647.706 556.998C673.429 548.217 698.148 533.988 715.224 518.12L718.19 515.368L718.799 512.055C719.134 510.236 719.678 506.835 720.013 504.497C720.835 498.698 720.919 498.045 720.831 498.068C720.789 498.082 719.566 499.421 718.116 501.045ZM252.697 528.716C252.306 529.14 249.614 531.426 246.713 533.801C235.389 543.071 230.532 548.404 227.073 555.36C224.698 560.138 223.928 563.375 223.903 568.699C223.878 574.307 224.764 578.226 227.304 583.726L228.492 586.297L230.447 581.384C231.524 578.678 233.227 574.82 234.234 572.804C235.99 569.287 239.48 563.674 240.177 563.24C240.753 562.886 240.222 570.458 239.385 574.521C238.599 578.338 237.007 583.596 235.832 586.26C235.448 587.132 235.199 587.911 235.281 587.995C235.539 588.252 237.852 587.445 239.828 586.404C244.897 583.74 249.561 578.235 253.469 570.313C259.354 558.374 260.75 544.877 257.152 534.706C256.371 532.495 253.979 527.95 253.596 527.95C253.493 527.95 253.087 528.296 252.697 528.716ZM753.825 529.593C747.54 539.409 748.023 555.794 755.025 570.322C755.88 572.1 757.41 574.806 758.418 576.332C760.692 579.765 765.415 584.533 768.07 586.078C769.948 587.165 772.91 588.289 773.184 588.014C773.263 587.935 772.784 586.493 772.119 584.809C769.846 579.009 768.07 570.313 768.07 564.962V562.718L769.334 564.463C772.514 568.839 775.202 574.045 778.177 581.599C779.097 583.936 779.902 585.905 779.962 585.97C780.204 586.222 782.719 580.442 783.412 578.048C786.224 568.316 784.62 559.195 778.567 550.471C774.923 545.217 770.455 540.781 761.622 533.652C759.288 531.767 756.824 529.695 756.154 529.047L754.927 527.871L753.825 529.593ZM169.513 560.259C169.513 562.074 170.116 566.193 170.705 568.405C171.581 571.699 174.445 577.311 176.942 580.624C179.243 583.675 183.408 587.879 186.414 590.183C195.554 597.186 206.642 600.685 214.485 599.043C216.541 598.614 218.747 597.788 218.72 597.457C218.711 597.364 217.578 596.57 216.202 595.698C212.735 593.505 209.698 590.981 206.428 587.575C202.888 583.89 199.652 579.653 200.605 579.957C200.827 580.031 201.932 580.381 203.059 580.736C207.788 582.238 213.847 585.364 220.15 589.553C221.814 590.659 223.209 591.564 223.249 591.564C223.416 591.564 222.766 587.431 222.257 585.266C218.852 570.738 209.358 562.872 192.512 560.632C190.517 560.366 184.907 560.049 179.539 559.9C174.338 559.755 169.954 559.554 169.798 559.461C169.635 559.358 169.513 559.704 169.513 560.259ZM827.104 559.928C822.915 560.044 817.973 560.352 816.118 560.609C800.506 562.76 791.371 569.464 787.233 581.799C786.42 584.216 785.355 589.264 785.355 590.687V591.546L789.218 589.017C795.165 585.126 802.04 581.701 806.699 580.321L808.266 579.854L807.759 580.652C804.439 585.91 798.079 592.082 791.808 596.132L789.618 597.545L790.873 598.091C796.745 600.657 805.034 599.617 813.919 595.208C818.721 592.824 822.403 590.207 826.467 586.292C834.198 578.846 838.178 571.078 838.866 562.088L839.056 559.61L836.89 559.662C835.695 559.685 831.292 559.806 827.104 559.928ZM698.78 565.232C680.398 577.88 656.395 587.855 630.514 593.598C614.358 597.186 600.75 599.15 568.402 602.561C534.102 606.177 521.996 608.033 505.203 612.251C470.135 621.059 444.715 636.017 426.685 658.463C424.351 661.365 419.132 668.871 419.132 669.319C419.132 669.842 429.995 674.302 437.802 676.98C451.187 681.58 467.741 685.364 481.335 686.936L484.803 687.337L486.128 684.687C497.267 662.494 525.445 642.474 564.158 629.247C574.116 625.846 583.186 623.355 595.65 620.598C607.492 617.98 616.088 615.596 628.612 611.453C647.334 605.258 669.222 596.132 687.014 587.109C690.77 585.201 691.133 584.944 692.025 583.544C695.294 578.422 703.49 562.461 702.793 562.578C702.681 562.592 700.872 563.791 698.78 565.232ZM270.355 575.991C270.193 576.453 268.548 579.523 266.698 582.807C257.109 599.846 254.493 607.553 254.839 617.752C255.011 622.846 255.684 625.697 257.704 629.868C259.41 633.386 261.754 636.572 265.002 639.787L267.368 642.124V637.995C267.368 630.558 268.126 623.625 269.604 617.56C270.121 615.442 270.463 614.514 270.634 614.775C271.04 615.396 272.585 620.523 273.093 622.935C273.971 627.106 274.388 631.305 274.394 636.054C274.397 639.33 274.5 640.818 274.722 640.818C274.901 640.818 275.934 639.927 277.019 638.84C282.412 633.432 285.635 623.966 286.034 612.363C286.58 596.496 281.525 582.947 272.546 576.21C271.769 575.627 271.023 575.146 270.89 575.146C270.758 575.146 270.516 575.529 270.355 575.991ZM735.057 576.98C724.787 585.289 720.008 604.058 723.574 622.058C725.062 629.546 728.59 636.628 732.393 639.74C733.114 640.333 733.788 640.818 733.895 640.818C733.997 640.818 734.085 638.872 734.085 636.493C734.085 629.616 735.001 623.514 736.935 617.514L737.977 614.285L738.358 615.382C739.776 619.464 740.822 627.218 741.068 635.508L741.263 642.068L743.644 639.703C751.329 632.061 754.56 623.541 753.672 613.245C752.984 605.187 749.827 596.902 742.57 584.09C740.924 581.188 739.171 577.988 738.674 576.98C738.176 575.972 737.665 575.146 737.544 575.146C737.423 575.146 736.303 575.972 735.057 576.98ZM301.506 629.163C301.438 629.369 301.23 630.124 301.045 630.852C300.858 631.575 299.727 635.271 298.528 639.059C294.769 650.942 293.425 656.881 292.841 664.201C291.887 676.159 295.251 686.138 302.625 693.216C305.174 695.661 307.776 697.62 310.509 699.15C312.473 700.251 312.428 700.363 311.614 696.407C310.04 688.751 309.099 679.009 309.424 673.728C309.536 671.913 309.711 670.43 309.812 670.43C310.085 670.43 312.578 674.885 313.945 677.81C314.6 679.215 315.717 682.117 316.427 684.263C317.536 687.603 318.056 689.689 319.48 696.519L319.694 697.545L321.073 695.679C324.855 690.561 326.551 684.02 326.549 674.577C326.543 654.399 317.34 635.882 304.234 629.677C302.194 628.711 301.689 628.618 301.506 629.163ZM704.578 629.527C700.077 631.575 695.043 636.059 691.658 641.037C689.589 644.079 686.493 650.331 685.317 653.835C683.155 660.292 682.22 665.703 682.016 672.921C681.788 681.151 682.825 687.179 685.335 692.208C686.353 694.252 688.613 697.559 688.831 697.335C688.892 697.275 689.278 695.507 689.687 693.402C691.272 685.261 694.341 677.143 697.92 671.601L698.771 670.28L698.966 671.895C699.613 677.232 698.869 686.269 696.986 696.038C696.581 698.115 696.316 699.869 696.386 699.943C696.577 700.13 700.319 697.844 702.528 696.188C705.28 694.126 709.218 689.847 710.928 687.071C714.796 680.778 716.433 672.818 715.675 663.968C715.061 656.797 713.457 649.822 709.775 638.326C708.641 634.781 707.548 631.184 707.353 630.339C706.939 628.566 706.791 628.52 704.578 629.527ZM219.612 631.02C217.921 631.244 212.712 632.163 208.04 633.068C203.367 633.974 199.247 634.771 198.884 634.841C198.05 635 198.041 635.616 198.83 638.48C202.279 650.984 214.911 662.246 230.53 666.744C238.664 669.081 247.623 669.095 253.327 666.777C255.441 665.918 258.437 664.001 258.105 663.721C257.963 663.599 256.659 663.063 255.209 662.526C251.416 661.127 246.831 658.761 243.319 656.396C240.177 654.282 235.141 650.093 235.141 649.598C235.141 649.234 235.558 649.253 239.283 649.748C245.468 650.569 252.263 652.565 261.304 656.219C261.762 656.401 261.806 656.321 261.633 655.589C261.251 653.965 258.838 648.339 257.638 646.272C252.38 637.23 245.061 632.313 234.711 630.871C231.657 630.446 223.376 630.526 219.612 631.02ZM773.602 630.871C762.761 632.467 754.941 638.168 749.911 648.147C748.544 650.863 746.554 656.032 746.782 656.265C746.847 656.326 747.939 655.967 749.209 655.458C758.014 651.95 765.197 650.037 771.733 649.472L773.784 649.29L771.877 651.11C766.861 655.897 758.479 660.949 752.249 662.946C751.361 663.231 750.538 663.557 750.413 663.665C749.855 664.173 754.834 666.874 757.698 667.612C766.508 669.893 778.326 667.92 788.577 662.461C793.235 659.979 796.41 657.627 800.167 653.876C805.685 648.362 808.754 643.081 810.088 636.796L810.479 634.967L809.414 634.79C808.833 634.692 804.728 633.904 800.297 633.036C795.867 632.168 790.595 631.254 788.586 631.006C784.713 630.53 776.429 630.456 773.602 630.871ZM345.166 682.187C344.903 697.046 345.278 703.013 346.953 710.571C350.091 724.722 357.64 733.88 369.634 738.093C372.014 738.928 377.528 740.277 377.528 740.025C377.528 739.955 376.35 737.547 374.907 734.664C371.834 728.52 370.063 724.451 368.629 720.238C367.389 716.599 366.031 711.323 366.16 710.655C366.307 709.89 372.94 716.693 375.821 720.56C378.626 724.325 382.059 729.933 383.292 732.765C383.739 733.792 384.197 734.631 384.311 734.631C384.592 734.631 385.663 731.715 386.242 729.369C386.908 726.672 386.902 718.708 386.23 715.139C384.246 704.59 379.586 694.443 372.83 685.966C365.735 677.059 356.093 671.12 347.755 670.518L345.374 670.346L345.166 682.187ZM657.911 670.882C645.809 673.481 633.801 684.944 626.864 700.517C622.127 711.155 620.555 721.647 622.471 729.872C622.782 731.202 623.312 732.84 623.656 733.512L624.279 734.729L626.232 730.941C628.659 726.247 630.714 723.028 633.717 719.24C635.962 716.403 641.058 711.145 642.104 710.585C642.592 710.324 642.597 710.413 642.201 712.134C640.458 719.711 637.194 728.109 632.699 736.609C631.741 738.42 630.955 739.959 630.955 740.025C630.955 740.244 636.046 739.045 638.426 738.266C649.51 734.641 657.357 726.028 660.821 713.679C662.987 705.971 663.568 699.048 663.429 682.672L663.331 670.43L661.574 670.453C660.602 670.467 658.957 670.658 657.911 670.882ZM274.546 689.203C266.856 689.847 261.02 691.634 246.86 697.685C242.429 699.58 238.303 701.292 237.693 701.492C236.345 701.926 236.343 701.917 238.554 706.195C241.371 711.644 245.56 716.175 251.297 719.972C268.485 731.356 294.755 731.655 305.58 720.593C307.17 718.965 307.168 718.96 304.576 718.661C299.142 718.036 291.383 715.703 286.004 713.086C282.835 711.542 278.909 709.204 279.126 708.99C279.498 708.621 284.703 708.234 289.195 708.234C294.591 708.239 299.407 708.682 305.565 709.732C307.477 710.058 309.09 710.277 309.148 710.221C309.329 710.04 306.745 705.691 304.969 703.195C302.783 700.121 298.842 696.188 296.136 694.373C293.316 692.488 289.718 690.836 286.823 690.099C284.841 689.595 278.482 688.807 277.475 688.942C277.315 688.966 275.997 689.082 274.546 689.203ZM728.223 689.092C716.419 689.931 707.6 695.838 700.817 707.446C699.952 708.924 699.292 710.175 699.343 710.231C699.399 710.282 701.007 710.058 702.918 709.732C709.073 708.682 713.894 708.239 719.287 708.234C723.774 708.234 728.985 708.621 729.357 708.99C729.576 709.209 725.61 711.584 722.458 713.119C717.177 715.694 709.334 718.036 703.908 718.661C701.333 718.96 701.323 718.974 702.755 720.448C708.748 726.602 720.213 729.705 732.37 728.459C741.984 727.474 750.324 724.568 757.698 719.632C763.286 715.895 768.321 710.212 770.669 704.991C772.119 701.758 772.161 701.973 769.906 701.133C768.818 700.723 764.867 699.066 761.133 697.443C750.283 692.735 743.858 690.612 737.6 689.665C734.555 689.203 730.292 688.942 728.223 689.092ZM406.593 701.422C405.851 701.516 405.662 701.656 405.776 702.038C406.147 703.261 406.616 705.822 407.863 713.427C410.044 726.719 411.599 733.045 414.341 739.763C417.381 747.214 421.564 753.018 426.727 756.942C429.434 758.999 433.991 761.173 437.423 762.046C440.506 762.829 448.059 763.595 449.395 763.259L450.183 763.058L447.913 760.207C442.697 753.652 438.625 747.531 435.992 742.283C434.542 739.395 433.401 736.675 433.57 736.507C433.754 736.32 439.333 739.847 441.345 741.42C446.113 745.143 450.674 749.78 454.07 754.348C454.88 755.435 455.641 756.326 455.764 756.326C456.151 756.326 456.632 752.719 456.632 749.817C456.632 735.672 445.593 717.453 431.139 707.749C426.718 704.782 421.434 702.495 417.077 701.67C414.846 701.245 409.127 701.11 406.593 701.422ZM591.401 701.632C584.088 703.153 576.557 707.45 569.788 713.949C561.345 722.062 555.334 732.056 552.809 742.189C552.14 744.886 552.024 745.959 552.019 749.729C552.014 752.444 552.154 754.604 552.382 755.379L552.754 756.624L554.469 754.348C559.555 747.597 565.808 741.891 572.652 737.748C573.86 737.015 574.888 736.53 574.939 736.665C575.06 737.011 572.931 741.676 571.303 744.634C568.719 749.323 564.232 755.831 560.16 760.786L558.3 763.044L559.351 763.24C559.927 763.347 562.163 763.287 564.321 763.1C573.089 762.344 579.025 759.797 584.683 754.362C591.22 748.082 595.506 739.077 598.547 725.249C598.956 723.397 599.895 718.185 600.63 713.669C601.369 709.158 602.168 704.618 602.41 703.587C602.647 702.556 602.764 701.637 602.675 701.544C602.303 701.17 593.27 701.24 591.401 701.632ZM335.784 734.958C327.077 736.227 318.672 740.076 303.844 749.584C300.138 751.959 296.349 754.329 295.425 754.847C293.493 755.934 293.468 755.663 295.8 759.111C301.914 768.153 313.046 774.335 326.412 776.117C330.179 776.616 338.249 776.686 341.793 776.247C349.492 775.296 356.398 772.949 361.707 769.478C363.906 768.041 368.038 764.019 368.965 762.41L369.598 761.313H364.947C359.363 761.313 354.393 760.711 349.256 759.414C345.029 758.351 338.959 756.097 339.341 755.738C339.687 755.407 343.226 754.348 346.201 753.685C350.969 752.621 355.331 752.187 362.953 752.015C367.102 751.926 370.497 751.749 370.497 751.628C370.497 751.161 366.666 746.71 364.307 744.433C358.871 739.185 353.291 736.199 346.801 735.06C344.153 734.599 338.615 734.547 335.784 734.958ZM661.379 735.089C655.326 736.185 649.463 739.376 644.177 744.447C641.848 746.678 637.985 751.203 637.985 751.698C637.985 751.824 640.458 751.931 643.48 751.931C649.654 751.931 654.061 752.262 659.226 753.116C662.969 753.732 669.333 755.397 669.333 755.761C669.333 756.051 665.675 757.548 662.625 758.505C656.623 760.385 650.328 761.313 643.522 761.313H638.826L640.077 763.091C644.796 769.828 654.796 774.768 666.693 776.247C670.375 776.705 678.469 776.625 682.272 776.098C692.555 774.661 701.514 770.695 707.879 764.761C710.185 762.61 713.146 758.906 714.178 756.876L714.741 755.78L713.058 754.823C712.132 754.296 708.674 752.131 705.373 750.013C694.592 743.104 689.994 740.566 683.69 738.056C675.87 734.944 667.99 733.894 661.379 735.089ZM500.433 749.323C497.886 749.691 494.919 750.648 492.39 751.922C475.356 760.492 472.967 784.062 487.923 795.954C495.682 802.122 506.542 803.377 515.45 799.132C519.787 797.069 523.158 794.247 525.701 790.556C529.081 785.644 530.461 781.235 530.461 775.356C530.461 770.453 529.374 766.347 526.919 761.994C525.185 758.924 520.908 754.627 517.718 752.747C512.604 749.738 506.268 748.483 500.433 749.323ZM414.496 765.269C409.479 766.179 403.296 768.876 397.839 772.529C392.268 776.261 388.112 779.807 379.725 787.995C376.826 790.827 373.61 793.888 372.582 794.807L370.714 796.468L373.178 798.908C378.702 804.371 386.253 807.884 395.092 809.097C398.577 809.573 406.379 809.498 410.301 808.948C421.54 807.371 432.886 802.281 439.586 795.805C441.449 794.009 443.845 790.766 445.037 788.429C446.152 786.241 446.333 785.485 445.68 785.737C444.781 786.082 438.447 787.398 435.978 787.752C432.039 788.317 422.598 788.219 418.985 787.57C415.116 786.88 414.974 786.782 416.538 785.872C422.864 782.191 433.178 778.669 443.841 776.551L445.553 776.21L444.866 775.473C443.47 773.966 438.06 770.14 435.242 768.666C429.922 765.881 425.652 764.812 420.051 764.854C418.175 764.868 415.675 765.055 414.496 765.269ZM582.029 765.405C576.115 766.669 569.755 770.052 564.451 774.759L562.837 776.191L564.595 776.532C568.746 777.344 576.115 779.303 580.039 780.642C586.589 782.877 593.712 786.339 592.801 786.847C591.545 787.552 586.329 788.093 580.708 788.107C574.437 788.121 570.978 787.734 565.478 786.399C563.865 786.008 562.498 785.737 562.438 785.798C562.377 785.858 562.731 786.763 563.219 787.808C568.114 798.282 581.978 806.662 598.184 808.948C602.094 809.498 609.83 809.578 613.391 809.102C622.685 807.861 631.104 803.769 636.311 797.965L637.71 796.407L635.432 794.331C634.177 793.188 630.779 789.941 627.878 787.113C624.977 784.281 621.55 781.043 620.263 779.919C610.699 771.559 601.917 766.678 593.907 765.279C590.448 764.672 585.172 764.728 582.029 765.405ZM320.25 859.988C319.607 860.053 317.563 860.249 315.71 860.427C291.163 862.769 275.038 873.047 269.572 889.838C267.411 896.481 267.515 894.009 267.515 938.825V978.986L268.193 982.065C270.012 990.328 273.046 996.201 278.179 1001.41C286.545 1009.89 298.301 1014.67 315.856 1016.72C320.194 1017.23 338.472 1017.23 342.81 1016.72C363.514 1014.3 377.064 1007.69 384.725 996.248C387.394 992.268 389.154 987.962 390.463 982.214L391.129 979.28L391.231 940.29C391.305 912.228 391.239 900.517 390.997 898.511C389.828 888.811 386.4 881.51 380.049 875.193C372.057 867.243 360.767 862.596 344.422 860.534C340.951 860.095 323.26 859.699 320.25 859.988ZM419.717 869.781L419.717 876.816L426.529 876.826L433.341 876.835L443.192 889.945C448.61 897.158 459.32 911.392 466.993 921.582L480.94 940.108L457.17 970.103L433.398 1000.1L425.972 1000.18L418.545 1000.25V1007.14V1014.02L448.869 1014.02H479.192V1007.13V1000.24H469.67C464.433 1000.24 460.148 1000.17 460.148 1000.08C460.148 999.957 492.8 958.178 493.548 957.347C493.664 957.217 501.177 966.781 510.243 978.603L526.719 1000.1L516.138 1000.17L505.561 1000.25V1007.14V1014.02H537.495L569.43 1014.02V1007.13V1000.24L562.763 1000.23L556.096 1000.22L536.324 974.264C525.445 959.988 514.808 946.02 512.679 943.23L508.811 938.154L532.902 907.557L556.994 876.966L563.651 876.886L570.308 876.807V869.776V862.745H541.303L512.298 862.745V869.781V876.812L521.182 876.886L530.066 876.966L513.548 898.366C504.464 910.137 496.802 920.075 496.519 920.453L496.007 921.143L479.396 898.982L462.784 876.816H472.743H482.706L482.706 869.781V862.745H451.213L419.717 862.745V869.781ZM594.33 869.781V876.816H605.46H616.585L616.678 929.368C616.776 981.515 616.78 981.939 617.389 984.715C619.142 992.66 622.266 998.408 627.562 1003.42C635.614 1011.03 648.031 1015.55 664.796 1016.94C669.319 1017.32 680.486 1017.32 685.01 1016.94C710.459 1014.82 726.08 1005.36 731.249 988.919C733.151 982.881 733.03 986.637 733.132 929.075L733.221 876.816H744.053H754.885V869.781V862.745H718.85H682.811V869.781V876.816H693.806H704.801L704.708 928.93C704.62 980.614 704.615 981.062 704.006 983.679C701.574 994.149 695.359 999.327 683.048 1001.16C679.877 1001.63 669.561 1001.63 666.553 1001.16C655.818 999.477 649.496 995.142 646.618 987.482C644.786 982.611 644.912 986.689 644.81 929.224L644.712 876.816H655.558L666.404 876.816V869.781V862.745L630.37 862.745H594.33V869.781ZM323.24 875.356C317.12 875.907 312.717 877.092 308.255 879.387C304.518 881.309 301.147 884.687 299.217 888.443C297.697 891.405 296.558 895.282 296.091 899.089C295.659 902.621 295.677 974.563 296.112 978.109C296.606 982.144 297.393 984.85 299.05 988.214C300.324 990.799 300.941 991.662 302.96 993.682C305.046 995.768 305.791 996.29 308.702 997.708C314.531 1000.55 319.882 1001.54 329.334 1001.53C338.614 1001.52 344.329 1000.47 349.842 997.746C357.262 994.083 361.361 987.715 362.57 977.969C362.989 974.6 362.995 902.528 362.578 899.089C362.098 895.152 361.229 892.152 359.606 888.839C358.312 886.203 357.74 885.406 355.562 883.231C353.318 880.983 352.644 880.507 349.677 879.07C345.934 877.255 343.298 876.448 338.99 875.795C335.351 875.244 327.045 875.016 323.24 875.356ZM260.337 1029.12V1033.08L504.241 1033.08L748.149 1033.08V1029.12V1025.16L504.241 1025.16L260.337 1025.16V1029.12ZM379.801 1048.49C374.139 1049.86 370.963 1054.43 372.357 1059.2C373.332 1062.53 375.708 1064.13 381.962 1065.65C386.061 1066.65 387.382 1067.28 387.661 1068.4C388.39 1071.3 381.279 1071.77 376.109 1069.16C375.126 1068.67 374.271 1068.26 374.21 1068.26C374.147 1068.26 373.535 1069.53 372.85 1071.09L371.603 1073.92L372.295 1074.46C373.205 1075.16 376.869 1076.36 379.397 1076.78C382.441 1077.3 386.92 1076.99 389.319 1076.1C393.359 1074.6 395.405 1071.91 395.393 1068.13C395.386 1065.61 394.77 1064.1 393.19 1062.72C391.647 1061.36 390.179 1060.76 385.512 1059.59C381.15 1058.49 380.267 1058.07 379.991 1056.96C379.319 1054.29 384.671 1053.27 389.287 1055.21C390.313 1055.64 391.349 1056.05 391.591 1056.12C391.915 1056.23 392.331 1055.52 393.173 1053.45C394.462 1050.27 394.456 1050.24 392.216 1049.38C388.782 1048.05 383.229 1047.65 379.801 1048.49ZM454.058 1048.48C447.369 1050.28 443.156 1055.72 443.156 1062.54C443.156 1070.99 449.514 1077.05 458.391 1077.05C462.687 1077.05 466.267 1075.78 468.978 1073.28L470.47 1071.91L467.946 1069.62L465.417 1067.32L464.337 1068.27C462.65 1069.75 460.881 1070.42 458.684 1070.4C456.494 1070.39 455.127 1069.89 453.628 1068.57C451.933 1067.08 451.223 1065.3 451.223 1062.54C451.223 1059.78 451.933 1058 453.628 1056.51C455.127 1055.19 456.494 1054.7 458.684 1054.68C460.881 1054.66 462.65 1055.33 464.338 1056.81L465.421 1057.76L467.764 1055.65C469.057 1054.49 470.107 1053.36 470.107 1053.15C470.107 1052.58 467.551 1050.47 465.863 1049.64C462.622 1048.06 457.511 1047.55 454.058 1048.48ZM398.916 1062.54V1076.47H402.871H406.826V1062.54L406.826 1048.61H402.871H398.916L398.916 1062.54ZM412.685 1062.53V1076.47H416.489H420.293L420.371 1069.19L420.45 1061.91L426.319 1069.11L432.189 1076.32L435.475 1076.4L438.76 1076.49V1062.55L438.76 1048.61H434.957H431.153L431.075 1055.89L430.997 1063.17L425.127 1055.97L419.258 1048.76L415.973 1048.68L412.685 1048.59L412.685 1062.53ZM473.627 1062.54V1076.47H484.915H496.203L496.124 1073.46L496.04 1070.46L488.787 1070.38L481.535 1070.3V1067.81V1065.33H487.69H493.841V1062.4V1059.46H487.69H481.535V1057.12V1054.77H488.569H495.598V1051.69L495.598 1048.61H484.613H473.627L473.627 1062.54ZM544.818 1051.66C544.093 1051.86 542.972 1052.27 542.33 1052.58C541.131 1053.15 538.374 1055.68 538.374 1056.21C538.374 1056.37 539.504 1057.12 540.885 1057.87L543.395 1059.24L544.181 1058.49C546.092 1056.66 549.165 1056.37 550.378 1057.91C551.856 1059.79 551.057 1061.1 544.79 1067.1L539.546 1072.13V1074.3V1076.47H549.067H558.588V1073.68V1070.9H554.06H549.527L553 1067.45C556.822 1063.66 557.696 1062.29 557.928 1059.71C558.398 1054.56 554.618 1051.22 548.379 1051.27C547.147 1051.29 545.543 1051.45 544.818 1051.66ZM568.421 1051.72C565.283 1052.72 562.963 1055.11 561.745 1058.58C561.192 1060.17 561.08 1061.09 561.08 1064.15C561.08 1067.21 561.192 1068.13 561.745 1069.72C563.474 1074.67 567.398 1077.32 572.498 1076.99C578.663 1076.59 582.601 1071.59 582.601 1064.15C582.601 1058.47 580.234 1054.04 576.213 1052.2C574.121 1051.24 570.611 1051.02 568.421 1051.72ZM589.644 1051.66C588.919 1051.86 587.798 1052.27 587.157 1052.58C585.957 1053.15 583.2 1055.68 583.2 1056.21C583.2 1056.37 584.33 1057.12 585.711 1057.87L588.221 1059.24L589.007 1058.49C590.918 1056.66 593.991 1056.37 595.204 1057.91C596.683 1059.79 595.883 1061.1 589.616 1067.1L584.372 1072.13V1074.3V1076.47H593.893L603.414 1076.47V1073.68V1070.9L598.886 1070.9H594.353L597.826 1067.45C601.652 1063.66 602.522 1062.29 602.754 1059.71C603.224 1054.56 599.444 1051.22 593.205 1051.27C591.973 1051.29 590.369 1051.45 589.644 1051.66ZM610.448 1051.66C609.723 1051.86 608.603 1052.27 607.957 1052.58C606.757 1053.15 604 1055.68 604 1056.21C604 1056.37 605.13 1057.12 606.511 1057.87L609.021 1059.24L609.807 1058.49C611.718 1056.66 614.795 1056.37 616.004 1057.91C617.482 1059.79 616.683 1061.1 610.421 1067.1L605.172 1072.13V1074.3V1076.47H614.693H624.214V1073.68V1070.9H619.686H615.153L618.626 1067.45C622.452 1063.66 623.322 1062.29 623.559 1059.71C624.024 1054.56 620.244 1051.22 614.005 1051.27C612.773 1051.29 611.174 1051.45 610.448 1051.66ZM569.63 1057.87C568.444 1059.06 568.109 1060.44 568.109 1064.15C568.109 1067.86 568.444 1069.24 569.63 1070.43C570.206 1071.01 570.685 1071.19 571.629 1071.19C574.283 1071.19 575.436 1069.06 575.436 1064.15C575.436 1059.25 574.283 1057.12 571.629 1057.12C570.685 1057.12 570.206 1057.3 569.63 1057.87Z" fill="#18178C"/>
</g>
</g>
<defs>
<clipPath id="clip0_198_2">
<rect width="5275" height="1311" fill="white"/>
</clipPath>
</defs>
</svg>
