<svg width="862" height="231" viewBox="0 0 862 231" fill="none" xmlns="http://www.w3.org/2000/svg">
<path d="M254.995 94.8149C249.197 100.577 242.086 103.458 233.663 103.458C225.24 103.458 218.102 100.577 212.249 94.8149C206.451 88.998 203.552 81.864 203.552 73.4129C203.552 64.9619 206.451 57.8553 212.249 52.0933C218.102 46.2763 225.24 43.3678 233.663 43.3678C242.086 43.3678 249.197 46.2763 254.995 52.0933C260.848 57.8553 263.774 64.9619 263.774 73.4129C263.774 81.864 260.848 88.998 254.995 94.8149ZM222.587 84.6901C225.541 87.5986 229.233 89.0529 233.663 89.0529C238.094 89.0529 241.786 87.5986 244.739 84.6901C247.693 81.7268 249.17 77.9677 249.17 73.4129C249.17 68.8582 247.693 65.1265 244.739 62.218C241.786 59.2547 238.094 57.773 233.663 57.773C229.233 57.773 225.541 59.2547 222.587 62.218C219.633 65.1265 218.156 68.8582 218.156 73.4129C218.156 77.9677 219.633 81.7268 222.587 84.6901ZM289.594 103.458C283.522 103.458 278.49 102.168 274.497 99.5892C270.504 97.01 267.715 93.5253 266.129 89.1352L278.682 81.8091C280.815 86.9127 284.589 89.4644 290.004 89.4644C294.489 89.4644 296.732 88.1748 296.732 85.5956C296.732 83.8944 295.446 82.5225 292.875 81.4798C291.781 81.0408 289.375 80.3 285.655 79.2573C280.404 77.7208 276.247 75.5806 273.184 72.8367C270.121 70.038 268.59 66.1692 268.59 61.2303C268.59 55.9072 270.477 51.5994 274.251 48.3068C278.08 45.0141 282.838 43.3678 288.527 43.3678C293.34 43.3678 297.607 44.4928 301.326 46.7428C305.046 48.9927 307.89 52.2579 309.859 56.5383L297.552 63.782C295.747 59.5016 292.766 57.3614 288.609 57.3614C286.859 57.3614 285.519 57.7181 284.589 58.4315C283.714 59.1449 283.276 60.0504 283.276 61.148C283.276 62.4101 283.932 63.4802 285.245 64.3583C286.613 65.2363 289.238 66.2515 293.122 67.4039C295.911 68.2271 298.154 68.9953 299.849 69.7087C301.545 70.4221 303.405 71.4648 305.428 72.8367C307.452 74.1538 308.956 75.8824 309.941 78.0226C310.925 80.1079 311.418 82.5774 311.418 85.431C311.418 91.0833 309.421 95.5009 305.428 98.6838C301.436 101.867 296.157 103.458 289.594 103.458ZM317.577 44.6026L332.263 44.6026L332.263 102.223H317.577L317.577 44.6026ZM391.013 44.6026L371.65 80.0805L371.65 102.223L356.964 102.223L356.964 80.2451L337.601 44.6026L354.092 44.6026L364.266 65.9222L374.522 44.6026L391.013 44.6026ZM440.716 94.8149C434.918 100.577 427.808 103.458 419.384 103.458C410.961 103.458 403.823 100.577 397.97 94.8149C392.172 88.998 389.273 81.864 389.273 73.4129C389.273 64.9619 392.172 57.8553 397.97 52.0933C403.823 46.2763 410.961 43.3678 419.384 43.3678C427.808 43.3678 434.918 46.2763 440.716 52.0933C446.569 57.8553 449.495 64.9619 449.495 73.4129C449.495 81.864 446.569 88.998 440.716 94.8149ZM408.308 84.6901C411.262 87.5986 414.954 89.0529 419.384 89.0529C423.815 89.0529 427.507 87.5986 430.46 84.6901C433.414 81.7268 434.891 77.9677 434.891 73.4129C434.891 68.8582 433.414 65.1265 430.46 62.218C427.507 59.2547 423.815 57.773 419.384 57.773C414.954 57.773 411.262 59.2547 408.308 62.218C405.354 65.1265 403.878 68.8582 403.878 73.4129C403.878 77.9677 405.354 81.7268 408.308 84.6901ZM523.385 102.223L506.976 102.223L497.951 86.9127L488.926 102.223L472.435 102.223L489.747 72.8367L473.091 44.6026L489.582 44.6026L497.951 58.8431L506.32 44.6026L522.811 44.6026L506.156 72.919L523.385 102.223ZM564.952 102.223L562.491 93.9095L543.374 93.9095L540.913 102.223H524.996L543.949 44.6026L561.835 44.6026L580.787 102.223L564.952 102.223ZM547.148 81.2329L558.717 81.2329L552.892 61.6418L547.148 81.2329ZM600.468 87.9828L620.241 87.9828V102.223L585.782 102.223V44.6026L600.468 44.6026V87.9828ZM681.546 73.4129C681.546 80.3823 679.495 86.5285 675.392 91.8516L680.561 97.449L670.306 106.586L664.645 100.495C660.542 102.47 656.139 103.458 651.435 103.458C643.012 103.458 635.874 100.577 630.021 94.8149C624.223 88.998 621.324 81.864 621.324 73.4129C621.324 64.9619 624.223 57.8553 630.021 52.0933C635.874 46.2763 643.012 43.3678 651.435 43.3678C659.858 43.3678 666.969 46.2763 672.767 52.0933C678.62 57.8553 681.546 64.9619 681.546 73.4129ZM651.435 89.0529C652.037 89.0529 652.83 88.998 653.814 88.8882L646.102 80.5744L656.44 71.5197L665.219 80.9036C666.367 78.5988 666.942 76.1019 666.942 73.4129C666.942 68.8582 665.465 65.1265 662.511 62.218C659.558 59.2547 655.866 57.773 651.435 57.773C647.005 57.773 643.313 59.2547 640.359 62.218C637.405 65.1265 635.929 68.8582 635.929 73.4129C635.929 77.9677 637.405 81.7268 640.359 84.6901C643.313 87.5986 647.005 89.0529 651.435 89.0529ZM722.53 102.223L720.069 93.9095L700.952 93.9095L698.491 102.223L682.574 102.223L701.527 44.6026L719.413 44.6026L738.365 102.223L722.53 102.223ZM704.727 81.2329H716.295L710.47 61.6418L704.727 81.2329ZM773.308 102.223L763.299 83.62L758.048 83.62V102.223L743.362 102.223V44.6026L766.335 44.6026C772.187 44.6026 777.082 46.4958 781.021 50.2823C785.014 54.014 787.01 58.7608 787.01 64.5229C787.01 67.9801 786.135 71.163 784.385 74.0715C782.634 76.9251 780.255 79.2025 777.247 80.9036L789.061 102.223L773.308 102.223ZM758.048 58.1846V71.1081L766.17 71.1081C767.975 71.163 769.452 70.5868 770.601 69.3795C771.749 68.1722 772.324 66.6082 772.324 64.6875C772.324 62.7668 771.749 61.2028 770.601 59.9955C769.452 58.7882 767.975 58.1846 766.17 58.1846L758.048 58.1846ZM843.486 94.8149C837.688 100.577 830.578 103.458 822.154 103.458C813.731 103.458 806.593 100.577 800.74 94.8149C794.942 88.998 792.043 81.864 792.043 73.4129C792.043 64.9619 794.942 57.8553 800.74 52.0933C806.593 46.2763 813.731 43.3678 822.154 43.3678C830.578 43.3678 837.688 46.2763 843.486 52.0933C849.339 57.8553 852.265 64.9619 852.265 73.4129C852.265 81.864 849.339 88.998 843.486 94.8149ZM811.078 84.6901C814.032 87.5986 817.724 89.0529 822.154 89.0529C826.585 89.0529 830.277 87.5986 833.23 84.6901C836.184 81.7268 837.661 77.9677 837.661 73.4129C837.661 68.8582 836.184 65.1265 833.23 62.218C830.277 59.2547 826.585 57.773 822.154 57.773C817.724 57.773 814.032 59.2547 811.078 62.218C808.124 65.1265 806.648 68.8582 806.648 73.4129C806.648 77.9677 808.124 81.7268 811.078 84.6901ZM244.247 183.002C240.035 186.679 234.593 188.517 227.92 188.517C221.247 188.517 215.777 186.679 211.511 183.002C207.299 179.325 205.193 174.441 205.193 168.35L205.193 129.662H219.879L219.879 166.951C219.879 171.78 222.56 174.194 227.92 174.194C233.28 174.194 235.96 171.78 235.96 166.951L235.96 129.662L250.647 129.662L250.647 168.35C250.647 174.441 248.513 179.325 244.247 183.002ZM291.619 129.662L306.223 129.662V187.283H294.901L274.635 158.308V187.283H259.949V129.662H271.353L291.619 158.637V129.662ZM316.135 129.662H330.822V187.283H316.135V129.662ZM354.701 187.283L336.159 129.662L352.24 129.662L363.398 169.338L374.638 129.662H390.719L372.177 187.283L354.701 187.283ZM410.742 173.454L432.976 173.454V187.283L396.056 187.283V129.662L432.566 129.662V143.408L410.742 143.408V151.393L430.515 151.393V164.975L410.742 164.975V173.454ZM470.73 187.283L460.72 168.679H455.469V187.283H440.783V129.662H463.756C469.608 129.662 474.504 131.555 478.442 135.342C482.435 139.073 484.431 143.82 484.431 149.582C484.431 153.039 483.556 156.222 481.806 159.131C480.056 161.984 477.676 164.262 474.668 165.963L486.482 187.283H470.73ZM455.469 143.244V156.167H463.592C465.397 156.222 466.874 155.646 468.022 154.439C469.171 153.231 469.745 151.667 469.745 149.747C469.745 147.826 469.171 146.262 468.022 145.055C466.874 143.847 465.397 143.244 463.592 143.244H455.469ZM512.109 188.517C506.038 188.517 501.006 187.228 497.013 184.648C493.02 182.069 490.231 178.585 488.644 174.194L501.197 166.868C503.331 171.972 507.105 174.524 512.52 174.524C517.005 174.524 519.247 173.234 519.247 170.655C519.247 168.954 517.962 167.582 515.391 166.539C514.297 166.1 511.891 165.359 508.171 164.317C502.92 162.78 498.763 160.64 495.7 157.896C492.637 155.097 491.106 151.228 491.106 146.289C491.106 140.966 492.993 136.659 496.767 133.366C500.596 130.073 505.354 128.427 511.043 128.427C515.856 128.427 520.123 129.552 523.842 131.802C527.561 134.052 530.406 137.317 532.375 141.597L520.068 148.841C518.263 144.561 515.282 142.421 511.125 142.421C509.375 142.421 508.034 142.777 507.105 143.491C506.229 144.204 505.792 145.11 505.792 146.207C505.792 147.469 506.448 148.539 507.761 149.417C509.128 150.295 511.754 151.311 515.637 152.463C518.427 153.286 520.67 154.055 522.365 154.768C524.061 155.481 525.92 156.524 527.944 157.896C529.968 159.213 531.472 160.942 532.457 163.082C533.441 165.167 533.934 167.637 533.934 170.49C533.934 176.143 531.937 180.56 527.944 183.743C523.951 186.926 518.673 188.517 512.109 188.517ZM540.094 129.662L554.78 129.662L554.78 187.283L540.094 187.283L540.094 129.662ZM604.013 129.662L604.013 143.902L589.819 143.902V187.283L575.133 187.283V143.902H560.939L560.939 129.662L604.013 129.662ZM624.845 173.454L647.08 173.454V187.283L610.159 187.283L610.159 129.662L646.67 129.662L646.67 143.408L624.845 143.408V151.393H644.619V164.975H624.845V173.454ZM694.268 129.662L694.268 143.902H680.075V187.283L665.388 187.283V143.902L651.194 143.902L651.194 129.662L694.268 129.662ZM700.416 129.662L715.102 129.662L715.102 187.283H700.416L700.416 129.662Z" fill="#0025B9"/>
<mask id="mask0_2082_793" style="mask-type:luminance" maskUnits="userSpaceOnUse" x="0" y="0" width="179" height="231">
<path d="M178.02 0L0 0L0 231L178.02 231L178.02 0Z" fill="white"/>
</mask>
<g mask="url(#mask0_2082_793)">
<path fill-rule="evenodd" clip-rule="evenodd" d="M85.2788 1.98852C78.9136 5.41526 75.4211 7.10196 67.7814 10.4387C52.7035 17.0241 31.5076 25.1846 16.4187 30.2132C12.8359 31.4073 11.2503 31.9004 5.12257 33.7256C2.33601 34.5555 0.0389809 35.2499 0.0180946 35.2688C-0.032105 35.3136 1.35394 143.657 1.42611 145.328C1.95173 157.495 5.07584 168.23 10.9648 178.103C17.3677 188.84 27.2128 198.533 40.4328 207.121C48.8935 212.615 57.994 217.355 72.331 223.729C76.2348 225.466 88.9097 231 88.9819 231C89.0844 231 103.033 224.893 107.306 222.978C115.36 219.367 122.303 215.969 127.83 212.932C138.141 207.265 146.512 201.365 153.19 195.061C154.421 193.898 156.868 191.418 157.831 190.356C164.011 183.544 168.529 176.433 171.664 168.584C174.612 161.205 176.21 153.489 176.557 144.966C176.576 144.511 176.905 120.058 177.29 90.6235C177.675 61.1894 178 36.6866 178.012 36.1729C178.029 35.4333 178.02 35.2386 177.966 35.2379C177.865 35.2367 168.077 32.3107 165.983 31.6559C158.388 29.2805 145.758 24.754 134.059 20.2148C124.82 16.63 117.405 13.5902 109.845 10.2882C102.493 7.07689 99.0683 5.42275 92.959 2.13347C91.0254 1.09243 89.3371 0.186532 89.2075 0.12036L88.972 0L85.2788 1.98852ZM86.9072 8.86128C81.475 11.7886 76.2797 14.2308 67.3678 18.0468C52.6048 24.3681 33.3205 31.7432 19.1329 36.4939C15.4655 37.7219 13.6945 38.2827 9.85301 39.4328L6.88033 40.3227L6.89573 41.5043C6.90422 42.1543 7.19973 65.3968 7.55242 93.1547C7.9051 120.912 8.21934 144.239 8.25067 144.992C8.71303 156.086 11.5608 165.812 17.001 174.875C20.5296 180.754 25.2867 186.378 31.1541 191.608C34.785 194.844 39.2562 198.227 43.8855 201.24C51.262 206.042 59.4023 210.374 70.8058 215.567C75.9547 217.909 88.9187 223.584 89.0451 223.547C89.1492 223.518 99.1052 219.162 102.032 217.866C114.141 212.501 122.587 208.266 129.768 203.957C146.157 194.121 157.025 183.279 163.37 170.433C167.209 162.662 169.24 154.6 169.706 145.288C169.743 144.544 170.931 53.726 171.06 41.8385L171.075 40.3195L168.025 39.4055C164.268 38.2794 163.245 37.9586 160.167 36.9414C146.078 32.2842 125.562 24.4649 110.576 18.0399C101.538 14.1656 96.5334 11.811 91.0197 8.83949C90.1247 8.35669 89.2969 7.91372 89.1821 7.85509L88.972 7.74843L86.9072 8.86128ZM88.1509 14.6466C86.0286 15.7706 82.414 17.5311 79.0518 19.0789C65.2456 25.4342 43.2505 34.1584 25.2593 40.4155C22.4669 41.3866 16.8539 43.2454 14.8161 43.8739C13.8351 44.1764 12.9397 44.4531 12.8264 44.4889L12.6204 44.5537L12.6348 45.7119C13.2045 91.3173 13.8967 144.071 13.9368 144.941C14.4386 155.822 17.5124 165.432 23.2736 174.13C28.5436 182.087 36.1539 189.332 46.2488 196.001C54.5589 201.491 64.0376 206.415 78.9742 212.998C81.6402 214.172 88.9548 217.364 88.9819 217.364C89.0065 217.364 96.5867 214.056 98.9042 213.035C109.826 208.221 117.214 204.602 123.898 200.793C138.201 192.644 148.243 183.926 154.793 173.973C160.429 165.409 163.471 155.937 164.017 145.25C164.054 144.516 165.184 58.5472 165.32 46.0741L165.337 44.5546L165.13 44.4889C165.017 44.4527 164.051 44.152 162.985 43.8205C153.035 40.7284 137.359 35.0258 122.582 29.1232C108.449 23.4778 96.9132 18.3832 89.8572 14.671L88.9778 14.2086L88.1509 14.6466ZM0 36.2031C0 36.7288 0.00770311 36.9436 0.0170606 36.6808C0.0264699 36.4182 0.0264699 35.988 0.0170606 35.7252C0.00770311 35.4625 0 35.6774 0 36.2031ZM62.9992 37.5179C61.8603 37.7047 60.6923 38.3175 59.9835 39.1C59.7088 39.4032 59.4174 39.9094 59.3486 40.2021C59.3172 40.3356 59.3244 40.3481 59.4114 40.3119C60.2921 39.9475 61.1452 39.7516 61.737 39.7779L62.0814 39.7932L61.7519 40.0409C61.4745 40.2497 60.3376 40.8457 59.6918 41.1213L59.5124 41.1978L59.7436 41.3446C60.0987 41.5703 60.7016 41.7858 61.094 41.8278C61.8032 41.9035 62.4147 41.7604 63.0877 41.3612C63.4911 41.1219 64.3607 40.2767 64.8169 39.6807C65.0256 39.4075 65.3639 38.9676 65.5683 38.7032L65.9403 38.2219L65.7494 38.0716C65.0999 37.5606 64.0404 37.3471 62.9992 37.5179ZM113.768 37.4758C113.14 37.5674 112.631 37.7601 112.224 38.0602L111.999 38.2262L112.125 38.364C112.195 38.4399 112.506 38.8388 112.816 39.2508C113.712 40.4426 114.466 41.1718 115.166 41.525C116.098 41.9951 117.146 41.9496 118.137 41.3959L118.482 41.2028L117.97 40.9852C117.28 40.6922 116.62 40.3367 116.214 40.0391L115.878 39.7932L116.221 39.7779C116.799 39.7521 117.773 39.9748 118.536 40.3074C118.682 40.3706 118.65 40.1872 118.44 39.7684C118.008 38.9071 116.965 38.1119 115.732 37.704C115.152 37.5123 114.242 37.4065 113.768 37.4758ZM55.5914 38.5842C55.0878 38.7025 54.303 39.2063 53.8343 39.7124C52.5251 41.1255 51.866 43.2524 52.357 44.4815C52.4137 44.6235 52.4145 44.6227 52.6332 44.2395C52.9786 43.6338 53.3175 43.1842 53.7652 42.7377C54.0681 42.4355 54.1844 42.3476 54.1981 42.4107C54.2339 42.5772 53.8339 43.6441 53.4548 44.3942L53.0717 45.1517L53.3181 45.1153C54.2601 44.9765 55.1838 44.3441 55.6501 43.5186C56.1025 42.7178 56.2685 41.8085 56.314 39.8836L56.3463 38.5276L56.0669 38.5328C55.9131 38.5356 55.699 38.5588 55.5914 38.5842ZM121.665 39.8061C121.687 41.7151 121.806 42.4598 122.229 43.3317C122.614 44.1249 123.202 44.6475 124.052 44.954C124.432 45.0911 124.908 45.1801 124.875 45.1079C124.863 45.0827 124.679 44.7135 124.467 44.2873C124.127 43.6061 123.88 42.9701 123.765 42.4831L123.729 42.3319L123.884 42.4423C124.297 42.7358 124.966 43.5709 125.337 44.2536C125.45 44.462 125.556 44.6105 125.574 44.583C125.661 44.4405 125.761 43.8825 125.761 43.5333C125.761 41.5328 124.217 39.1985 122.519 38.6345C122.342 38.5758 122.075 38.5276 121.925 38.5276H121.651L121.665 39.8061ZM87.5307 42.0709C87.3879 42.0815 86.8998 42.1152 86.4445 42.1462C73.8926 43 62.2487 49.7576 55.1585 60.303C52.754 63.8795 50.9863 67.6472 49.7908 71.7428C48.996 74.4662 48.5631 76.8234 48.2545 80.1111C48.1495 81.2272 48.1667 85.6254 48.2805 86.8264C48.8093 92.4058 50.1129 97.0274 52.5087 101.814C56.3209 109.432 62.3397 115.625 69.9269 119.735C78.5172 124.389 88.8301 125.793 98.5457 123.631C111.382 120.775 122.188 111.822 127.438 99.6925C130.276 93.1374 131.348 85.849 130.54 78.6132C129.752 71.5647 127.04 64.647 122.809 58.8963C120.829 56.2041 118.27 53.5103 115.654 51.3637C113.127 49.2888 109.946 47.2828 107.06 45.9432C102.36 43.7612 97.9436 42.6018 92.571 42.1398C91.9451 42.0861 88.0532 42.0329 87.5307 42.0709ZM87.8219 44.2104C80.8553 44.5294 74.2536 46.6018 68.4636 50.2879C61.4511 54.7522 56.0052 61.3506 52.9948 69.0308C50.41 75.6247 49.6577 82.8312 50.8269 89.7965C51.931 96.3739 54.6694 102.507 58.8237 107.708C60.902 110.31 63.4184 112.745 66.0754 114.724C71.479 118.749 77.7875 121.303 84.4305 122.158C87.269 122.523 90.5718 122.569 93.4242 122.284C107.982 120.828 120.591 111.27 125.953 97.6259C128.369 91.4818 129.18 84.8115 128.318 78.1812C127.071 68.5698 122.143 59.6166 114.646 53.3399C108.232 47.969 100.479 44.8512 92.0796 44.2647C90.9852 44.1884 88.8875 44.1615 87.8219 44.2104ZM48.1718 44.6763C47.2333 45.0097 46.3313 45.9128 45.7404 47.111C45.4352 47.7305 45.2542 48.2513 45.1006 48.9528C44.9526 49.628 44.9388 50.9418 45.0741 51.4419C45.1694 51.7938 45.4534 52.4234 45.5171 52.4234C45.5374 52.4234 45.631 52.1851 45.7248 51.8937C46.0065 51.0198 46.6411 49.8044 46.9723 49.5049C47.074 49.4131 47.076 49.4144 47.076 49.5627C47.076 50.1082 46.8496 51.294 46.5656 52.234C46.4569 52.5938 46.3766 52.8882 46.3871 52.8882C46.4698 52.8882 47.151 52.5365 47.4391 52.3452C48.1827 51.8511 48.7628 51.0041 49.0009 50.0652C49.1011 49.6698 49.1167 49.4752 49.1158 48.6264C49.1145 47.5734 49.0922 47.3868 48.7774 45.8027C48.6662 45.2439 48.5753 44.7383 48.5753 44.6792C48.5753 44.5501 48.5288 44.5497 48.1718 44.6763ZM56.9129 44.6456C56.1584 44.8283 55.3829 45.4522 54.9496 46.2246C54.6327 46.7898 54.6262 46.8163 54.8093 46.7759C55.805 46.5569 56.3012 46.477 56.8342 46.4486C57.3037 46.4238 57.4676 46.4308 57.4676 46.4759C57.4676 46.5546 56.8259 46.9687 56.4169 47.1538C56.119 47.2884 55.419 47.5165 55.0635 47.5947L54.9085 47.6288L55.0894 47.7829C56.4285 48.9236 59.5119 48.3491 60.8953 46.7011C61.1296 46.4221 61.4716 45.7994 61.5089 45.5841C61.5236 45.4998 61.3828 45.4379 60.4838 45.1341C59.1588 44.6864 58.5989 44.57 57.7955 44.5758C57.4587 44.5782 57.0615 44.6097 56.9129 44.6456ZM119.032 44.6732C118.786 44.7251 118.105 44.9265 117.52 45.1205C116.707 45.3902 116.456 45.4938 116.456 45.5589C116.456 45.6059 116.553 45.8387 116.671 46.0764C116.84 46.4159 116.981 46.6039 117.33 46.9524C117.978 47.5996 118.721 47.9974 119.747 48.2464C120.352 48.3933 121.39 48.4048 121.884 48.2703C122.276 48.1636 122.756 47.9204 122.92 47.7461L123.034 47.6245L122.886 47.5927C122.545 47.5192 121.868 47.2979 121.55 47.155C121.144 46.9732 120.488 46.5584 120.488 46.4838C120.488 46.3444 121.856 46.4703 122.779 46.6949C123.028 46.7557 123.245 46.7931 123.26 46.7784C123.297 46.7412 123.048 46.2591 122.813 45.9117C122.387 45.2851 121.644 44.7687 120.964 44.628C120.544 44.5412 119.548 44.5644 119.032 44.6732ZM129.381 44.6988C129.381 44.7735 129.286 45.3041 129.172 45.878C128.816 47.6592 128.739 48.6645 128.887 49.6338C129.104 51.0563 129.836 52.0588 131.116 52.6841C131.346 52.7964 131.545 52.8882 131.559 52.8882C131.574 52.8882 131.484 52.5371 131.361 52.108C131.06 51.0582 130.789 49.4251 130.916 49.4282C131.007 49.4303 131.475 50.1591 131.779 50.7718C131.955 51.1277 132.168 51.6449 132.25 51.921C132.333 52.1973 132.416 52.4234 132.435 52.4234C132.5 52.4234 132.785 51.8234 132.877 51.4934C133.024 50.9652 133.011 49.6241 132.853 48.9168C132.483 47.2651 131.616 45.7895 130.605 45.0942C130.319 44.8983 129.794 44.6523 129.548 44.5994C129.392 44.5658 129.381 44.5729 129.381 44.6988ZM93.5013 47.4861C93.5013 47.4966 93.8327 47.6975 94.238 47.9324C97.179 49.6369 100.318 51.8259 102.935 53.9971C104.287 55.1191 105.313 56.0596 106.741 57.4837C108.493 59.2307 109.658 60.5344 110.86 62.0941L111.247 62.5958L111.59 62.3547C113.057 61.3213 115.861 59.0735 115.861 58.9298C115.861 58.8471 114.821 57.7707 114.027 57.0312C109.468 52.7871 104.223 49.8972 98.307 48.3708C97.2077 48.087 95.6047 47.7669 94.5612 47.6224C94.1346 47.5632 93.722 47.5041 93.644 47.4909C93.5653 47.4777 93.5013 47.4756 93.5013 47.4861ZM84.5314 47.5516C83.8489 47.641 82.2984 47.9175 81.5222 48.088C75.5333 49.4051 69.841 52.3254 65.2999 56.4104C64.4944 57.1349 63.7095 57.8904 63.2263 58.4062L62.872 58.7842L63.0003 58.8868C64.1887 59.8357 67.4731 62.1346 67.64 62.1346C67.6719 62.1346 67.8095 61.9895 67.946 61.8118C68.4057 61.2135 69.438 59.9963 70.1695 59.1902C71.1456 58.1146 73.2606 56.0383 74.373 55.0638C77.1988 52.5882 80.4447 50.2413 83.7045 48.3171C84.2738 47.9814 84.8087 47.6642 84.894 47.6121L85.049 47.5175L84.8677 47.5246C84.7685 47.5283 84.6167 47.5405 84.5314 47.5516ZM88.2124 48.4645C86.6799 50.0989 86.0023 50.8706 84.9408 52.1907C81.6679 56.2585 78.8842 60.8978 76.9036 65.5848C76.708 66.0474 76.5414 66.4622 76.5333 66.5067C76.5222 66.5673 76.6927 66.6506 77.2164 66.8405C80.7468 68.1198 84.2795 68.8845 88.0606 69.1881L88.4864 69.2225L88.4864 58.7048C88.4864 52.9203 88.4806 48.1901 88.4741 48.1934C88.4667 48.1965 88.3494 48.3185 88.2124 48.4645ZM90.1427 58.7462L90.1411 69.2789L91.4979 69.2479C94.8368 69.1712 97.951 68.6463 101.118 67.6264C102.374 67.2217 102.28 67.3903 101.841 66.319C100.392 62.7768 98.5761 59.3695 96.3923 56.0908C94.585 53.3774 92.6727 50.9484 90.4553 48.549L90.1444 48.2132L90.1427 58.7462ZM93.3873 49.4015C93.4808 49.5151 93.9697 50.1194 94.4734 50.7445C98.17 55.3312 101.272 60.5826 103.352 65.7765C103.546 66.2596 103.71 66.6624 103.716 66.6719C103.764 66.7371 106.377 65.5062 107.538 64.8715C108.493 64.3493 109.891 63.5101 109.877 63.4679C109.844 63.3746 108.469 61.6943 107.789 60.9163C106.402 59.3292 104.027 57.0177 102.239 55.5157C99.6663 53.3544 96.4587 51.0824 93.8639 49.5825C93.6506 49.4592 93.4176 49.3215 93.3462 49.2767C93.2322 49.2042 93.2363 49.2185 93.3873 49.4015ZM84.2434 49.8708C81.8029 51.3257 78.8109 53.4373 76.6737 55.2134C74.8363 56.7402 72.1805 59.3056 70.8454 60.8433C70.0459 61.7636 69.0997 62.9286 69.0997 62.9919C69.0997 63.1892 74.8688 66.0571 74.9945 65.9225C75.0164 65.8989 75.2207 65.4381 75.4484 64.8984C76.8287 61.6272 78.5193 58.5088 80.6017 55.3935C81.9122 53.4328 83.4994 51.331 84.8251 49.8017C85.0778 49.5105 85.2763 49.2723 85.2664 49.2723C85.2558 49.2723 84.7956 49.5415 84.2434 49.8708ZM41.6729 51.2996C40.5527 51.8712 39.6303 53.4047 39.2883 55.2638C39.16 55.9616 39.1378 57.1949 39.2407 57.8989C39.3929 58.9391 39.766 59.8325 40.2399 60.2908L40.4432 60.4875L40.4734 60.0068C40.5311 59.0841 40.8149 57.942 41.1844 57.1449C41.3473 56.7935 41.3504 56.7904 41.3937 56.9408C41.5404 57.4504 41.5839 58.8241 41.4887 59.9378C41.4583 60.2951 41.4417 60.6134 41.4525 60.6452C41.4631 60.6769 41.6558 60.5542 41.8808 60.3727C43.3604 59.1784 43.8803 57.5494 43.4525 55.4483C43.3078 54.7381 43.0189 53.9013 42.5222 52.7537C42.29 52.2168 42.0503 51.6464 41.9894 51.4859L41.8791 51.1945L41.6729 51.2996ZM136.066 51.2719C136.048 51.3228 135.796 51.9223 135.506 52.6041C134.739 54.4062 134.509 55.1618 134.392 56.2626C134.218 57.9223 134.803 59.3484 136.08 60.3752C136.294 60.5474 136.487 60.6883 136.508 60.6883C136.53 60.6883 136.526 60.5197 136.502 60.3138C136.425 59.6906 136.429 57.7715 136.507 57.2661C136.546 57.0175 136.595 56.814 136.616 56.814C136.679 56.814 137.069 57.8361 137.21 58.3685C137.359 58.9292 137.497 59.7388 137.497 60.0513C137.497 60.2922 137.537 60.43 137.606 60.43C137.69 60.43 138.128 59.7932 138.302 59.4212C138.678 58.6167 138.816 57.7475 138.773 56.4525C138.731 55.1629 138.53 54.2954 138.037 53.2673C137.635 52.4302 136.965 51.6658 136.31 51.2977C136.113 51.1869 136.097 51.1852 136.066 51.2719ZM50.7727 51.2712C49.7248 51.41 48.7939 52.1115 48.1827 53.2226L47.9882 53.5759L48.1914 53.5415C48.3031 53.5227 48.5805 53.471 48.808 53.4265C49.3356 53.3233 51.1086 53.2628 51.1086 53.348C51.1086 53.4235 50.7198 53.6717 50.2556 53.8925C49.8544 54.0836 49.0272 54.3501 48.5499 54.4422L48.2402 54.5019L48.4663 54.7025C48.7389 54.9443 49.2057 55.1786 49.6611 55.3023C49.9246 55.3738 50.1866 55.3926 50.8759 55.3891C51.6495 55.3852 51.8147 55.3689 52.2547 55.2512C53.7069 54.8628 54.8803 54.0155 55.3982 52.9815C55.5127 52.7532 55.6058 52.54 55.6054 52.5077C55.6042 52.4405 53.7331 51.7074 53.0732 51.5153C52.2694 51.2813 51.3951 51.1887 50.7727 51.2712ZM125.736 51.3151C125.067 51.4407 124.61 51.5841 123.499 52.0159C122.923 52.2399 122.428 52.4234 122.4 52.4234C122.323 52.4234 122.338 52.4972 122.479 52.8155C122.993 53.9766 124.313 54.9377 125.891 55.2981C126.408 55.416 127.805 55.4313 128.243 55.3236C128.661 55.2212 129.329 54.8858 129.528 54.6792L129.702 54.4991L129.399 54.4407C128.884 54.3416 128.081 54.0741 127.653 53.859C127.135 53.5984 126.841 53.4048 126.877 53.3467C126.893 53.322 127.223 53.3019 127.613 53.3023C128.279 53.3033 128.821 53.3603 129.576 53.5097C129.755 53.5448 129.914 53.5603 129.93 53.544C129.947 53.5277 129.847 53.3213 129.709 53.0854C129.227 52.26 128.442 51.6129 127.623 51.3659C127.218 51.2439 126.253 51.2179 125.736 51.3151ZM46.2747 58.5C44.7682 58.6701 43.8079 59.2808 43.1912 60.4612C42.9468 60.9292 42.6998 61.5502 42.7418 61.592C42.7545 61.6048 43.0213 61.5124 43.3346 61.3866C44.0199 61.1116 44.6738 60.9177 45.2598 60.8156C45.9487 60.6955 45.958 60.7011 45.6117 61.0274C45.0539 61.5527 44.0238 62.1851 43.3925 62.3899C43.2859 62.4244 43.1987 62.4736 43.1987 62.4992C43.1987 62.5892 43.7446 62.8562 44.0876 62.9342C45.9117 63.3486 48.4399 62.263 49.6045 60.5652C49.8904 60.1487 50.2297 59.3221 50.2297 59.0427C50.2297 58.9722 50.0353 58.9236 49.1053 58.7609C47.6148 58.5 46.8771 58.4321 46.2747 58.5ZM130.388 58.5232C130.161 58.5466 129.468 58.6539 128.848 58.7617L127.72 58.9578L127.752 59.1387C127.815 59.4808 128.028 60.0234 128.247 60.3942C128.658 61.091 129.616 61.9384 130.493 62.3804C131.849 63.0637 133.495 63.2109 134.438 62.7332C134.817 62.5416 134.85 62.4734 134.603 62.3993C133.981 62.2131 132.652 61.3813 132.198 60.8934L132.043 60.7268L132.374 60.7627C133.023 60.8331 134.147 61.1708 135.14 61.5932C135.228 61.6307 135.234 61.6189 135.201 61.4845C135.121 61.1658 134.844 60.5435 134.625 60.1915C134.36 59.7659 133.81 59.2254 133.408 58.9956C132.649 58.5624 131.603 58.3988 130.388 58.5232ZM61.281 60.6238C56.8427 66.1452 54.1586 72.6599 53.4644 79.5947C53.392 80.3185 53.2817 81.9368 53.2804 82.2935L53.28 82.4358H56.6109H59.9416L59.9686 82.1645C59.9833 82.0154 60.0315 81.4633 60.0756 80.9377C60.5532 75.2439 62.6757 69.4194 66.1336 64.3131C66.4286 63.8776 66.6687 63.5056 66.6675 63.4865C66.666 63.4675 66.2882 63.2078 65.8279 62.9095C64.7809 62.2311 63.5623 61.3677 62.5745 60.6045C62.156 60.2813 61.8034 60.0168 61.7912 60.0168C61.7788 60.0168 61.5492 60.2899 61.281 60.6238ZM116.787 60.316C115.679 61.2861 113.969 62.6471 112.849 63.4504C112.244 63.8836 112.217 63.9105 112.286 64.0143C113.831 66.3629 114.376 67.2797 115.188 68.8986C117.16 72.8308 118.441 77.261 118.782 81.3251C118.813 81.6944 118.85 82.0953 118.865 82.2163L118.892 82.4358H122.12H125.348L125.347 82.0871C125.347 81.8952 125.324 81.4014 125.296 80.9894C124.856 74.5359 122.887 68.6751 119.377 63.3745C118.649 62.2745 117.11 60.2269 116.981 60.187C116.962 60.181 116.875 60.2391 116.787 60.316ZM34.8091 61.0632C34.1765 62.0195 33.9713 62.7946 33.9713 64.2267C33.9713 65.0471 33.991 65.3053 34.0907 65.7998C34.2621 66.6482 34.4756 67.2824 34.8482 68.0495C35.423 69.2332 36.1225 70.041 36.9237 70.4463C37.3921 70.6831 37.4253 70.6711 37.3003 70.3094C37.1752 69.9477 36.9699 69.1422 36.8952 68.7209C36.7548 67.9287 36.7196 66.5288 36.842 66.6045C36.9263 66.6564 37.3857 67.4944 37.6305 68.0424C37.7716 68.3587 38.0219 69.0198 38.1864 69.5118L38.4855 70.406L38.6694 70.0773C38.9314 69.6092 39.1554 69.0481 39.2829 68.5402C39.4363 67.9291 39.4349 66.8312 39.2798 66.2581C39.1229 65.6791 38.8855 65.1416 38.554 64.6149C37.9778 63.6994 37.4065 63.0638 35.8235 61.5769L34.9883 60.7923L34.8091 61.0632ZM141.547 62.1721C140.147 63.5513 139.788 63.9665 139.334 64.7369C138.78 65.677 138.557 66.4616 138.566 67.4553C138.574 68.3861 138.789 69.1511 139.311 70.1088L139.476 70.412L139.748 69.5922C140.093 68.5501 140.463 67.6915 140.84 67.0535L141.137 66.5513L141.187 66.7579C141.254 67.0328 141.151 68.3499 141.01 69.0308C140.95 69.3149 140.825 69.7856 140.73 70.0769C140.539 70.6639 140.543 70.6711 140.933 70.5038C141.888 70.0949 142.809 68.93 143.44 67.3339C144.08 65.7156 144.195 63.6106 143.722 62.1896C143.592 61.7984 143.272 61.1871 143.063 60.9271L142.951 60.789L141.547 62.1721ZM67.8969 64.6012C67.7992 64.7362 67.5798 65.056 67.4096 65.3116C64.4185 69.8034 62.5726 74.5328 61.8653 79.5172C61.7482 80.343 61.6035 81.8182 61.6035 82.1872V82.4358H66.5125L71.4215 82.4358L71.4471 82.2681C71.4612 82.1756 71.4867 81.7978 71.5038 81.4284C71.6864 77.4783 72.6912 72.4662 74.1319 68.3203C74.2874 67.8731 74.3994 67.498 74.3809 67.4869C74.3623 67.476 73.9401 67.2872 73.4424 67.0674C72.2701 66.5493 70.3109 65.5692 69.0929 64.8918C68.5632 64.597 68.1173 64.3559 68.1022 64.3559C68.0869 64.3559 67.9946 64.4663 67.8969 64.6012ZM110.303 65.1439C109.021 65.9657 106.49 67.2959 105.03 67.9155C104.675 68.0662 104.365 68.2079 104.34 68.2304C104.316 68.2528 104.448 68.7328 104.634 69.2967C105.93 73.2363 106.74 77.397 107.003 81.4671L107.065 82.4358H112.148L117.231 82.4358V82.2796C117.231 82.1932 117.196 81.7807 117.153 81.3625C116.628 76.2612 115.074 71.6619 112.335 67.1C111.724 66.0828 110.89 64.8188 110.832 64.825C110.812 64.8275 110.574 64.9708 110.303 65.1439ZM44.1809 66.6585C42.5941 66.8409 41.8652 67.0895 41.0987 67.7097C40.3703 68.2991 39.8021 69.3779 39.6075 70.5419L39.5706 70.7617L39.976 70.5212C40.8484 70.0031 42.0784 69.4648 42.6733 69.3408C42.8371 69.3067 42.8429 69.3104 42.7872 69.4146C42.6728 69.6282 41.7245 70.5675 41.3142 70.8738C41.0853 71.0446 40.7246 71.2799 40.5127 71.3966L40.1271 71.6089L40.3885 71.7275C41.7305 72.3359 43.9897 71.6497 45.5869 70.1483C46.5577 69.2359 47.1499 68.133 47.2617 67.029L47.2971 66.6804H46.833C46.5778 66.6804 45.9175 66.6709 45.3654 66.6591C44.8135 66.6474 44.2805 66.647 44.1809 66.6585ZM131.508 66.6676L130.663 66.6831L130.698 67.0047C130.807 68.023 131.278 68.9904 132.097 69.8743C132.763 70.5929 133.934 71.3505 134.872 71.6694C135.915 72.0238 136.983 72.0383 137.624 71.7063L137.828 71.6007L137.598 71.4841C136.891 71.1263 135.697 70.1281 135.28 69.5478L135.105 69.3035L135.28 69.34C135.927 69.4739 137.01 69.9421 137.904 70.4738L138.388 70.7617L138.352 70.5185C138.287 70.0857 138.066 69.4026 137.855 68.9792C137.172 67.6073 135.913 66.8593 133.999 66.6858C133.652 66.6546 133.141 66.6341 132.861 66.6403C132.582 66.6467 131.973 66.6589 131.508 66.6676ZM75.4428 69.5086C74.9265 71.0959 74.7202 71.8089 74.4 73.1118C73.7069 75.9313 73.254 78.9546 73.1021 81.7771L73.0664 82.4358H80.7768L88.4864 82.4358V76.6546V70.8736L88.086 70.8401C84.0285 70.5032 80.4378 69.7295 76.7838 68.4053C76.3609 68.2521 75.9872 68.1268 75.9535 68.1268C75.9187 68.1268 75.6968 68.7276 75.4428 69.5086ZM102.549 68.8812C102.207 69.0301 100.45 69.562 99.522 69.7976C96.7852 70.492 94.2929 70.8345 91.4979 70.9005L90.1411 70.9323V76.6839V82.4358L97.7918 82.4358H105.443L105.415 82.0354C105.088 77.367 104.463 74.035 103.132 69.8703C102.943 69.2808 102.776 68.7994 102.759 68.8003C102.744 68.8016 102.648 68.838 102.549 68.8812ZM146.286 73.0694C145.846 73.331 145.202 73.7122 144.857 73.9167C142.618 75.2435 141.366 76.7273 141.034 78.4498C140.939 78.9408 140.941 79.9946 141.037 80.4947C141.139 81.0322 141.326 81.7126 141.371 81.7126C141.391 81.7126 141.533 81.4869 141.686 81.2115C142.27 80.1526 143.26 78.7841 143.806 78.2773L143.974 78.1225L143.937 78.4066C143.818 79.3575 143.314 80.7635 142.725 81.7852C142.579 82.0383 142.47 82.2557 142.483 82.2681C142.495 82.2812 142.687 82.2549 142.91 82.2105C143.94 82.0031 145.015 81.1769 145.96 79.8665C146.361 79.3112 146.985 78.0859 147.203 77.4251C147.697 75.9283 147.757 74.4385 147.368 73.276C147.109 72.4988 147.214 72.5189 146.286 73.0694ZM30.7217 72.9218C30.6473 73.0872 30.5354 73.43 30.4726 73.6837C30.3091 74.3452 30.3083 75.513 30.471 76.3262C30.9454 78.6992 32.5448 81.0762 34.2346 81.9202C34.6205 82.1128 35.4108 82.3305 35.4785 82.2631C35.494 82.2483 35.4215 82.0948 35.3172 81.9233C34.9978 81.3981 34.5871 80.4801 34.3677 79.8013C34.1647 79.1728 33.9702 78.3037 34.008 78.1911C34.035 78.1098 34.6739 78.813 35.1404 79.4382C35.4992 79.9185 36.4157 81.3844 36.5062 81.6222C36.5671 81.7821 36.6155 81.7204 36.729 81.3381C36.9397 80.6283 37.0063 80.1637 37.0055 79.4138C37.0047 78.5983 36.885 78.0085 36.5874 77.3528C35.9405 75.9272 34.7498 74.8436 32.2644 73.4187C31.7811 73.1416 31.2884 72.8488 31.1693 72.7679C31.0505 72.6871 30.9315 72.6211 30.905 72.6211C30.8785 72.6211 30.7959 72.7563 30.7217 72.9218ZM45.058 76.3061C45.0448 76.3185 44.5571 76.3559 43.9741 76.3891C41.4905 76.5309 40.2679 76.8421 39.192 77.6056C38.1562 78.3408 37.458 79.6613 37.3241 81.1383L37.2893 81.5229L37.5944 81.3011C38.1364 80.9073 38.8905 80.4289 39.3903 80.1619C39.9163 79.8814 40.7172 79.567 40.7172 79.6414C40.7172 79.7202 40.151 80.4819 39.8023 80.8724C39.4459 81.2715 38.6946 81.9245 38.2822 82.194C38.1438 82.2845 38.0304 82.3741 38.0297 82.393C38.0293 82.4119 38.1508 82.4703 38.3003 82.5221C38.7385 82.675 39.776 82.647 40.3759 82.467C43.047 81.6638 45.2534 79.1304 45.3292 76.7793C45.344 76.3157 45.3439 76.3143 45.213 76.2991C45.1408 76.2908 45.071 76.2939 45.058 76.3061ZM132.638 76.741C132.638 78.1212 133.508 79.7647 134.852 80.9215C136.304 82.1715 138.108 82.841 139.361 82.5944C139.689 82.5295 139.929 82.4423 139.925 82.3889C139.923 82.3716 139.758 82.2418 139.556 82.0999C139.01 81.7155 138.393 81.1575 138.008 80.6991C137.642 80.2639 137.239 79.7078 137.239 79.6388C137.239 79.5711 137.947 79.8435 138.484 80.1173C138.955 80.3578 139.959 80.9925 140.431 81.349L140.651 81.5149V81.3105C140.651 80.9795 140.507 80.2544 140.348 79.7823C139.721 77.9167 138.169 76.8442 135.636 76.5274C135.281 76.4829 134.559 76.4221 134.033 76.3921C133.507 76.3624 132.978 76.3241 132.858 76.3074L132.638 76.2769V76.741ZM53.3022 84.7219C53.3601 85.8095 53.4357 86.7179 53.5416 87.6016C53.6449 88.4615 53.9319 90.2265 53.9954 90.3925C54.0261 90.4731 54.1053 90.4533 54.7534 90.2018C55.7894 89.8006 58.0522 89.046 59.1994 88.7188C60.1339 88.4533 60.1809 88.4335 60.1686 88.3176C60.0623 87.3443 59.9919 86.3545 59.9707 85.5349C59.9563 84.9809 59.9324 84.4293 59.9177 84.3084L59.8909 84.0889H56.5798H53.2685L53.3022 84.7219ZM61.5519 84.6438C61.5521 85.5234 61.7217 87.9395 61.7879 88.0085C61.7985 88.02 62.3139 87.9206 62.9332 87.789C65.4763 87.2481 67.9567 86.8807 70.377 86.6867L71.4877 86.5971L71.4575 86.4146C71.4409 86.3143 71.427 85.7503 71.4269 85.1609L71.4262 84.0889L66.4891 84.0889H61.5517L61.5519 84.6438ZM73.0292 84.7219C73.0292 85.0697 73.0441 85.6106 73.0621 85.9246L73.0951 86.4943L75.1688 86.4976C79.3709 86.505 82.7422 86.8502 87.1795 87.729C87.8309 87.8573 88.3912 87.9633 88.4249 87.9633C88.4716 87.9633 88.4864 87.4964 88.4864 86.0257V84.0889L80.7577 84.0889H73.0288L73.0292 84.7219ZM90.1411 86.177V88.2658L90.0311 88.2823C89.9704 88.2913 90.4758 88.4245 91.155 88.579C91.8343 88.7328 94.0649 89.2737 96.1125 89.7817C100.406 90.8471 102.049 91.2319 103.531 91.5196C105.024 91.8089 104.892 91.8106 104.937 91.5015C105.064 90.6449 105.244 89.0961 105.313 88.2732C105.383 87.4265 105.492 85.0984 105.494 84.3602L105.496 84.0889H97.8181L90.1411 84.0889V86.177ZM107.082 85.4963C107.035 87.5153 106.858 89.637 106.59 91.3905C106.525 91.8114 106.513 92.0087 106.552 92.021C106.75 92.0876 108.464 92.2109 109.528 92.2356C111.305 92.2759 112.497 92.1772 114.1 91.8574C114.972 91.6832 116.714 91.1718 116.714 91.0896C116.714 91.0806 116.759 90.8077 116.815 90.4838C116.938 89.7702 117.103 88.4697 117.18 87.6271C117.248 86.8708 117.329 84.5501 117.296 84.2829L117.271 84.0889L112.193 84.0889H107.114L107.082 85.4963ZM118.937 84.8765C118.936 86.223 118.787 88.242 118.581 89.6806C118.531 90.0292 118.515 90.2873 118.543 90.2873C118.684 90.2873 120.123 89.4373 121.057 88.8026C122.595 87.7578 124.831 85.8202 126.014 84.509L126.393 84.0889H122.665H118.938L118.937 84.8765ZM29.0859 84.3191C28.8909 84.8313 28.8545 85.1083 28.8541 86.0775C28.8537 86.9752 28.8657 87.1067 28.9938 87.6123C29.6079 90.0399 31.3238 92.3203 33.2591 93.2813C33.4797 93.3914 33.7875 93.518 33.9429 93.564C34.2594 93.6561 35.0821 93.7342 35.0821 93.6717C35.0821 93.6495 34.9341 93.4309 34.7534 93.1859C34.0094 92.1789 33.4335 91.0288 33.127 89.9379C33.0119 89.5285 33.0131 89.5277 33.3751 89.8179C34.0777 90.3802 34.91 91.2902 35.7099 92.3696L36.162 92.9804L36.2139 92.7831C36.3319 92.3359 36.3865 91.6305 36.3595 90.9071C36.3249 89.9914 36.1839 89.4266 35.8072 88.6941C34.9918 87.1084 33.5728 86.0668 30.4863 84.7877C29.9632 84.5707 29.4453 84.3471 29.3353 84.2912L29.1352 84.1892L29.0859 84.3191ZM148.561 84.3199C148.433 84.3849 147.897 84.6167 147.371 84.8345C144.961 85.8309 143.614 86.685 142.768 87.7545C141.945 88.7928 141.581 89.8565 141.581 91.2277C141.581 91.7243 141.705 92.7724 141.78 92.9047C141.802 92.9442 141.982 92.742 142.261 92.3638C143.109 91.2162 144.033 90.2232 144.728 89.7118C144.949 89.5499 144.954 89.5491 144.916 89.6716C144.454 91.1891 143.907 92.2948 143.099 93.3446C142.975 93.5057 142.874 93.6545 142.874 93.675C142.874 93.7556 143.759 93.6454 144.148 93.5164C144.929 93.2574 145.866 92.6228 146.597 91.8566C148.333 90.0382 149.326 87.5654 149.13 85.5473C149.081 85.0458 148.919 84.3207 148.837 84.2418C148.813 84.2196 148.689 84.2542 148.561 84.3199ZM44.3873 84.6594C44.3449 84.6866 43.7868 84.8806 43.1469 85.0902C41.7876 85.5349 41.1867 85.7668 40.5081 86.1054C39.1192 86.7993 38.2132 87.6567 37.6696 88.7928C37.3605 89.4389 37.2489 89.9289 37.216 90.783C37.1879 91.5105 37.2305 92.3022 37.2978 92.3022C37.3175 92.3022 37.5889 92.0079 37.9008 91.6486C38.59 90.8553 39.1809 90.293 39.8549 89.7891C40.313 89.4463 40.4587 89.3608 40.4587 89.434C40.4587 89.4471 40.3889 89.6338 40.3036 89.8483C39.8866 90.8973 39.2883 91.8722 38.5398 92.7222C38.1966 93.1127 38.2042 93.1275 38.7526 93.1275C39.734 93.1267 41.0041 92.4986 42.0658 91.4892C44.0023 89.6477 44.9915 87.175 44.6216 85.1017C44.5421 84.657 44.5041 84.5846 44.3873 84.6594ZM133.442 84.6529C133.427 84.6759 133.377 84.9135 133.33 85.1798C133.18 86.0372 133.301 87.1528 133.647 88.1179C133.85 88.6859 134.349 89.6231 134.746 90.1845C135.218 90.8512 136.21 91.8369 136.812 92.2372C137.675 92.8119 138.526 93.1284 139.203 93.1275C139.762 93.1267 139.762 93.1267 139.309 92.5891C138.62 91.7695 138.054 90.8438 137.712 89.9774C137.445 89.2992 137.442 89.3164 137.805 89.5631C138.557 90.0727 139.516 90.9787 140.321 91.9405C140.512 92.1682 140.675 92.3474 140.683 92.3392C140.691 92.3301 140.72 92.0514 140.747 91.7185C140.982 88.7796 139.636 86.9103 136.36 85.6245C136.033 85.4963 135.352 85.2604 134.847 85.0992C134.342 84.9389 133.826 84.763 133.698 84.7088C133.571 84.6545 133.456 84.629 133.442 84.6529ZM126.718 88.2847C124.701 90.5413 121.276 92.936 117.774 94.539C113.78 96.3681 109.516 97.4845 106.024 97.616C103.382 97.7155 101.525 97.5001 96.4997 96.5136C91.2215 95.4778 88.2805 95.1029 84.1179 94.9377C81.0174 94.8144 78.683 94.9147 76.2083 95.2789C69.5628 96.2563 63.2696 99.256 58.4879 103.727L57.8796 104.295L58.2776 104.872C60.2516 107.732 62.8349 110.555 65.3734 112.626C65.6886 112.883 65.7573 112.92 65.7956 112.851C65.8834 112.694 66.6882 111.645 67.0749 111.183C67.6317 110.517 69.4309 108.736 70.1596 108.129C72.3114 106.336 74.3319 105.034 76.9322 103.764C80.2841 102.126 83.2771 101.222 86.7489 100.798C88.6127 100.571 88.9958 100.558 95.1814 100.515C98.4801 100.492 101.319 100.459 101.489 100.442C101.66 100.427 102.195 100.388 102.678 100.358C106.773 100.099 110.819 99.3275 114.293 98.1438C118.833 96.5966 123.194 94.0893 126.208 91.2935L126.731 90.8085L126.839 90.2248C126.898 89.9042 126.994 89.3049 127.053 88.8931C127.198 87.8712 127.213 87.7562 127.197 87.7603C127.19 87.7627 126.974 87.9987 126.718 88.2847ZM44.5906 93.1604C44.5216 93.2352 44.0466 93.638 43.5347 94.0565C41.5366 95.6899 40.6794 96.6295 40.0691 97.8552C39.65 98.697 39.5141 99.2675 39.5098 100.205C39.5052 101.194 39.6615 101.884 40.1099 102.853L40.3194 103.306L40.6644 102.441C40.8544 101.964 41.155 101.284 41.3326 100.929C41.6425 100.309 42.2583 99.3201 42.3813 99.2437C42.4831 99.1812 42.3893 100.515 42.2416 101.231C42.1029 101.904 41.822 102.83 41.6146 103.3C41.5469 103.453 41.503 103.591 41.5174 103.606C41.563 103.651 41.971 103.509 42.3198 103.325C43.2143 102.856 44.0373 101.886 44.7268 100.49C45.7653 98.3863 46.0117 96.008 45.3768 94.2159C45.239 93.8263 44.8169 93.0256 44.7494 93.0256C44.7311 93.0256 44.6595 93.0864 44.5906 93.1604ZM133.019 93.315C131.91 95.0446 131.995 97.9317 133.231 100.492C133.382 100.805 133.652 101.282 133.83 101.55C134.231 102.155 135.064 102.996 135.533 103.268C135.864 103.459 136.387 103.657 136.435 103.609C136.449 103.595 136.365 103.341 136.247 103.044C135.846 102.022 135.533 100.49 135.533 99.547V99.1516L135.756 99.4591C136.317 100.23 136.791 101.148 137.316 102.479C137.479 102.89 137.621 103.237 137.631 103.249C137.674 103.293 138.118 102.275 138.24 101.853C138.736 100.138 138.453 98.531 137.385 96.9937C136.742 96.068 135.954 95.2863 134.395 94.0302C133.983 93.698 133.548 93.333 133.43 93.2188L133.214 93.0116L133.019 93.315ZM29.912 98.7184C29.912 99.0382 30.0184 99.764 30.1224 100.154C30.277 100.734 30.7825 101.723 31.223 102.307C31.6291 102.844 32.364 103.585 32.8945 103.991C34.5072 105.225 36.4638 105.842 37.8478 105.552C38.2106 105.477 38.5998 105.331 38.5951 105.273C38.5936 105.256 38.3937 105.117 38.1508 104.963C37.5389 104.576 37.003 104.132 36.4261 103.532C35.8014 102.882 35.2303 102.136 35.3986 102.189C35.4377 102.202 35.6327 102.264 35.8316 102.326C36.666 102.591 37.7351 103.142 38.8474 103.88C39.1411 104.075 39.3873 104.234 39.3943 104.234C39.4237 104.234 39.309 103.506 39.2192 103.125C38.6184 100.565 36.943 99.1787 33.9705 98.7842C33.6184 98.7373 32.6285 98.6814 31.6812 98.6551C30.7634 98.6296 29.9899 98.5943 29.9623 98.5778C29.9335 98.5597 29.912 98.6206 29.912 98.7184ZM145.95 98.66C145.211 98.6806 144.339 98.7348 144.011 98.78C141.256 99.159 139.644 100.34 138.914 102.514C138.771 102.94 138.583 103.829 138.583 104.08V104.231L139.265 103.786C140.314 103.1 141.527 102.497 142.349 102.253L142.626 102.171L142.536 102.312C141.95 103.238 140.828 104.326 139.722 105.039L139.335 105.288L139.557 105.385C140.593 105.837 142.056 105.653 143.623 104.876C144.471 104.456 145.12 103.995 145.837 103.306C147.202 101.993 147.904 100.625 148.025 99.0406L148.059 98.6041L147.677 98.6132C147.466 98.6173 146.689 98.6386 145.95 98.66ZM123.306 99.5947C120.062 101.823 115.827 103.581 111.26 104.593C108.409 105.225 106.008 105.571 100.3 106.172C94.247 106.809 92.1108 107.136 89.1476 107.879C82.9596 109.432 78.4739 112.067 75.2923 116.022C74.8804 116.533 73.9595 117.856 73.9595 117.935C73.9595 118.027 75.8765 118.813 77.2541 119.285C79.6159 120.095 82.5371 120.762 84.9358 121.039L85.5478 121.11L85.7816 120.643C87.7472 116.732 92.7195 113.205 99.5507 110.874C101.308 110.275 102.908 109.836 105.108 109.35C107.197 108.889 108.714 108.469 110.924 107.739C114.228 106.647 118.09 105.039 121.23 103.449C121.893 103.113 121.957 103.068 122.114 102.821C122.691 101.919 124.137 99.1064 124.014 99.1269C123.994 99.1294 123.675 99.3407 123.306 99.5947ZM47.7065 101.49C47.678 101.572 47.3877 102.113 47.0613 102.691C45.3691 105.694 44.9075 107.052 44.9686 108.849C44.999 109.746 45.1178 110.249 45.4742 110.984C45.7752 111.603 46.1889 112.165 46.762 112.731L47.1795 113.143V112.416C47.1795 111.105 47.3132 109.884 47.574 108.815C47.6652 108.442 47.7256 108.278 47.7558 108.324C47.8275 108.434 48.1001 109.337 48.1896 109.762C48.3447 110.497 48.4182 111.237 48.4193 112.074C48.4198 112.651 48.4381 112.913 48.4772 112.913C48.5087 112.913 48.6911 112.756 48.8825 112.564C49.8341 111.612 50.4029 109.944 50.4733 107.899C50.5695 105.103 49.6776 102.716 48.0933 101.529C47.956 101.426 47.8245 101.342 47.801 101.342C47.7776 101.342 47.7349 101.409 47.7065 101.49ZM129.707 101.665C127.895 103.129 127.052 106.436 127.681 109.607C127.944 110.927 128.566 112.175 129.237 112.723C129.364 112.827 129.483 112.913 129.502 112.913C129.52 112.913 129.536 112.57 129.536 112.151C129.536 110.939 129.698 109.864 130.039 108.807L130.223 108.238L130.29 108.431C130.54 109.15 130.725 110.517 130.768 111.977L130.803 113.133L131.223 112.716C132.579 111.37 133.149 109.869 132.992 108.055C132.871 106.635 132.314 105.175 131.033 102.917C130.743 102.406 130.433 101.842 130.346 101.665C130.258 101.487 130.168 101.342 130.146 101.342C130.125 101.342 129.927 101.487 129.707 101.665ZM53.2034 110.859C53.1914 110.896 53.1548 111.029 53.1221 111.157C53.0891 111.284 52.8894 111.936 52.6779 112.603C52.0146 114.697 51.7774 115.743 51.6743 117.033C51.5061 119.14 52.0997 120.898 53.4009 122.146C53.8508 122.576 54.3098 122.922 54.7921 123.191C55.1386 123.385 55.1308 123.405 54.9871 122.708C54.7093 121.359 54.5433 119.642 54.6006 118.712C54.6203 118.392 54.6512 118.131 54.6692 118.131C54.7172 118.131 55.1571 118.916 55.3985 119.431C55.514 119.679 55.711 120.19 55.8364 120.568C56.0321 121.157 56.1237 121.524 56.3751 122.728L56.4129 122.908L56.6562 122.58C57.3235 121.678 57.6229 120.525 57.6225 118.861C57.6214 115.306 55.9975 112.043 53.6847 110.95C53.3247 110.78 53.2357 110.763 53.2034 110.859ZM124.329 110.924C123.535 111.284 122.646 112.074 122.049 112.952C121.684 113.488 121.138 114.589 120.93 115.207C120.549 116.344 120.384 117.298 120.348 118.57C120.308 120.02 120.491 121.082 120.934 121.968C121.113 122.328 121.512 122.911 121.55 122.871C121.561 122.861 121.629 122.549 121.701 122.178C121.981 120.744 122.523 119.314 123.154 118.337L123.304 118.104L123.339 118.389C123.453 119.329 123.322 120.922 122.989 122.643C122.918 123.009 122.871 123.318 122.884 123.331C122.917 123.364 123.578 122.961 123.967 122.669C124.453 122.306 125.148 121.552 125.45 121.063C126.132 119.954 126.421 118.552 126.287 116.992C126.179 115.729 125.896 114.5 125.246 112.474C125.046 111.849 124.853 111.215 124.819 111.067C124.746 110.754 124.72 110.746 124.329 110.924ZM38.7526 111.187C38.4541 111.226 37.535 111.388 36.7105 111.548C35.8859 111.707 35.1589 111.848 35.0949 111.86C34.9477 111.888 34.9461 111.996 35.0854 112.501C35.694 114.704 37.9229 116.689 40.6791 117.481C42.1144 117.893 43.6954 117.896 44.7018 117.487C45.0748 117.336 45.6034 116.998 45.5449 116.948C45.5198 116.927 45.2898 116.833 45.0339 116.738C44.3645 116.491 43.5556 116.075 42.9359 115.658C42.3815 115.285 41.4927 114.547 41.4927 114.46C41.4927 114.396 41.5663 114.399 42.2235 114.486C43.315 114.631 44.514 114.983 46.1094 115.627C46.1903 115.659 46.198 115.645 46.1675 115.516C46.1 115.23 45.6742 114.238 45.4625 113.874C44.5347 112.281 43.2432 111.414 41.4169 111.16C40.8779 111.086 39.4166 111.099 38.7526 111.187ZM136.509 111.16C134.596 111.441 133.216 112.446 132.328 114.204C132.087 114.683 131.736 115.594 131.776 115.635C131.788 115.646 131.981 115.582 132.205 115.493C133.758 114.874 135.026 114.537 136.179 114.438L136.541 114.406L136.205 114.726C135.319 115.57 133.84 116.46 132.741 116.812C132.584 116.862 132.439 116.92 132.417 116.939C132.319 117.028 133.197 117.504 133.703 117.634C135.257 118.036 137.343 117.688 139.151 116.727C139.973 116.289 140.534 115.875 141.197 115.214C142.17 114.242 142.712 113.312 142.947 112.204L143.016 111.882L142.828 111.851C142.726 111.834 142.001 111.695 141.22 111.542C140.438 111.389 139.507 111.228 139.153 111.184C138.47 111.1 137.008 111.087 136.509 111.16ZM60.9075 120.202C60.8612 122.82 60.9274 123.872 61.223 125.204C61.7767 127.697 63.1088 129.311 65.2251 130.053C65.6452 130.2 66.6182 130.438 66.6182 130.393C66.6182 130.381 66.4102 129.957 66.1558 129.449C65.6135 128.366 65.3009 127.649 65.0479 126.907C64.8291 126.266 64.5894 125.336 64.6122 125.218C64.6381 125.084 65.8087 126.282 66.3169 126.964C66.812 127.627 67.4176 128.615 67.6352 129.114C67.7141 129.295 67.795 129.443 67.8151 129.443C67.8647 129.443 68.0536 128.929 68.1558 128.516C68.2734 128.041 68.2724 126.637 68.1538 126.008C67.8035 124.15 66.9813 122.362 65.7892 120.868C64.5373 119.299 62.8357 118.252 61.3644 118.146L60.9444 118.116L60.9075 120.202ZM116.094 118.21C113.959 118.668 111.84 120.688 110.616 123.432C109.78 125.306 109.503 127.155 109.841 128.605C109.895 128.839 109.989 129.127 110.05 129.246L110.16 129.46L110.504 128.793C110.932 127.966 111.295 127.399 111.825 126.731C112.221 126.231 113.12 125.305 113.305 125.206C113.391 125.16 113.392 125.176 113.322 125.479C113.015 126.814 112.439 128.294 111.645 129.792C111.476 130.111 111.338 130.382 111.338 130.393C111.338 130.432 112.236 130.221 112.656 130.083C114.612 129.445 115.997 127.927 116.608 125.751C116.99 124.393 117.093 123.173 117.068 120.288L117.051 118.131L116.741 118.135C116.569 118.137 116.279 118.171 116.094 118.21ZM48.4462 121.439C47.089 121.552 46.0592 121.867 43.5606 122.933C42.7788 123.267 42.0507 123.569 41.943 123.604C41.7052 123.68 41.7048 123.679 42.095 124.433C42.592 125.393 43.3312 126.191 44.3436 126.86C47.3766 128.866 52.0121 128.919 53.9224 126.969C54.2029 126.683 54.2024 126.682 53.7452 126.629C52.7863 126.519 51.4171 126.108 50.4679 125.647C49.9088 125.375 49.216 124.963 49.2543 124.925C49.3199 124.86 50.2384 124.792 51.031 124.792C51.9832 124.793 52.8331 124.871 53.9197 125.056C54.2571 125.113 54.5417 125.152 54.5518 125.142C54.5839 125.11 54.1279 124.344 53.8145 123.904C53.4288 123.362 52.7333 122.669 52.2558 122.349C51.7582 122.017 51.1233 121.726 50.6124 121.596C50.2628 121.508 49.1406 121.369 48.963 121.393C48.9347 121.397 48.702 121.417 48.4462 121.439ZM128.501 121.419C126.419 121.567 124.862 122.608 123.665 124.653C123.513 124.913 123.396 125.134 123.405 125.144C123.415 125.153 123.699 125.113 124.036 125.056C125.122 124.871 125.973 124.793 126.925 124.792C127.716 124.792 128.636 124.86 128.702 124.925C128.74 124.964 128.04 125.382 127.484 125.652C126.552 126.106 125.168 126.519 124.211 126.629C123.756 126.682 123.755 126.684 124.007 126.944C125.065 128.028 127.088 128.575 129.233 128.355C130.93 128.182 132.401 127.67 133.703 126.8C134.689 126.142 135.577 125.14 135.991 124.22C136.247 123.651 136.255 123.689 135.857 123.541C135.665 123.468 134.968 123.176 134.309 122.89C132.394 122.061 131.26 121.687 130.156 121.52C129.619 121.439 128.866 121.393 128.501 121.419ZM71.7469 123.592C71.616 123.608 71.5827 123.633 71.6027 123.7C71.6682 123.915 71.751 124.367 71.971 125.707C72.3558 128.049 72.6303 129.164 73.1141 130.347C73.6506 131.66 74.3888 132.683 75.2998 133.374C75.7775 133.737 76.5816 134.12 77.1872 134.273C77.7312 134.412 79.0641 134.546 79.2998 134.487L79.4387 134.452L79.0382 133.95C78.1179 132.795 77.3994 131.716 76.9346 130.791C76.6789 130.282 76.4775 129.803 76.5072 129.774C76.5397 129.741 77.5242 130.362 77.8792 130.639C78.7207 131.295 79.5255 132.112 80.1247 132.917C80.2675 133.109 80.4019 133.266 80.4237 133.266C80.492 133.266 80.5768 132.63 80.5768 132.119C80.5768 129.626 78.6288 126.416 76.0783 124.706C75.2982 124.183 74.3658 123.781 73.597 123.635C73.2033 123.56 72.1941 123.536 71.7469 123.592ZM104.358 123.629C103.068 123.897 101.739 124.654 100.544 125.799C99.0543 127.228 97.9936 128.989 97.5482 130.775C97.43 131.25 97.4095 131.439 97.4087 132.103C97.4079 132.582 97.4325 132.962 97.4727 133.099L97.5383 133.318L97.841 132.917C98.7385 131.728 99.8419 130.722 101.049 129.992C101.263 129.863 101.444 129.778 101.453 129.801C101.474 129.862 101.099 130.684 100.812 131.206C100.355 132.032 99.5638 133.178 98.8452 134.052L98.517 134.449L98.7024 134.484C98.8041 134.503 99.1987 134.492 99.5794 134.459C101.127 134.326 102.174 133.877 103.173 132.92C104.326 131.813 105.082 130.226 105.619 127.79C105.691 127.463 105.857 126.545 105.986 125.749C106.117 124.955 106.258 124.155 106.301 123.973C106.342 123.791 106.363 123.629 106.347 123.613C106.282 123.547 104.688 123.56 104.358 123.629ZM59.2521 129.501C57.7156 129.724 56.2324 130.402 53.616 132.078C52.9621 132.496 52.2935 132.914 52.1304 133.005C51.7894 133.197 51.7851 133.149 52.1966 133.756C53.2754 135.35 55.2397 136.439 57.5983 136.753C58.2631 136.841 59.6871 136.853 60.3124 136.776C61.671 136.608 62.8896 136.195 63.8264 135.583C64.2145 135.33 64.9436 134.621 65.1072 134.338L65.2189 134.144H64.3981C63.4129 134.144 62.5358 134.038 61.6293 133.81C60.8835 133.622 59.8123 133.225 59.8798 133.162C59.9408 133.104 60.5654 132.917 61.0903 132.8C61.9315 132.613 62.7014 132.536 64.0463 132.506C64.7784 132.49 65.3775 132.459 65.3775 132.438C65.3775 132.356 64.7014 131.571 64.2852 131.17C63.3259 130.245 62.3414 129.719 61.1961 129.519C60.7289 129.437 59.7517 129.428 59.2521 129.501ZM116.706 129.524C115.638 129.717 114.604 130.279 113.671 131.173C113.26 131.566 112.578 132.363 112.578 132.45C112.578 132.472 113.015 132.491 113.548 132.491C114.637 132.491 115.415 132.55 116.326 132.7C116.987 132.809 118.11 133.102 118.11 133.166C118.11 133.217 117.464 133.481 116.926 133.65C115.867 133.981 114.756 134.144 113.555 134.144H112.727L112.947 134.458C113.78 135.645 115.545 136.515 117.644 136.776C118.294 136.856 119.722 136.842 120.393 136.75C122.208 136.496 123.788 135.798 124.911 134.752C125.318 134.373 125.841 133.72 126.023 133.363L126.122 133.169L125.825 133.001C125.662 132.908 125.052 132.527 124.469 132.153C122.567 130.936 121.756 130.489 120.643 130.046C119.263 129.498 117.873 129.313 116.706 129.524ZM88.3059 132.032C87.8563 132.097 87.3329 132.265 86.8867 132.49C83.8808 134 83.4592 138.153 86.0983 140.248C87.4675 141.335 89.3839 141.556 90.9557 140.808C91.7211 140.445 92.3159 139.947 92.7646 139.297C93.361 138.431 93.6047 137.655 93.6047 136.619C93.6047 135.755 93.4127 135.031 92.9795 134.264C92.6735 133.724 91.9188 132.966 91.356 132.635C90.4536 132.105 89.3355 131.884 88.3059 132.032ZM73.1414 134.842C72.2563 135.002 71.1652 135.477 70.2022 136.121C69.2192 136.778 68.4858 137.403 67.0059 138.846C66.4942 139.345 65.9269 139.884 65.7455 140.046L65.4158 140.339L65.8505 140.769C66.8254 141.731 68.1579 142.35 69.7175 142.564C70.3324 142.648 71.7091 142.635 72.4012 142.538C74.3844 142.26 76.3866 141.363 77.5689 140.222C77.8977 139.905 78.3203 139.334 78.5307 138.922C78.7275 138.537 78.7594 138.404 78.6443 138.448C78.4855 138.509 77.368 138.741 76.9322 138.803C76.2371 138.903 74.5712 138.885 73.9336 138.771C73.2509 138.649 73.2258 138.632 73.5018 138.472C74.6182 137.823 76.4381 137.202 78.3197 136.829L78.6217 136.769L78.5006 136.639C78.2543 136.374 77.2996 135.7 76.8024 135.44C75.8635 134.949 75.1101 134.761 74.1218 134.768C73.7907 134.771 73.3496 134.804 73.1414 134.842ZM102.704 134.865C101.661 135.088 100.538 135.684 99.6024 136.514L99.3177 136.766L99.6278 136.826C100.36 136.969 101.661 137.314 102.353 137.55C103.509 137.944 104.766 138.554 104.605 138.644C104.383 138.768 103.463 138.863 102.471 138.866C101.364 138.868 100.754 138.8 99.7837 138.565C99.499 138.496 99.2578 138.448 99.2471 138.459C99.2365 138.469 99.2988 138.629 99.385 138.813C100.249 140.658 102.695 142.135 105.555 142.538C106.245 142.635 107.61 142.649 108.238 142.565C109.878 142.346 111.364 141.625 112.283 140.603L112.53 140.328L112.128 139.962C111.906 139.761 111.307 139.189 110.795 138.69C110.283 138.191 109.678 137.621 109.451 137.423C107.763 135.95 106.214 135.09 104.8 134.843C104.19 134.736 103.259 134.746 102.704 134.865ZM56.511 151.531C56.3974 151.543 56.0369 151.577 55.7098 151.608C51.3783 152.021 48.5329 153.832 47.5685 156.791C47.187 157.961 47.2054 157.526 47.2054 165.422L47.2054 172.499L47.3251 173.041C47.6461 174.497 48.1814 175.532 49.0872 176.45C50.5634 177.945 52.6379 178.787 55.7356 179.147C56.5011 179.237 59.7264 179.237 60.4919 179.147C64.1452 178.722 66.5363 177.556 67.8882 175.54C68.3591 174.839 68.6698 174.08 68.9006 173.067L69.0182 172.55L69.0362 165.68C69.0493 160.736 69.0376 158.672 68.995 158.319C68.7886 156.61 68.1838 155.323 67.0631 154.21C65.6528 152.809 63.6606 151.991 60.7763 151.627C60.1638 151.55 57.0421 151.48 56.511 151.531ZM74.0628 153.257V154.496L75.2648 154.498L76.4669 154.5L78.2052 156.81C79.1612 158.08 81.0511 160.589 82.405 162.384L84.8661 165.648L80.6717 170.933L76.477 176.218L75.1665 176.232L73.856 176.246V177.459V178.672L79.2069 178.672H84.5577V177.458V176.244H82.8775C81.9534 176.244 81.1972 176.232 81.1972 176.216C81.1972 176.194 86.9589 168.832 87.0909 168.686C87.1115 168.663 88.4372 170.348 90.0369 172.431L92.9443 176.218L91.0771 176.232L89.2108 176.246V177.459V178.672H94.8459H100.481V177.458V176.244L99.3046 176.242L98.1282 176.241L94.6391 171.667C92.7195 169.151 90.8425 166.69 90.4668 166.198L89.7842 165.304L94.0353 159.913L98.2865 154.523L99.4613 154.509L100.636 154.495V153.256V152.017H95.5177H90.3995V153.257V154.495L91.9672 154.509L93.5349 154.523L90.6202 158.293C89.0172 160.367 87.6652 162.118 87.6152 162.185L87.5249 162.307L84.5937 158.402L81.6623 154.496H83.4198H85.1779V153.257V152.017H79.6205L74.0628 152.017V153.257ZM104.875 153.257V154.496L106.839 154.496H108.802L108.818 163.756C108.836 172.944 108.836 173.019 108.944 173.508C109.253 174.908 109.804 175.921 110.739 176.804C112.16 178.145 114.351 178.941 117.309 179.187C118.107 179.254 120.078 179.254 120.876 179.187C125.367 178.813 128.123 177.145 129.035 174.249C129.371 173.185 129.35 173.847 129.368 163.704L129.383 154.496H131.295H133.206V153.257V152.017H126.848H120.488V153.257V154.496H122.428H124.368L124.352 163.679C124.336 172.786 124.336 172.864 124.228 173.326C123.799 175.17 122.702 176.083 120.53 176.405C119.97 176.488 118.15 176.489 117.619 176.406C115.725 176.109 114.609 175.345 114.102 173.996C113.778 173.137 113.8 173.856 113.782 163.73L113.765 154.496H115.679H117.593V153.257V152.017H111.234L104.875 152.017V153.257ZM57.0385 154.239C55.9586 154.336 55.1817 154.545 54.3943 154.949C53.735 155.288 53.1401 155.883 52.7995 156.545C52.5313 157.067 52.3303 157.75 52.2479 158.421C52.1717 159.043 52.1748 171.719 52.2516 172.344C52.3388 173.055 52.4777 173.532 52.77 174.125C52.9948 174.58 53.1036 174.732 53.4599 175.088C53.8281 175.456 53.9596 175.548 54.4732 175.798C55.5017 176.297 56.4461 176.472 58.1139 176.471C59.7514 176.469 60.76 176.283 61.7327 175.804C63.0421 175.159 63.7654 174.037 63.9788 172.319C64.0527 171.726 64.0537 159.027 63.9801 158.421C63.8954 157.727 63.742 157.198 63.4557 156.615C63.2274 156.15 63.1264 156.01 62.7421 155.627C62.3461 155.23 62.2272 155.147 61.7036 154.893C61.0432 154.574 60.578 154.431 59.8179 154.316C59.1756 154.219 57.71 154.179 57.0385 154.239ZM45.9388 181.333V182.03L88.9778 182.03L132.018 182.03V181.333V180.635L88.9778 180.635L45.9388 180.635V181.333ZM67.0194 184.745C66.0202 184.987 65.4597 185.792 65.7058 186.632C65.8778 187.219 66.2969 187.5 67.4007 187.769C68.124 187.945 68.3571 188.057 68.4063 188.253C68.5348 188.765 67.28 188.848 66.3677 188.387C66.1943 188.3 66.0434 188.228 66.0326 188.228C66.0216 188.228 65.9136 188.453 65.7928 188.728L65.5726 189.227L65.6948 189.321C65.8554 189.444 66.5019 189.656 66.948 189.731C67.4852 189.822 68.2755 189.767 68.6988 189.611C69.4117 189.346 69.7727 188.873 69.7706 188.206C69.7694 187.763 69.6607 187.496 69.3819 187.252C69.1097 187.013 68.8505 186.908 68.0271 186.701C67.2573 186.507 67.1016 186.433 67.0527 186.239C66.9343 185.767 67.8786 185.588 68.6932 185.93C68.8741 186.005 69.0571 186.077 69.0997 186.091C69.1569 186.109 69.2303 185.984 69.3788 185.619C69.6063 185.058 69.6052 185.054 69.2101 184.902C68.604 184.668 67.6242 184.598 67.0194 184.745ZM80.1225 184.744C78.9422 185.061 78.1988 186.019 78.1988 187.221C78.1988 188.711 79.3208 189.778 80.8872 189.778C81.6452 189.778 82.277 189.553 82.7553 189.114L83.0186 188.872L82.5732 188.468L82.1269 188.063L81.9364 188.23C81.6387 188.492 81.3265 188.609 80.9388 188.606C80.5524 188.604 80.3113 188.517 80.0467 188.284C79.7476 188.022 79.6223 187.708 79.6223 187.221C79.6223 186.734 79.7476 186.42 80.0467 186.158C80.3113 185.926 80.5524 185.839 80.9388 185.836C81.3265 185.833 81.6387 185.95 81.9366 186.211L82.1277 186.379L82.5412 186.007C82.7693 185.802 82.9547 185.604 82.9547 185.567C82.9547 185.467 82.5035 185.094 82.2057 184.949C81.6338 184.669 80.7319 184.581 80.1225 184.744ZM70.3922 187.221L70.3922 189.675H71.0903H71.7881L71.7881 187.221V184.767H71.0903H70.3922V187.221ZM72.822 187.219L72.822 189.675H73.4933H74.1644L74.1783 188.392L74.1921 187.11L75.2278 188.379L76.2636 189.649L76.8434 189.663L77.4232 189.678L77.4232 187.223V184.767H76.7521H76.0808L76.0671 186.05L76.0532 187.333L75.0174 186.063L73.9818 184.793L73.4021 184.779L72.822 184.764V187.219ZM83.5757 187.221L83.5757 189.675H85.5675H87.5594L87.5454 189.145L87.5307 188.616L86.2509 188.602L84.9711 188.588V188.15V187.712H86.0573H87.1426L87.1426 187.195V186.678H86.0573H84.9711V186.266V185.852H86.2123H87.4527V185.31V184.767H85.5142H83.5757V187.221ZM96.1379 185.303C96.01 185.338 95.8123 185.412 95.699 185.466C95.4874 185.567 95.0009 186.013 95.0009 186.105C95.0009 186.133 95.2003 186.266 95.4439 186.398L95.8869 186.639L96.0256 186.507C96.3627 186.184 96.905 186.133 97.1191 186.405C97.38 186.736 97.2389 186.967 96.133 188.025L95.2077 188.91V189.293V189.675H96.8878H98.5679V189.184V188.693H97.7688H96.969L97.5818 188.087C98.2561 187.418 98.4104 187.177 98.4514 186.723C98.5342 185.814 97.8673 185.226 96.7663 185.236C96.549 185.238 96.2659 185.268 96.1379 185.303ZM100.303 185.315C99.7492 185.491 99.3398 185.911 99.1249 186.524C99.0273 186.804 99.0076 186.966 99.0076 187.505C99.0076 188.044 99.0273 188.207 99.1249 188.487C99.4301 189.358 100.122 189.824 101.022 189.767C102.11 189.697 102.805 188.815 102.805 187.505C102.805 186.504 102.387 185.723 101.678 185.398C101.309 185.229 100.689 185.191 100.303 185.315ZM104.048 185.303C103.92 185.338 103.722 185.412 103.609 185.466C103.397 185.567 102.911 186.013 102.911 186.105C102.911 186.133 103.11 186.266 103.354 186.398L103.797 186.639L103.936 186.507C104.273 186.184 104.815 186.133 105.029 186.405C105.29 186.736 105.149 186.967 104.043 188.025L103.118 188.91V189.293V189.675H104.798L106.478 189.675V189.184V188.693H105.679L104.879 188.693L105.492 188.087C106.167 187.418 106.32 187.177 106.361 186.723C106.444 185.814 105.777 185.226 104.676 185.236C104.459 185.238 104.176 185.268 104.048 185.303ZM107.719 185.303C107.591 185.338 107.393 185.412 107.279 185.466C107.068 185.567 106.581 186.013 106.581 186.105C106.581 186.133 106.781 186.266 107.024 186.398L107.467 186.639L107.606 186.507C107.943 186.184 108.486 186.133 108.699 186.405C108.96 186.736 108.819 186.967 107.714 188.025L106.788 188.91V189.293V189.675H108.468H110.148V189.184V188.693H109.349H108.549L109.162 188.087C109.837 187.418 109.991 187.177 110.033 186.723C110.115 185.814 109.448 185.226 108.347 185.236C108.129 185.238 107.847 185.268 107.719 185.303ZM100.516 186.399C100.307 186.608 100.248 186.851 100.248 187.505C100.248 188.159 100.307 188.402 100.516 188.611C100.618 188.713 100.702 188.745 100.869 188.745C101.337 188.745 101.541 188.369 101.541 187.505C101.541 186.641 101.337 186.266 100.869 186.266C100.702 186.266 100.618 186.298 100.516 186.399Z" fill="#0025B9"/>
</g>
</svg>
